<svg width="25" height="25" viewBox="0 0 25 25" fill="none" xmlns="http://www.w3.org/2000/svg">
<g clip-path="url(#clip0_1070_571)">
<path d="M8.50002 4.12C8.50002 2.67 9.68002 1.5 11.12 1.5H11.5C11.5 0.95 11.95 0.5 12.5 0.5C13.05 0.5 13.5 0.95 13.5 1.5H13.77C14.84 1.5 15.83 2.07 16.37 3C16.65 3.48 16.48 4.09 16.01 4.37C15.53 4.65 14.92 4.48 14.64 4.01C14.46 3.7 14.13 3.51 13.77 3.51H11.13C10.79 3.51 10.51 3.79 10.51 4.13C10.51 4.44 10.73 4.7 11.03 4.75L14.31 5.3C15.58 5.51 16.5 6.6 16.5 7.89C16.5 9.34 15.32 10.51 13.88 10.51H13.5C13.5 11.06 13.05 11.51 12.5 11.51C11.95 11.51 11.5 11.06 11.5 10.51H11.23C10.16 10.51 9.17002 9.94 8.63002 9.01C8.35002 8.53 8.52002 7.92 8.99002 7.64C9.47002 7.36 10.08 7.53 10.36 8C10.54 8.31 10.87 8.5 11.23 8.5H13.87C14.21 8.5 14.49 8.22 14.49 7.88C14.49 7.57 14.27 7.31 13.97 7.26L10.69 6.71C9.42002 6.5 8.50002 5.41 8.50002 4.12ZM20.9 3.55C19.48 3.83 18.5 5.16 18.5 6.61V11.66C18.24 11.57 17.96 11.51 17.67 11.49C16.88 11.45 16.1 11.72 15.5 12.26L12.5 15.02C12.42 14.94 12.33 14.85 12.25 14.77L9.51002 12.25C8.91002 11.71 8.13002 11.44 7.35002 11.49C7.06002 11.51 6.78002 11.56 6.52002 11.66V6.5C6.52002 4.65 4.84002 3.19 2.92002 3.56C1.50002 3.84 0.52002 5.17 0.52002 6.62V16.6C0.52002 18.72 1.36002 20.76 2.86002 22.26L4.81002 24.21C5.01002 24.41 5.26002 24.5 5.52002 24.5C5.78002 24.5 6.03002 24.4 6.23002 24.21C6.62002 23.82 6.62002 23.19 6.23002 22.8L4.28002 20.85C3.15002 19.72 2.52002 18.2 2.52002 16.61V6.5C2.52002 5.95 2.97002 5.5 3.52002 5.5C4.07002 5.5 4.52002 5.95 4.52002 6.5C4.52002 6.5 4.52002 14.63 4.54002 14.69C4.58002 15.32 4.82002 15.95 5.27002 16.47L7.89002 19.19C8.27002 19.59 8.90002 19.6 9.30002 19.22C9.70002 18.84 9.71002 18.2 9.33002 17.81L6.76002 15.14C6.44002 14.76 6.45002 14.2 6.78002 13.83C6.96002 13.63 7.20002 13.51 7.47002 13.5C7.74002 13.49 7.99002 13.58 8.18002 13.75L10.91 16.27C11.94 17.22 12.52 18.55 12.52 19.95V23.51C12.52 24.06 12.97 24.51 13.52 24.51C14.07 24.51 14.52 24.06 14.52 23.51V19.95C14.52 18.8 14.23 17.67 13.7 16.67L16.77 13.8C17.16 13.44 17.75 13.44 18.15 13.79C18.58 14.18 18.6 14.84 18.2 15.25L15.8 17.73C15.42 18.13 15.43 18.76 15.83 19.14C16.02 19.33 16.27 19.42 16.52 19.42C16.78 19.42 17.04 19.32 17.24 19.11L19.82 16.43C20.26 15.91 20.49 15.27 20.51 14.63C20.51 14.59 20.51 6.51 20.51 6.51C20.51 5.96 20.96 5.51 21.51 5.51C22.06 5.51 22.51 5.96 22.51 6.51V16.61C22.51 18.2 21.88 19.73 20.75 20.85L18.8 22.8C18.41 23.19 18.41 23.82 18.8 24.21C19 24.41 19.25 24.5 19.51 24.5C19.77 24.5 20.02 24.4 20.22 24.21L22.17 22.26C23.67 20.76 24.51 18.73 24.51 16.6V6.5C24.51 4.65 22.83 3.19 20.91 3.56L20.9 3.55Z" fill="white"/>
</g>
<defs>
<clipPath id="clip0_1070_571">
<rect width="24" height="24" fill="white" transform="translate(0.5 0.5)"/>
</clipPath>
</defs>
</svg>
