<svg width="25" height="25" viewBox="0 0 25 25" fill="none" xmlns="http://www.w3.org/2000/svg">
<g clip-path="url(#clip0_1118_1678)">
<path d="M18.2293 1.99609C17.0564 2.01434 15.909 2.34177 14.903 2.94533C13.8971 3.54889 13.0682 4.40721 12.5002 5.43359C11.9321 4.40721 11.1032 3.54889 10.0973 2.94533C9.09135 2.34177 7.94396 2.01434 6.77099 1.99609C4.90114 2.07733 3.13944 2.89532 1.87077 4.27134C0.602097 5.64735 -0.0704135 7.46956 0.000160004 9.33984C0.000160004 14.0763 4.98558 19.2492 9.16683 22.7565C10.1004 23.541 11.2807 23.9711 12.5002 23.9711C13.7196 23.9711 14.8999 23.541 15.8335 22.7565C20.0147 19.2492 25.0002 14.0763 25.0002 9.33984C25.0707 7.46956 24.3982 5.64735 23.1296 4.27134C21.8609 2.89532 20.0992 2.07733 18.2293 1.99609Z" fill="white"/>
</g>
<defs>
<clipPath id="clip0_1118_1678">
<rect width="25" height="25" fill="white"/>
</clipPath>
</defs>
</svg>
