<svg width="41" height="43" viewBox="0 0 41 43" fill="none" xmlns="http://www.w3.org/2000/svg">
<g clip-path="url(#clip0_1126_1667)">
<path d="M26.9258 35.3008H33.5747C35.3381 35.3008 37.0293 34.563 38.2762 33.2497C39.5231 31.9364 40.2236 30.1552 40.2236 28.298V21.2952C40.2236 20.3665 39.8734 19.476 39.2499 18.8193C38.6265 18.1627 37.7809 17.7938 36.8992 17.7938H27.0754C27.4698 15.3489 28.672 13.1294 30.4696 11.5277C32.2672 9.9259 34.5445 9.04488 36.8992 9.04028C37.34 9.04028 37.7628 8.85583 38.0745 8.52751C38.3863 8.19919 38.5614 7.75389 38.5614 7.28958C38.5614 6.82526 38.3863 6.37996 38.0745 6.05164C37.7628 5.72332 37.34 5.53888 36.8992 5.53888C33.3736 5.54305 29.9935 7.01997 27.5005 9.64563C25.0075 12.2713 23.6053 15.8312 23.6013 19.5445V31.7994C23.6013 32.728 23.9515 33.6186 24.575 34.2752C25.1985 34.9319 26.0441 35.3008 26.9258 35.3008Z" fill="#21398F"/>
<path d="M3.65428 35.3008H10.3032C12.0666 35.3008 13.7578 34.563 15.0047 33.2497C16.2516 31.9364 16.9521 30.1552 16.9521 28.298V21.2952C16.9521 20.3665 16.6019 19.476 15.9784 18.8193C15.355 18.1627 14.5094 17.7938 13.6277 17.7938H3.80388C4.19827 15.3489 5.40049 13.1294 7.19811 11.5277C8.99573 9.9259 11.273 9.04488 13.6277 9.04028C14.0685 9.04028 14.4913 8.85583 14.8031 8.52751C15.1148 8.19919 15.2899 7.75389 15.2899 7.28958C15.2899 6.82526 15.1148 6.37996 14.8031 6.05164C14.4913 5.72332 14.0685 5.53888 13.6277 5.53888C10.1021 5.54305 6.72202 7.01997 4.22904 9.64563C1.73606 12.2713 0.333767 15.8312 0.329807 19.5445V31.7994C0.329807 32.728 0.680063 33.6186 1.30352 34.2752C1.92698 34.9319 2.77257 35.3008 3.65428 35.3008Z" fill="#21398F"/>
</g>
<defs>
<clipPath id="clip0_1126_1667">
<rect width="39.8936" height="42.0168" fill="white" transform="matrix(-1 0 0 -1 40.2236 42.3027)"/>
</clipPath>
</defs>
</svg>
