<svg width="24" height="25" viewBox="0 0 24 25" fill="none" xmlns="http://www.w3.org/2000/svg">
<g clip-path="url(#clip0_1070_578)">
<path d="M22 19.78V23.501C22 24.053 21.553 24.501 21 24.501C20.447 24.501 20 24.053 20 23.501V19.78C20 18.355 18.985 17.118 17.588 16.838L10.804 15.481C10.337 15.388 10 14.977 10 14.501V7.60795C10 7.06995 9.63802 6.58995 9.17602 6.51595C8.87002 6.46595 8.58002 6.54595 8.35302 6.73895C8.12902 6.92895 8.00002 7.20695 8.00002 7.50095V21.139C8.00002 21.523 7.78002 21.873 7.43402 22.04C7.09002 22.207 6.67802 22.162 6.37702 21.921L3.74002 19.821C3.27702 19.393 2.64502 19.415 2.27002 19.817C1.89402 20.22 1.91502 20.856 2.31702 21.234L3.69402 22.562C4.09102 22.945 4.10302 23.578 3.71902 23.976C3.33602 24.373 2.70302 24.384 2.30502 24.001L0.938018 22.683C-0.256982 21.562 -0.320982 19.66 0.808018 18.452C1.93702 17.246 3.83702 17.181 5.04502 18.308L6.00002 19.067V7.50095C6.00002 6.61995 6.38502 5.78695 7.05702 5.21495C7.72802 4.64295 8.61802 4.39695 9.49602 4.54095C10.923 4.77195 11.999 6.09095 11.999 7.60695V13.68L17.979 14.876C20.308 15.342 21.999 17.404 21.999 19.779L22 19.78ZM3.54402 11.001C3.68402 11.001 3.82502 10.972 3.96102 10.91C4.46302 10.68 4.68302 10.086 4.45302 9.58395C4.15202 8.92895 4.00002 8.22795 4.00002 7.50095C4.00002 4.74395 6.24302 2.50095 9.00002 2.50095C11.757 2.50095 14 4.74395 14 7.50095C14 8.22995 13.848 8.92995 13.548 9.58395C13.317 10.086 13.537 10.68 14.038 10.91C14.543 11.141 15.135 10.921 15.364 10.419C15.786 9.50195 16 8.51995 16 7.50195C16 3.64195 12.86 0.501953 9.00002 0.501953C5.14002 0.501953 2.00002 3.64095 2.00002 7.50095C2.00002 8.51795 2.21402 9.49895 2.63502 10.418C2.80302 10.785 3.16602 11.001 3.54502 11.001H3.54402Z" fill="white"/>
</g>
<defs>
<clipPath id="clip0_1070_578">
<rect width="24" height="24" fill="white" transform="translate(0 0.5)"/>
</clipPath>
</defs>
</svg>
