<svg width="50" height="50" viewBox="0 0 50 50" fill="none" xmlns="http://www.w3.org/2000/svg">
<g clip-path="url(#clip0_1368_82)">
<path d="M25 25.166C27.4723 25.166 29.889 24.4329 31.9446 23.0594C34.0002 21.6859 35.6024 19.7336 36.5485 17.4496C37.4946 15.1655 37.7421 12.6522 37.2598 10.2274C36.7775 7.80263 35.587 5.57534 33.8388 3.82719C32.0907 2.07903 29.8634 0.88852 27.4386 0.406205C25.0139 -0.07611 22.5005 0.171432 20.2165 1.11753C17.9324 2.06362 15.9801 3.66578 14.6066 5.72139C13.2331 7.77701 12.5 10.1938 12.5 12.666C12.5033 15.9802 13.8213 19.1577 16.1648 21.5012C18.5083 23.8447 21.6858 25.1627 25 25.166ZM25 4.33269C26.6482 4.33269 28.2593 4.82143 29.6298 5.73711C31.0002 6.65279 32.0683 7.95428 32.699 9.47699C33.3297 10.9997 33.4948 12.6753 33.1732 14.2918C32.8517 15.9083 32.058 17.3931 30.8926 18.5586C29.7271 19.724 28.2423 20.5177 26.6258 20.8392C25.0092 21.1608 23.3337 20.9957 21.811 20.365C20.2883 19.7343 18.9868 18.6662 18.0711 17.2958C17.1554 15.9254 16.6667 14.3142 16.6667 12.666C16.6667 10.4559 17.5446 8.33627 19.1074 6.77346C20.6702 5.21066 22.7899 4.33269 25 4.33269Z" fill="white"/>
<path d="M25 29.166C20.0289 29.1715 15.2629 31.1487 11.7478 34.6639C8.23273 38.179 6.25551 42.9449 6.25 47.916C6.25 48.4686 6.46949 48.9985 6.86019 49.3892C7.25089 49.7799 7.7808 49.9994 8.33333 49.9994C8.88587 49.9994 9.41577 49.7799 9.80647 49.3892C10.1972 48.9985 10.4167 48.4686 10.4167 47.916C10.4167 44.0483 11.9531 40.3389 14.688 37.604C17.4229 34.8691 21.1323 33.3327 25 33.3327C28.8677 33.3327 32.5771 34.8691 35.312 37.604C38.0469 40.3389 39.5833 44.0483 39.5833 47.916C39.5833 48.4686 39.8028 48.9985 40.1935 49.3892C40.5842 49.7799 41.1141 49.9994 41.6667 49.9994C42.2192 49.9994 42.7491 49.7799 43.1398 49.3892C43.5305 48.9985 43.75 48.4686 43.75 47.916C43.7445 42.9449 41.7673 38.179 38.2522 34.6639C34.737 31.1487 29.9711 29.1715 25 29.166Z" fill="white"/>
</g>
<defs>
<clipPath id="clip0_1368_82">
<rect width="50" height="49.8333" fill="white" transform="translate(0 0.166016)"/>
</clipPath>
</defs>
</svg>
