<svg width="51" height="50" viewBox="0 0 51 50" fill="none" xmlns="http://www.w3.org/2000/svg">
<path d="M25.5 0C11.7154 0 0.5 11.2154 0.5 25C0.5 38.7846 11.7154 50 25.5 50C39.2846 50 50.5 38.7846 50.5 25C50.5 11.2154 39.2846 0 25.5 0ZM19.0885 7.69231H31.9078C37.9174 7.69231 42.8077 12.5808 42.8077 18.5885V31.4078C42.8077 37.4174 37.9192 42.3077 31.9115 42.3077H19.0922C13.0826 42.3077 8.19231 37.4192 8.19231 31.4115V18.5922C8.19231 12.5826 13.0808 7.69231 19.0885 7.69231ZM19.0885 11.5385C15.202 11.5385 12.0385 14.7038 12.0385 18.5922V31.4115C12.0385 35.298 15.2038 38.4615 19.0922 38.4615H31.9115C35.798 38.4615 38.9615 35.2962 38.9615 31.4078V18.5885C38.9615 14.702 35.7962 11.5385 31.9078 11.5385H19.0885ZM34.4769 14.7423C35.1846 14.7423 35.7577 15.3154 35.7577 16.0231C35.7577 16.7308 35.1846 17.3077 34.4769 17.3077C33.7692 17.3077 33.1923 16.7308 33.1923 16.0231C33.1923 15.3154 33.7692 14.7423 34.4769 14.7423ZM25.5 15.3846C30.8019 15.3846 35.1154 19.6981 35.1154 25C35.1154 30.3019 30.8019 34.6154 25.5 34.6154C20.1981 34.6154 15.8846 30.3019 15.8846 25C15.8846 19.6981 20.1981 15.3846 25.5 15.3846ZM25.5 19.2308C23.9699 19.2308 22.5025 19.8386 21.4205 20.9205C20.3386 22.0025 19.7308 23.4699 19.7308 25C19.7308 26.5301 20.3386 27.9975 21.4205 29.0795C22.5025 30.1614 23.9699 30.7692 25.5 30.7692C27.0301 30.7692 28.4975 30.1614 29.5795 29.0795C30.6614 27.9975 31.2692 26.5301 31.2692 25C31.2692 23.4699 30.6614 22.0025 29.5795 20.9205C28.4975 19.8386 27.0301 19.2308 25.5 19.2308Z" fill="#E4AEB4"/>
</svg>
