<svg width="180" height="47" viewBox="0 0 180 47" fill="none" xmlns="http://www.w3.org/2000/svg">
<g clip-path="url(#clip0_1226_4315)">
<path d="M5.80079 39.3713C5.80079 39.7437 5.72032 40.0212 5.57402 40.1673C5.42772 40.3134 5.18633 40.3791 4.81326 40.3791H0.987524C0.629089 40.3791 0.373065 40.3134 0.226765 40.1673C0.0804649 40.0212 0 39.7437 0 39.3713V15.2857C0 14.5408 0.1463 13.9858 0.4389 13.6498C0.731499 13.292 1.25086 13.1167 1.98236 13.1167H3.75259C4.40363 13.1167 5.00345 13.197 5.57402 13.3796C6.15922 13.5403 6.77368 13.9346 7.42472 14.5116C8.09038 15.1104 8.85114 16.0379 9.71431 17.2867C10.5921 18.5356 11.6455 20.2226 12.8817 22.377C14.0667 24.4365 15.0104 26.0723 15.7272 27.3066C16.4587 28.5408 17.0074 29.4829 17.4024 30.1109C17.7901 30.7609 18.0827 31.2137 18.2802 31.5058C18.4777 31.7834 18.6532 32.0097 18.7703 32.185V16.1475C18.7703 15.775 18.8361 15.4975 18.9458 15.3076C19.5018 14.4678 20.2479 13.5914 21.2062 12.6639C21.4037 12.5178 21.55 12.4375 21.6743 12.4375C21.8206 12.4375 21.9669 12.5178 22.1279 12.6639C22.6472 13.1532 23.0861 13.606 23.4445 14.0588C23.8176 14.497 24.1248 14.8986 24.4028 15.3076C24.5199 15.5048 24.5784 15.7969 24.5784 16.1475V38.787C24.5784 39.3566 24.4613 39.7583 24.2565 40.0066C24.0517 40.2549 23.6421 40.3645 23.0715 40.3645H21.2501C20.6941 40.3645 20.1455 40.2841 19.5749 40.1016C19.0043 39.9044 18.3533 39.4881 17.6218 38.8527C16.8903 38.1882 16.0491 37.1657 15.0543 35.7854C14.0594 34.4052 12.8744 32.5064 11.4772 30.1256C10.2922 28.0807 9.34856 26.4594 8.63169 25.2617C7.93677 24.064 7.39546 23.1511 7.03702 22.5377C6.66396 21.9242 6.40062 21.486 6.23969 21.2377C6.07876 20.9748 5.93246 20.7995 5.81542 20.6681V39.3493L5.78616 39.364L5.80079 39.3713Z" fill="#21398F"/>
<path d="M99.9738 40.8452C97.3404 40.8452 95.0362 40.3413 93.0831 39.3189C91.13 38.311 89.6084 36.7701 88.5331 34.7471C87.4578 32.7023 86.9385 30.1535 86.9385 27.1081C86.9385 22.2589 88.1235 18.6438 90.4936 16.2557C92.8636 13.853 96.1773 12.6699 100.42 12.6699C104.399 12.6699 107.537 13.8384 109.842 16.19C112.146 18.527 113.302 21.9813 113.302 26.5677C113.302 29.8102 112.768 32.4905 111.678 34.6157C110.602 36.7263 109.059 38.2964 107.062 39.3335C105.065 40.3559 102.82 40.8452 100.069 40.8452H99.9592H99.9738ZM100.091 35.7184C102.38 35.7184 104.07 34.9078 105.175 33.2719C106.279 31.636 106.835 29.5108 106.835 26.8963C106.835 23.8655 106.316 21.5943 105.277 20.0679C104.238 18.5416 102.563 17.7821 100.259 17.7821C95.7092 17.7821 93.4196 20.7836 93.4196 26.7649C93.4196 29.4378 93.9755 31.5995 95.0581 33.25C96.1627 34.8859 97.8378 35.6965 100.113 35.6965L100.098 35.7111L100.091 35.7184Z" fill="#21398F"/>
<path d="M124.216 39.3713C124.216 39.7438 124.135 40.0213 123.974 40.1674C123.828 40.3134 123.55 40.3792 123.177 40.3792H119.117C118.744 40.3792 118.466 40.3134 118.305 40.1674C118.159 40.0213 118.079 39.7438 118.079 39.3713V18.2216C118.079 16.9582 118.196 15.9504 118.422 15.22C118.664 14.4751 119.117 13.942 119.79 13.628C120.471 13.3066 121.48 13.1387 122.782 13.1387H127.837C134.464 13.1387 137.778 15.6874 137.778 20.7631C137.778 22.304 137.515 23.5675 136.995 24.5607C136.476 25.5466 135.825 26.328 135.042 26.8831C134.259 27.4381 133.499 27.8398 132.752 28.1173V28.2122C133.594 28.7673 134.413 29.5122 135.174 30.4178C135.956 31.3087 136.651 32.3019 137.266 33.3682C137.88 34.4198 138.422 35.4569 138.839 36.5012C139.277 37.5236 139.57 38.4511 139.731 39.2618C139.811 39.6342 139.811 39.9264 139.731 40.1235C139.665 40.3207 139.453 40.4157 139.08 40.4157H134.676C134.354 40.4157 134.062 40.3499 133.799 40.2039C133.557 40.0578 133.33 39.7365 133.133 39.2326C132.175 36.8153 131.055 34.8361 129.805 33.3317C128.554 31.7907 127.332 30.5711 126.169 29.6509C125.423 29.0521 125.05 28.6285 125.05 28.3729C125.05 28.1757 125.167 27.8836 125.408 27.533C125.555 27.3212 125.781 27.0656 126.074 26.7516C126.367 26.4376 126.63 26.2185 126.835 26.0724C127.047 25.9264 127.222 25.8314 127.354 25.7803C127.5 25.7511 127.698 25.7146 127.99 25.7146C128.934 25.7146 129.709 25.3932 130.331 24.7433C130.968 24.0933 131.289 23.0709 131.289 21.676C131.289 20.3614 130.946 19.3901 130.28 18.7913C129.614 18.1778 128.707 17.8638 127.537 17.8638H126.403C125.562 17.8638 124.991 18.039 124.699 18.3969C124.391 18.7547 124.245 19.3536 124.245 20.2154V39.3859H124.231L124.216 39.3713Z" fill="#21398F"/>
<path d="M147.979 40.327C146.677 40.327 145.905 40.2175 145.217 39.8888C144.551 39.5675 144.083 39.0125 143.849 38.2676C143.615 37.5226 143.505 36.5294 143.505 35.2806V16.1611C143.505 15.7887 143.571 15.5112 143.703 15.3213C144.273 14.4814 145.071 13.6051 146.11 12.6776C146.307 12.5315 146.468 12.4512 146.6 12.4512C146.746 12.4512 146.907 12.5315 147.068 12.6776C147.624 13.1669 148.092 13.6197 148.48 14.0725C148.853 14.5106 149.196 14.9123 149.467 15.3213C149.599 15.5185 149.665 15.8106 149.665 16.1611V33.0093C149.665 33.8492 149.811 34.47 150.118 34.8278C150.425 35.2003 150.996 35.3828 151.823 35.3828H157.675C157.982 35.3682 158.209 35.4121 158.355 35.5143C158.677 35.7407 159.02 36.0182 159.379 36.3249C159.737 36.6463 160.11 37.0187 160.498 37.4569C160.63 37.6176 160.696 37.749 160.696 37.8659C160.696 37.9827 160.63 38.1069 160.498 38.2383C160.11 38.6765 159.737 39.0636 159.379 39.3703C159.02 39.6917 158.684 39.9546 158.355 40.181C158.179 40.2759 157.945 40.327 157.675 40.327H148.216H148.102H147.979Z" fill="#21398F"/>
<path d="M171.902 39.4368C171.902 39.8093 171.829 40.0207 171.668 40.1668C171.522 40.3128 171.244 40.3786 170.871 40.3786H166.811C166.423 40.3786 166.16 40.3128 165.999 40.1668C165.853 40.0207 165.772 39.7432 165.772 39.3707V30.7896L161.99 26.3932C161.083 25.3415 160.33 24.3994 159.701 23.5523C159.086 22.7124 158.626 21.8507 158.333 20.9743C158.026 20.0833 157.879 19.0244 157.879 17.8121V16.1397C157.879 15.7672 157.945 15.4897 158.077 15.2998C158.647 14.4599 159.445 13.5836 160.484 12.6561C160.681 12.51 160.842 12.4297 161.003 12.4297C161.164 12.4297 161.31 12.51 161.471 12.6561C162.027 13.1454 162.495 13.5982 162.883 14.051C163.271 14.4892 163.6 14.8908 163.87 15.2998C164.002 15.497 164.068 15.7891 164.068 16.1397V17.7974C164.068 18.6227 164.309 19.5356 164.785 20.5361C165.275 21.5439 166.087 22.6467 167.221 23.8444L169.071 25.7943L170.878 23.8444C171.902 22.7416 172.685 21.69 173.219 20.6822C173.775 19.6743 174.031 18.7176 174.031 17.8121V16.1397C174.031 15.7672 174.097 15.4897 174.228 15.2998C174.784 14.4745 175.545 13.5982 176.555 12.6561C176.752 12.51 176.913 12.4297 177.023 12.4297C177.169 12.4297 177.33 12.51 177.491 12.6561C178.025 13.1454 178.478 13.5982 178.837 14.051C179.225 14.4892 179.532 14.8908 179.81 15.2998C179.941 15.497 180.007 15.7891 180.007 16.1397V17.8121C180.007 19.2069 179.7 20.5361 179.1 21.8214C178.486 23.0849 177.462 24.5309 175.999 26.1522L171.939 30.6582L171.902 39.0717V39.4368Z" fill="#21398F"/>
<path d="M81.2111 29.1183C80.6917 28.1908 79.9602 27.4459 79.0678 26.8836C78.1753 26.2993 77.1659 25.9269 76.0467 25.7808V25.7005C76.9245 25.4084 77.7364 24.9702 78.4679 24.3859C79.2141 23.8017 79.8139 23.1079 80.2747 22.2753C80.7283 21.4501 80.955 20.5372 80.955 19.5367C80.955 17.5064 80.1431 15.9363 78.5045 14.8189C76.8806 13.7015 74.5398 13.1465 71.4894 13.1465C69.3096 13.1465 67.2614 14.3296 66.3177 16.2868C65.5936 17.7912 64.5475 19.1131 63.2674 20.1574C62.236 20.9973 61.5703 22.2023 61.5703 23.5315V35.2894C61.5703 36.5382 61.6874 37.5242 61.9141 38.2764C62.1409 39.0213 62.6164 39.5763 63.282 39.8977C63.9623 40.219 64.9718 40.387 66.2739 40.387H66.348L72.0308 40.4381C73.9985 40.4381 75.7175 40.146 77.2098 39.5325C78.724 38.8971 79.909 37.9916 80.7502 36.7939C81.6134 35.5742 82.0523 34.0698 82.0523 32.3025C82.0523 31.1048 81.7889 30.0458 81.2403 29.1402L81.2111 29.1183ZM74.3862 34.8658C73.6035 35.5304 72.5794 35.8518 71.2993 35.8518H69.8509C69.0243 35.8518 68.4537 35.6765 68.1465 35.2967C67.8393 34.9389 67.693 34.3254 67.693 33.4783H67.7222V19.9968C67.7222 19.135 67.8831 18.5362 68.1757 18.1783C68.4683 17.8205 69.0389 17.6452 69.8801 17.6452H70.9042C71.943 17.6452 72.8208 17.857 73.4864 18.2586C74.1521 18.6676 74.4959 19.4563 74.4959 20.6614C74.4959 21.8664 74.174 22.7354 73.5376 23.2905C72.9012 23.8601 72.2209 24.1303 71.4748 24.1303H71.4894C71.2115 24.1303 70.9847 24.1814 70.8092 24.2618C70.4873 24.4736 70.1435 24.7146 69.7851 25.0067C69.4412 25.2988 69.0682 25.642 68.6659 26.0437C68.5342 26.1752 68.4683 26.3066 68.4683 26.4016C68.4683 26.4673 68.5342 26.5988 68.6659 26.7594C69.0755 27.1684 69.4486 27.5043 69.7851 27.7965C70.1435 28.074 70.48 28.3296 70.8092 28.5414C70.9554 28.6217 71.1822 28.6728 71.4894 28.6728H71.4748C72.6964 28.6728 73.6693 28.9796 74.4301 29.6003C75.1908 30.2138 75.5639 31.0244 75.5639 32.1637C75.5639 33.303 75.1543 34.194 74.3789 34.8585L74.3862 34.8658Z" fill="#21398F"/>
<path d="M54.4456 22.7126C60.7277 22.7126 65.8204 17.6282 65.8204 11.3563C65.8204 5.08438 60.7277 0 54.4456 0C48.1635 0 43.0708 5.08438 43.0708 11.3563C43.0708 17.6282 48.1635 22.7126 54.4456 22.7126Z" fill="#21398F"/>
<path d="M33.7294 13.1454C30.1305 12.919 28.8357 14.7958 29.0332 18.221V35.281C28.8357 38.6769 29.9388 40.5173 33.5451 40.2763H33.7441H43.3121C44.563 40.101 45.6456 38.8522 46.3332 37.8078C45.6748 36.7343 44.5703 35.5001 43.3121 35.3102C42.1124 35.0911 38.0378 34.3243 35.8433 34.3243C32.9169 34.3243 33.0128 29.0515 35.8437 29.2122C38.499 29.3582 43.5901 29.2559 45.0531 26.6341C43.5974 23.9685 38.5283 23.9612 35.8437 24.1C32.552 24.5747 31.6815 18.63 35.8437 18.6227C36.3338 18.5935 41.1688 18.221 42.7269 18.053C43.1512 18.0092 43.3926 17.5564 43.217 17.1693C41.0298 12.3055 38.8207 13.1015 33.7294 13.138V13.1454Z" fill="#21398F"/>
<path d="M52.3973 24.1369C51.9365 24.0492 51.5122 24.4071 51.5122 24.8745V40.1678C51.5122 40.1678 51.5709 40.1678 51.9365 40.1678C52.3023 40.1678 52.295 40.1678 52.668 40.1678H53.3995H54.4968H56.3255C56.6986 40.1678 56.6721 40.1678 57.057 40.1678C57.3167 40.1678 57.3717 40.1678 57.5032 40.1678V24.8526C57.5032 24.3779 57.0716 24.02 56.6034 24.115C55.9012 24.2537 55.1843 24.3267 54.4455 24.3267C53.7433 24.3267 53.063 24.2537 52.3973 24.1296V24.1369Z" fill="#21398F"/>
</g>
<defs>
<clipPath id="clip0_1226_4315">
<rect width="180" height="42" fill="white"/>
</clipPath>
</defs>
</svg>
