<svg width="53" height="53" viewBox="0 0 53 53" fill="none" xmlns="http://www.w3.org/2000/svg">
<path d="M0 26.5C0 11.8645 11.8645 0 26.5 0C41.1355 0 53 11.8645 53 26.5C53 41.1355 41.1355 53 26.5 53C11.8645 53 0 41.1355 0 26.5Z" fill="#CADCE9"/>
<path d="M42.1442 33.7941C49.4036 33.7941 53.5 27.5 52.5 21.5C51 15 49.4036 10 42.1442 10C34.8849 10 29 15.3265 29 21.8971C29 28.4676 34.8849 33.7941 42.1442 33.7941Z" fill="#21398F"/>
<path d="M40.0221 34.039C39.4896 33.9472 38.9993 34.3221 38.9993 34.8118L38 49.5C38 49.5 38.5 49.5 39 49.5C39.4226 49.5 39.0585 49.5 39.4896 49.5L40.3349 49L40.9993 48.5L41.9993 48C42.5 47.5 42.5 47 43 47C43.5 47 43.8474 46.5 43.9993 46.5L45.9222 34.7888C45.9222 34.2915 45.4235 33.9166 44.8825 34.0161C44.071 34.1614 43.2426 34.2379 42.3889 34.2379C41.5774 34.2379 40.7913 34.1614 40.0221 34.0314V34.039Z" fill="#21398F"/>
<path d="M7.44109 44.5C7.61015 44.347 7.44109 44.8902 7.44109 44.5C7.3791 42.2279 7.27204 44.653 7.44109 44.5C7.61015 44.653 7.0269 44.5 7.44109 44.5C7.27204 44.347 5.33633 42.5 5.33633 42.5L2.5 38L1.50717 35L1 33.5V32V23.9838C1 23.2034 1.16906 22.622 1.50717 22.27C1.84529 21.8951 2.44544 21.7115 3.29073 21.7115H5.33633C6.08863 21.7115 6.78177 21.7957 7.44109 21.987C8.11732 22.1553 8.82737 22.5684 9.57967 23.1728C10.3489 23.8002 11.228 24.7719 12.2254 26.0802C13.2398 27.3885 14.457 29.1558 15.8855 31.4128C17.2549 33.5703 18.3453 35.2841 19.1737 36.5771C20.019 37.8701 20.6529 38.8571 21.1094 39.515C21.5574 40.196 21.8955 40.6703 22.1237 40.9764C22.352 41.2671 22.5548 41.5043 22.6901 41.6879V24.8866C22.6901 24.4964 22.7662 24.2057 22.893 24.0068C23.5354 23.1269 24.3976 22.2088 25.5049 21.2372C25.7331 21.0842 25.9022 21 26.0459 21C26.2149 21 26.384 21.0842 26.57 21.2372C27.1701 21.7498 27.6773 22.2241 28.0915 22.6985C28.5226 23.1575 28.8776 23.5783 29.1988 24.0068C29.3341 24.2134 29.4017 24.5194 29.4017 24.8866V48.6042C29.4017 49.201 29.2664 49.6218 29.0297 49.8819C28.7931 50.1421 28.3197 50.2568 27.6604 50.2568H25.5556C24.9132 50.2568 24.2792 50.1727 23.6199 49.9814C22.9606 49.7748 22.2083 49.3387 21.363 48.6731C20.5177 47.9769 19.5456 46.9058 18.396 45.4597C17.2464 44.0137 15.8771 42.0245 14.2626 39.5303C12.8932 37.3881 11.8028 35.6896 10.9744 34.4349C10.1714 33.1801 9.54586 32.2238 9.13167 31.5811C8.70057 30.9384 8.39627 30.4794 8.21031 30.2193C8.02434 29.9438 7.85528 29.7602 7.72004 29.6225L7.44109 44.5Z" fill="#21398F"/>
</svg>
