<svg width="25" height="25" viewBox="0 0 25 25" fill="none" xmlns="http://www.w3.org/2000/svg">
<g clip-path="url(#clip0_1070_567)">
<path d="M24.5 6.5V16.601C24.5 18.738 23.668 20.747 22.157 22.258L20.207 24.208C20.012 24.403 19.756 24.501 19.5 24.501C19.244 24.501 18.988 24.403 18.793 24.208C18.402 23.817 18.402 23.185 18.793 22.794L20.743 20.844C21.876 19.711 22.5 18.204 22.5 16.601V6.5C22.5 5.949 22.051 5.5 21.5 5.5C20.949 5.5 20.5 5.949 20.5 6.5C20.5 6.5 20.488 14.543 20.487 14.567C20.472 15.229 20.248 15.887 19.799 16.423L17.221 19.107C17.025 19.312 16.763 19.414 16.5 19.414C16.25 19.414 16.001 19.321 15.807 19.135C15.409 18.752 15.396 18.119 15.779 17.721L18.312 15.087C18.442 14.93 18.503 14.719 18.5 14.502C18.5 14.502 18.5 14.501 18.5 14.5V14.456C18.487 14.235 18.405 14.01 18.246 13.832C17.879 13.423 17.248 13.388 16.84 13.755L13.677 16.666C14.207 17.667 14.501 18.79 14.501 19.942V23.501C14.501 24.053 14.053 24.501 13.501 24.501C12.949 24.501 12.501 24.053 12.501 23.501V19.942C12.501 18.547 11.913 17.207 10.886 16.262L8.15202 13.746C7.75402 13.389 7.12202 13.422 6.75502 13.832C6.42702 14.199 6.41802 14.76 6.73402 15.137L9.30402 17.808C9.68702 18.206 9.67502 18.839 9.27602 19.222C8.88002 19.605 8.24502 19.594 7.86202 19.194L5.24602 16.473C4.78602 15.926 4.55302 15.273 4.52302 14.619C4.51802 14.579 4.49902 6.501 4.49902 6.501C4.49902 5.95 4.05002 5.501 3.49902 5.501C2.94802 5.501 2.49902 5.95 2.49902 6.501V16.602C2.49902 18.205 3.12302 19.711 4.25602 20.845L6.20602 22.795C6.59702 23.186 6.59702 23.818 6.20602 24.209C6.01102 24.404 5.75502 24.502 5.49902 24.502C5.24302 24.502 4.98702 24.404 4.79202 24.209L2.84202 22.259C1.33102 20.748 0.499023 18.739 0.499023 16.602V6.5C0.499023 4.846 1.84502 3.5 3.49902 3.5C5.15302 3.5 6.49902 4.846 6.49902 6.5V11.686C7.49802 11.334 8.65102 11.51 9.49502 12.265L12.239 14.79C12.326 14.87 12.403 14.958 12.486 15.042L15.494 12.274C16.345 11.512 17.5 11.335 18.499 11.687V6.501C18.499 4.847 19.845 3.501 21.499 3.501C23.153 3.501 24.499 4.847 24.499 6.501L24.5 6.5ZM7.50002 3.7C7.50002 1.935 8.84602 0.5 10.5 0.5C11.282 0.5 11.977 0.77 12.5 1.227C13.023 0.77 13.718 0.5 14.5 0.5C16.154 0.5 17.5 1.936 17.5 3.7C17.5 5.704 15.458 7.764 13.746 9.138C13.385 9.428 12.943 9.573 12.5 9.573C12.057 9.573 11.615 9.428 11.253 9.137C9.54102 7.763 7.50002 5.703 7.50002 3.699V3.7ZM9.50002 3.7C9.50002 4.604 10.652 6.091 12.506 7.579C14.348 6.091 15.5 4.604 15.5 3.7C15.5 3.038 15.051 2.5 14.5 2.5C14.039 2.5 13.5 2.762 13.5 3.5C13.5 4.052 13.052 4.5 12.5 4.5C11.948 4.5 11.5 4.052 11.5 3.5C11.5 2.762 10.961 2.5 10.5 2.5C9.94902 2.5 9.50002 3.039 9.50002 3.7Z" fill="white">
</g>
<defs>
<clipPath id="clip0_1070_567">
<rect width="24" height="24" fill="white" transform="translate(0.5 0.5)"/>
</clipPath>
</defs>
</svg>
