<svg width="324" height="193" viewBox="0 0 324 193" fill="none" xmlns="http://www.w3.org/2000/svg">
<g clip-path="url(#clip0_982_1631)">
<path d="M263.081 184.89C266.143 178.782 267.115 176.561 270.688 169.899C272.73 165.457 278.172 157.181 282.256 148.297C289.19 133.211 291.075 127.207 295.086 114.366C299.097 101.524 298.547 86.5032 285.428 77.2034C277.56 71.6223 265.844 68.6242 260.619 61.657C254.774 53.8593 259.336 44.3214 258.329 35.5163C256.478 19.3287 235.431 7.12238 213.437 2.61599C190.057 -2.17739 164.104 -0.321098 142.54 7.67194C131.892 11.6227 122.285 16.99 111.146 20.1836C95.522 24.6533 76.386 25.1357 65.3675 34.179C57.8611 40.3463 56.2084 49.0537 56.303 57.2055C56.3977 65.3512 62.0705 78.8521 59.5569 86.8085C55.5025 99.6437 39.672 105.261 30.9605 116.869C13.0812 140.69 44.4178 174.203 67.066 186C126.131 185.286 211.289 185.604 263.081 184.89Z" fill="#CADCE9"/>
<path d="M242.239 33.1016H144.426V117.752H242.239V33.1016Z" fill="#C67F4E"/>
<path d="M236.01 37.3262H150.656V113.574H236.01V37.3262Z" fill="#D9D9D9"/>
<path d="M194.992 33.5801H191.673V115.519H194.992V33.5801Z" fill="#C67F4E"/>
<path d="M146.687 74.9783V76.7559H240.735V74.9783H146.687Z" fill="#C67F4E"/>
<path d="M186.311 41.286L154.495 68.4043L155.564 68.8815L187.38 41.7631L186.311 41.286Z" fill="white"/>
<path d="M186.13 49.8972L170.99 62.5762L172.053 63.0588L187.192 50.3799L186.13 49.8972Z" fill="white"/>
<path d="M170.729 45.8828L158.475 55.5703L159.515 56.071L171.769 46.3834L170.729 45.8828Z" fill="white"/>
<path d="M229.223 81.095L197.415 108.217L198.484 108.694L230.292 81.5721L229.223 81.095Z" fill="white"/>
<path d="M229.068 89.7351L213.929 102.414L214.991 102.897L230.131 90.2178L229.068 89.7351Z" fill="white"/>
<path d="M213.672 85.7239L201.416 95.4102L202.456 95.9109L214.713 86.2247L213.672 85.7239Z" fill="white"/>
<path d="M227.524 44.3849L201.375 66.6816L202.444 67.1587L228.594 44.8619L227.524 44.3849Z" fill="white"/>
<path d="M227.384 51.4679L214.943 61.8867L216.006 62.3694L228.447 51.9506L227.384 51.4679Z" fill="white"/>
<path d="M214.719 48.1773L204.647 56.1367L205.688 56.6375L215.759 48.6781L214.719 48.1773Z" fill="white"/>
<path d="M181.615 83.9728L155.465 106.27L156.534 106.747L182.684 84.4498L181.615 83.9728Z" fill="white"/>
<path d="M181.465 91.0617L169.024 101.48L170.087 101.963L182.527 91.5443L181.465 91.0617Z" fill="white"/>
<path d="M168.818 87.775L158.746 95.7344L159.786 96.2352L169.858 88.2757L168.818 87.775Z" fill="white"/>
<path d="M176.118 82.4414C176.982 81.8729 177.923 81.3282 179.088 81.017C180.242 80.7118 181.659 80.6699 182.727 81.0888C184.328 81.7173 184.609 83.0818 184.463 84.2489C184.114 87.0378 182.28 89.6891 179.845 92.0412C177.399 94.3932 174.352 96.482 171.315 98.5527C170.568 99.0674 168.064 94.9977 168.006 94.6685C167.773 93.4357 168.462 92.4661 168.986 91.305C170.49 87.9834 172.247 85.0209 176.138 82.4414H176.118Z" fill="#79BC87"/>
<path d="M170.626 98.0377C173.334 93.3695 178.719 89.3117 185.599 86.7442C187.559 86.014 189.888 85.3796 192.091 85.7687C194.895 86.2594 196.399 88.3362 195.856 90.1077C195.312 91.8792 193.207 93.3216 190.829 94.3689C188.199 95.53 184.968 96.4457 183.629 98.2591C182.795 99.3962 182.765 100.821 181.281 101.671C180.242 102.263 178.748 102.419 177.487 102.82C176.225 103.221 175.119 104.154 175.808 104.92C172.402 103.161 169.132 100.611 170.626 98.0317V98.0377Z" fill="#ACE8B9"/>
<path d="M189.917 88.8027C190.713 88.4795 191.955 88.2222 192.469 88.7129C193.003 89.2217 192.042 89.8261 191.179 90.1134C188.753 90.9214 186.036 91.5318 184.25 92.8186C182.989 93.7283 182.319 94.8834 181.252 95.8888C179.767 97.2833 177.584 98.3307 175.74 99.5516C173.77 100.856 172.344 102.388 172.499 104.214C171.839 101.371 174.867 98.6119 177.37 96.3676C180.718 93.3752 184.988 90.7837 189.917 88.7907V88.8027Z" fill="#8DD39B"/>
<path d="M164.785 104.37C162.805 103.831 161.728 102.479 161.359 101.162C160.99 99.8455 161.185 98.493 160.903 97.1703C160.311 94.3574 157.691 91.8916 155.886 89.2822C154.081 86.6728 153.179 83.4649 155.828 81.1428C157.662 79.5328 161.107 78.689 164.231 79.072C167.356 79.455 170.005 81.053 170.704 82.9741C171.412 84.9432 170.219 87.0858 171.315 88.989C172.169 90.4612 174.314 91.5984 174.799 93.1365C175.4 95.0397 173.275 96.895 173.343 98.8281C173.382 99.9533 174.158 101.013 174.459 102.126C174.76 103.233 174.401 104.562 172.829 105.13C170.558 105.95 167.191 105.022 164.785 104.364V104.37Z" fill="#97DBA8"/>
<path d="M169.083 99.0861C169.53 97.0512 170.442 94.9385 169.336 93.0054C168.074 90.809 164.435 89.3067 163.572 87.0385C163.251 86.2006 163.348 85.3268 163.193 84.4769C163.067 83.8007 162.747 83.0944 162.048 82.5797C161.805 82.4002 161.33 82.49 161.252 82.7174C160.593 84.7942 161.087 87.0086 162.64 88.8998C164.047 90.6115 166.318 92.1077 166.929 93.9929C167.434 95.5669 166.706 97.1769 166.657 98.7808C166.589 100.905 167.958 104.095 170.995 105.334C171.102 104.443 169.879 103.67 169.423 102.851C168.763 101.666 168.821 100.325 169.093 99.098L169.083 99.0861Z" fill="#79BC87"/>
<path d="M182.863 102.521H158.924C158.584 107.902 163.028 113.6 163.028 113.6H178.758C178.758 113.6 183.202 107.902 182.863 102.521Z" fill="#BC7444"/>
<path d="M283.226 39.7696C271.864 39.6855 240.681 39.4273 240.654 38.6562C240.663 39.1102 240.9 56.2247 241.111 72.4096C241.304 87.0885 241.497 101.003 241.497 101.003L275.444 108.404L280.65 74.6387L285.417 42.6674C285.701 40.8444 285.555 39.7778 283.226 39.7624L283.226 39.7696Z" fill="#E4AEB4"/>
<path d="M283.874 40.4305C280.595 40.3499 277.407 41.0403 275.872 43.5041C274.491 45.7302 273.75 48.216 273.064 50.6225C271.6 55.7598 270.546 60.9693 269.585 66.1788C269.108 68.7224 268.668 71.2659 268.357 73.8239C268.246 74.7462 270.064 74.7398 270.183 73.8247C270.761 69.2131 271.695 64.616 272.629 60.0406C273.563 55.4652 274.205 50.9328 275.906 46.5883C276.419 45.277 276.977 43.5118 278.366 42.59C279.754 41.6682 282.056 41.2729 283.874 41.2376C284.522 41.2235 284.523 40.4524 283.874 40.4377L283.874 40.4305Z" fill="#F98293"/>
<path d="M215.143 143.825L274.085 143.85L268.402 113.733L276.777 114.263L282.441 163.938L277.756 163.936L274.083 147.814L211.121 147.787L215.143 143.825Z" fill="#C67F4E"/>
<path d="M241.611 113.453L241.922 163.917L248.726 163.919L254.674 108.443L241.611 113.453Z" fill="#C67F4E"/>
<path d="M215.821 117.409L248.312 117.422L278.117 116.909L278.12 111.504L226.213 105.788L214.152 112.385L215.821 117.409Z" fill="#FF9797"/>
<path d="M240.651 38.6551C240.651 38.6436 240.651 38.6436 240.651 38.6551Z" stroke="#8E6342" stroke-miterlimit="10"/>
<path d="M217.934 111.478L278.312 111.503C278.312 111.503 277.431 101.695 260.561 99.821C243.691 97.9473 221.785 102.839 221.785 102.839L217.934 111.478Z" fill="#E4AEB4"/>
<path d="M209.151 69.2319C209.151 69.2319 209.968 78.9245 211.803 81.9158C213.646 84.9072 216.913 89.9961 223.575 84.1836C230.237 78.371 230.643 70.6174 230.643 70.6174L221.941 64.7984L209.142 69.2319L209.151 69.2319Z" fill="#7998D8"/>
<path d="M222.254 77.7717C221.981 75.1341 220.923 72.3738 218.887 70.2327C218.549 69.8795 217.8 70.189 218.111 70.5927C218.969 71.6956 219.781 72.7984 220.356 74.0165C220.921 75.2274 221.332 76.4886 221.514 77.7713C221.568 78.1389 222.299 78.1536 222.263 77.7717L222.254 77.7717Z" fill="#517DBC"/>
<path d="M246.135 160.985C246.135 160.985 246.691 162.851 247.585 164.091C248.48 165.331 249.109 166.412 248.898 168.077C248.898 168.077 234.648 171.04 230.117 170.476C230.117 170.476 229.342 169.049 230.895 168.278C232.448 167.508 236.477 165.874 236.477 165.874L238.16 162.286L246.135 160.978L246.135 160.985Z" fill="#819EA5"/>
<path d="M216.386 158.315C216.386 158.315 216.942 160.182 217.836 161.421C218.731 162.661 219.36 163.742 219.149 165.407C219.149 165.407 204.898 168.37 200.368 167.806C200.368 167.806 199.593 166.379 201.146 165.608C202.699 164.838 206.728 163.204 206.728 163.204L208.411 159.616L216.386 158.308L216.386 158.315Z" fill="#819EA5"/>
<path d="M234.498 90.2378C225.253 93.3685 216.556 95.7356 207.465 100.776C205.629 101.791 203.546 102.547 202.002 103.829C200.457 105.111 199.698 106.84 199.597 108.613C198.592 126.743 200.856 144.37 206.602 161.544C209.049 162.453 214.885 163.148 217.809 162.025C220.922 146.598 222.731 128.641 220.822 113.097C226.997 111.521 232.196 108.591 237.458 105.588C240.912 103.615 241.846 99.5367 244.076 96.6697C244.944 95.5531 245.804 94.3068 245.594 93.0096C245.33 91.3593 243.358 90.1407 241.303 89.7939C239.248 89.4472 236.435 89.5757 234.498 90.2306L234.498 90.2378Z" fill="#39517C"/>
<path d="M235.101 162.519C235.174 162.764 235.786 162.62 235.786 162.375C235.768 162.361 235.75 162.354 235.731 162.347C235.594 162.116 235.028 162.267 235.101 162.519Z" fill="#446491"/>
<path d="M270.303 90.4862L242.217 93.3285C235.921 98.082 229.315 103.268 227.603 110.005C226.276 115.236 228.127 120.605 229.603 125.816C232.994 137.823 234.393 150.11 235.784 162.361L235.784 162.375C239.454 164.524 244.733 164.807 248.725 163.065C250.059 146.671 250.598 130.443 250.05 114.02C255.86 112.841 262.263 111.554 266.147 107.945C268.513 105.748 269.766 102.902 270.279 100.049C270.802 97.1881 270.457 93.3687 270.294 90.4862L270.303 90.4862Z" fill="#446491"/>
<path d="M269.27 88.1698C268.652 82.9523 269.851 77.7572 270 72.5184C270.14 67.2797 269.522 61.8316 266.263 57.2687C264.684 55.0558 263.854 52.627 262.001 50.558C258.989 47.2059 253.756 45.2941 248.66 44.4272L235.259 46.4248C232.61 47.3821 229.933 48.3466 227.594 49.7147C225.255 51.0829 223.235 52.9052 222.357 55.0955C227.302 65.6545 231.554 73.8641 233.885 87.6C233.255 88.2482 232.752 89.1344 232.952 89.9343C233.153 90.7343 233.801 91.4552 234.696 91.8663C243.718 96.0065 255.282 95.6727 265.44 93.7674C266.618 93.5445 267.797 93.2783 268.811 92.7671C269.825 92.2487 270.666 91.4492 270.84 90.5053C271.014 89.5613 270.403 88.509 269.27 88.1698Z" fill="#7998D8"/>
<path d="M224.504 34.0587C222.147 34.382 219.599 33.4369 218.404 31.8005C217.208 30.1642 217.447 27.9519 218.982 26.5041C219.448 26.0575 220.069 25.6686 220.8 25.6041C221.668 25.5252 222.517 25.9075 223.394 25.8646C225.522 25.7646 226.464 23.3653 228.575 23.1068C230.137 22.9129 231.607 24.016 233.178 23.851C234.219 23.7433 235.033 23.1023 236.001 22.7856C237.49 22.3034 239.353 22.6789 240.357 23.6738C240.933 24.2434 241.252 24.9858 242.01 25.4112C243.142 26.0531 244.905 25.7368 245.891 26.5155C246.64 27.0995 246.603 28.0939 246.182 28.8576C245.762 29.6213 245.04 30.2552 244.491 30.9684C243.952 31.6816 243.595 32.575 244.015 33.3463C243.293 34.1026 241.904 34.6858 240.726 34.8798C239.548 35.0739 238.333 35.0518 237.136 35.0225C232.998 34.927 228.596 33.5055 224.513 34.0587L224.504 34.0587Z" fill="#8E6342"/>
<path d="M155.873 172.988L187.767 161.629L189.859 161.01L191.163 164.311L158.073 175.67L155.873 172.988Z" fill="#C67F4E"/>
<path d="M76.1207 155.116L72.7297 158.964C72.7297 158.964 90.4159 171.073 124.184 173.206C157.943 175.338 179.622 169.595 187.873 164.755L185.682 162.065C185.682 162.065 158.649 170.228 134.38 168.777C111.244 167.398 93.0406 165.524 76.1207 155.109L76.1207 155.116Z" fill="#C67F4E"/>
<path d="M77.7182 135.769L55.2567 171.87L61.8589 174.128L81.9008 136.635L77.7182 135.769Z" fill="#C67F4E"/>
<path d="M120.687 140.484L133.788 179.345L126.755 180.545L116.367 140.691L120.687 140.484Z" fill="#C67F4E"/>
<path d="M158.436 128.304L175.11 166.302L168.213 167.906L154.152 128.757L158.436 128.304Z" fill="#C67F4E"/>
<path d="M101.858 124.977L87.0588 163.459L94.0265 164.845L106.159 125.303L101.858 124.977Z" fill="#C67F4E"/>
<path d="M39.0803 53.3581C37.1792 56.0236 37.2321 59.2807 37.7601 62.3147C38.288 65.3487 39.2361 68.3756 38.9512 71.4237C38.7399 73.6863 37.8436 75.9775 38.4725 78.19C38.9099 79.7178 40.0599 81.1379 40.0407 82.7088C40.0213 84.6761 38.1755 86.3976 38.0282 88.3648C37.8627 90.4257 39.5694 92.2855 40.0066 94.3178C40.5349 96.7753 39.2002 99.196 38.322 101.588C37.4439 103.98 37.15 106.855 39.2952 108.679C45.9433 109.539 52.9026 109.369 59.2782 107.628C54.631 89.3299 47.6186 70.7786 39.0894 53.3725L39.0803 53.3581Z" fill="#FCFCFC"/>
<path d="M41.2596 110.863C41.0864 110.344 40.9679 109.811 40.9226 109.278C40.9045 109.018 40.9046 108.759 40.9139 108.499C40.914 108.225 40.9781 107.937 40.9418 107.663C40.9236 107.562 40.8597 107.469 40.7227 107.44C40.604 107.418 40.4396 107.454 40.3939 107.548C40.1014 108.067 40.1375 108.73 40.2011 109.284C40.2738 109.875 40.4288 110.437 40.7024 110.992C40.8301 111.259 41.3507 111.158 41.2596 110.87L41.2596 110.863Z" fill="#FCFCFC"/>
<path d="M42.6926 110.654C42.4919 110.272 42.3551 109.876 42.2914 109.472C42.2186 109.054 42.2553 108.644 42.283 108.226C42.3014 107.945 41.7169 107.872 41.6529 108.161C41.5521 108.615 41.5975 109.09 41.6977 109.537C41.7979 109.984 41.9712 110.409 42.2084 110.82C42.3362 111.036 42.8112 110.878 42.7017 110.654L42.6926 110.654Z" fill="#FCFCFC"/>
<path d="M44.2091 110.815C44.0723 110.419 43.9995 110.023 43.9723 109.619C43.9542 109.425 43.9452 109.223 43.9453 109.028C43.9454 108.805 43.9729 108.596 43.9183 108.372C43.8909 108.272 43.754 108.199 43.6352 108.199C43.4983 108.199 43.3978 108.271 43.352 108.372C43.2423 108.581 43.2422 108.805 43.2512 109.028C43.2511 109.251 43.2692 109.475 43.3148 109.691C43.3876 110.109 43.5243 110.527 43.7067 110.923C43.8162 111.168 44.3003 111.075 44.2091 110.815Z" fill="#FCFCFC"/>
<path d="M45.6976 110.542C45.4148 109.857 45.3604 109.144 45.37 108.43C45.3701 108.3 45.2423 108.192 45.087 108.178C44.9409 108.163 44.7491 108.235 44.7216 108.365C44.685 108.56 44.6392 108.761 44.6482 108.956C44.6481 109.165 44.6754 109.367 44.7209 109.568C44.7938 109.943 44.9214 110.318 45.0856 110.671C45.1494 110.794 45.2955 110.88 45.4782 110.844C45.6335 110.808 45.7523 110.664 45.6976 110.534L45.6976 110.542Z" fill="#FCFCFC"/>
<path d="M47.5055 110.655C47.2319 110.006 47.1501 109.321 47.1323 108.637C47.1323 108.5 46.9863 108.377 46.8036 108.377C46.6118 108.377 46.493 108.492 46.4747 108.636C46.3829 109.371 46.6017 110.092 46.9575 110.77C47.0122 110.878 47.1492 110.964 47.3045 110.928C47.4415 110.899 47.5511 110.77 47.5055 110.655Z" fill="#FCFCFC"/>
<path d="M49.2781 110.514C49.2418 110.096 49.1964 109.685 49.1601 109.267C49.1238 108.842 49.0966 108.417 48.9873 107.999C48.9508 107.869 48.7682 107.783 48.613 107.804C48.4394 107.826 48.3207 107.934 48.3114 108.071C48.2838 108.481 48.3384 108.885 48.3747 109.289C48.411 109.692 48.4473 110.103 48.4927 110.506C48.5109 110.672 48.666 110.816 48.8852 110.816C49.0861 110.817 49.2963 110.673 49.2781 110.507L49.2781 110.514Z" fill="#FCFCFC"/>
<path d="M51.5072 110.284C51.2516 109.989 51.0874 109.686 50.9506 109.347C50.8138 108.987 50.8048 108.699 50.7594 108.331C50.7412 108.187 50.6317 108.065 50.4399 108.043C50.2755 108.028 50.0654 108.108 50.0379 108.252C49.9463 108.67 50.0465 109.109 50.2107 109.506C50.3749 109.909 50.6487 110.27 50.9864 110.594C51.2237 110.825 51.7171 110.522 51.5072 110.277L51.5072 110.284Z" fill="#FCFCFC"/>
<path d="M52.8588 110.067C52.7403 109.736 52.64 109.404 52.5763 109.066C52.5398 108.886 52.5216 108.756 52.4852 108.568C52.4579 108.41 52.4398 108.223 52.3576 108.064C52.3029 107.956 52.1934 107.869 52.0381 107.869C51.892 107.869 51.7549 107.948 51.7183 108.064C51.6543 108.251 51.6725 108.446 51.6906 108.633C51.7088 108.82 51.7543 109.008 51.7908 109.195C51.8727 109.548 51.9821 109.894 52.1098 110.233C52.1737 110.391 52.3837 110.492 52.5846 110.449C52.7856 110.406 52.9135 110.233 52.8588 110.075L52.8588 110.067Z" fill="#FCFCFC"/>
<path d="M46.8511 40.1483C46.8511 40.1483 38.2727 42.8758 37.7672 48.8063C37.2616 54.7367 41.7677 66.391 41.7677 66.391L53.2618 111.233C53.2618 111.233 56.2571 129.602 60.2645 134.346C64.2718 139.089 78.0366 139.686 78.0366 139.686C78.0366 139.686 116.59 142.073 119.093 142.074C121.596 142.075 154.647 134.191 154.647 134.191L161.675 110.882L163.529 94.3304L128.139 85.1924L108.625 57.9233C108.625 57.9233 105.873 46.068 102.878 43.5013C102.878 43.5013 100.624 39.9477 99.126 39.5508C97.6282 39.1538 68.7204 36.0429 46.8602 40.1555L46.8511 40.1483Z" fill="#E4AEB4"/>
<path d="M82.0339 37.3952C80.9656 36.6813 79.3579 36.796 78.0332 37.1557C76.7086 37.5155 75.4387 38.0842 74.0411 38.1629C71.7027 38.2844 69.6117 37.0152 67.2917 36.762C64.4055 36.4437 61.6463 37.7181 58.7598 38.0195C56.6406 38.242 54.4942 37.9384 52.3659 38.0168C50.2376 38.0951 47.9264 38.6851 46.8478 40.1403C48.6753 38.8439 51.5795 39.7099 53.5336 40.8781C55.4876 42.0536 56.6284 43.87 57.6048 45.6503C58.9554 48.1226 60.1414 50.6453 61.1539 53.2183C63.9178 60.2743 65.3388 67.6108 67.8286 74.7315C73.2937 69.3941 79.9457 64.8714 86.5521 60.3992C88.4984 59.0813 90.5451 57.7562 91.7153 55.9552C93.6533 52.9799 92.7875 49.3404 91.1907 46.2338C89.3657 42.6876 85.7319 39.8613 82.043 37.388L82.0339 37.3952Z" fill="#FCFCFC"/>
<path d="M150.523 166.657C150.523 166.657 150.705 168.567 150.339 169.965C149.973 171.363 149.78 172.537 150.62 174.08C150.62 174.08 165.345 173.495 169.438 171.883C169.438 171.883 169.621 170.341 167.858 169.972C166.096 169.604 161.62 169.011 161.62 169.011L158.644 165.998L150.542 166.657L150.523 166.657Z" fill="#ACD3DD"/>
<path d="M168.659 158.903C168.659 158.903 168.977 160.806 168.703 162.211C168.428 163.616 168.317 164.805 169.267 166.312C169.267 166.312 183.928 165.1 187.911 163.308C187.911 163.308 187.994 161.758 186.195 161.469C184.405 161.18 179.893 160.782 179.893 160.782L176.706 157.898L168.659 158.903Z" fill="#ACD3DD"/>
<path d="M129.861 98.8625C129.861 98.8625 159.216 101.469 169.206 105.768C169.206 105.768 175.024 106.866 176.034 114.858C177.043 122.85 177.107 158.427 177.107 158.427C177.107 158.427 175.113 162.605 166.903 159.885C166.903 159.885 161.483 132.802 159.632 126.107L117.891 106.431L129.861 98.8625Z" fill="#39517C"/>
<path d="M117.899 106.43C117.899 106.43 144.531 111.983 151.426 114.285C158.32 116.587 161.36 121.402 161.76 124.637C162.16 127.88 161.071 166.562 161.071 166.562C161.071 166.562 154.712 169.694 148.082 166.665C148.082 166.665 147.557 156.943 145.832 154.118C144.108 151.292 142.261 137.91 142.664 134.458C143.068 131.007 142.804 129.861 142.804 129.861L109.943 123.679L106.772 109.142L117.908 106.43L117.899 106.43Z" fill="#446491"/>
<path d="M144.469 90.7193C148.223 91.4343 152.022 92.0124 155.84 92.432C155.209 93.5198 155.674 94.8748 156.13 96.0136C156.513 96.9721 156.897 97.9379 157.28 98.8965C157.307 98.9758 157.344 99.0551 157.435 99.0984C157.654 99.2138 157.901 98.9833 158.001 98.7887C158.34 98.0827 158.514 97.3261 158.514 96.5767C158.916 96.829 159.043 97.2182 159.007 97.6218C158.97 98.0253 158.796 98.4144 158.677 98.8106C158.613 99.0196 158.567 99.243 158.622 99.4592C158.677 99.6754 158.869 99.8772 159.133 99.9278C159.398 99.9856 159.727 99.8416 159.755 99.6254C159.901 99.8344 160.339 99.9355 160.631 99.8564C160.924 99.7772 161.125 99.5323 161.079 99.2945C161.618 99.3091 162.175 99.1004 162.45 98.733C162.724 98.3656 162.797 97.926 162.797 97.5009C163.657 96.5932 163.986 95.3972 163.53 94.3305C163.083 93.2998 161.987 92.4562 161.138 91.5983C160.298 90.7404 159.038 89.9832 157.732 89.7737L144.655 84.9616L143.055 87.9803L144.478 90.7265L144.469 90.7193Z" fill="#F7C894"/>
<path d="M83.526 104.874C88.869 105.777 94.157 106.911 99.3445 108.26C100.175 110.199 102.165 111.908 104.649 112.485C105.617 113.826 106.73 115.282 107.698 116.623C107.743 116.688 107.789 116.746 107.862 116.789C108.036 116.876 108.282 116.775 108.374 116.623C108.465 116.472 108.429 116.299 108.401 116.141C108.493 116.328 108.849 116.4 109.096 116.321C109.333 116.249 109.47 116.004 109.379 115.817C109.735 115.896 110.082 115.752 110.219 115.486C110.357 115.212 110.311 114.909 110.275 114.621C110.466 114.751 110.923 114.578 111.033 114.398C111.143 114.218 111.097 114.002 111.052 113.807C110.733 112.402 110.733 111.4 109.939 110.117C106.763 104.956 98.4981 102.582 92.1056 99.8404C91.3933 99.5375 90.6445 99.2273 89.8316 99.1909C88.361 99.1182 87.0818 99.9176 85.9579 100.667C85.1264 101.228 84.2766 101.797 83.6825 102.525C83.0884 103.252 83.1793 104.052 83.526 104.874Z" fill="#F7C894"/>
<path d="M147.064 85.0866C146.169 85.079 145.338 84.74 144.543 84.4154C138.991 82.1431 132.826 81.2397 126.898 79.7094C125.885 79.4496 125.09 78.8439 124.707 78.0583C121.705 71.9173 117.909 65.9922 113.765 60.2831C112.168 58.0773 108.844 55.6762 105.766 54.9255C102.798 54.1964 98.1485 54.3674 95.289 55.3318L81.0939 56.4355C77.2391 56.7942 73.8402 58.7313 71.4822 61.1588C69.1243 63.5935 67.6887 66.4897 66.454 69.3933C62.8324 77.9023 60.7085 86.7651 58.9135 95.628C58.6662 96.8457 58.428 98.0923 58.6557 99.3103C58.9017 100.607 60.3897 102.121 61.8966 102.67C68.7915 105.188 76.0336 107.67 83.606 107.356C84.2379 104.265 86.1575 101.628 88.8168 99.3086C96.4332 102.115 103.538 105.93 110.011 110.163C118.288 108.098 125.78 103.922 131.273 98.6204C130.542 98.2454 130.004 97.6542 129.273 97.2792C128.452 94.8071 127.093 92.2411 125.24 90.1505C131.158 91.0538 137.15 91.323 143.106 90.6193C143.544 90.5691 144.101 90.7855 144.531 90.8577C144.312 88.8471 145.428 86.6641 147.055 85.1082L147.064 85.0866Z" fill="#F49E40"/>
<path d="M73.0275 93.576C78.178 95.7545 83.3834 97.8754 88.7168 99.7441C89.7762 100.112 90.7268 98.909 89.6492 98.4906C84.3433 96.4345 78.8728 94.6234 73.3932 92.8843C72.8909 92.7256 72.5526 93.374 73.0275 93.576Z" fill="#E08932"/>
<path d="M81.9986 71.0053C80.5901 74.6365 79.7934 78.4265 78.4853 82.0866C77.1773 85.7467 75.513 89.4355 73.593 92.9801C73.0536 93.9815 74.9073 94.8542 75.465 93.8456C77.458 90.2218 79.1406 86.5042 80.4762 82.7C81.8117 78.8958 83.0468 74.9834 82.9941 71.121C82.9943 70.667 82.1632 70.5802 81.9986 71.0125L81.9986 71.0053Z" fill="#E08932"/>
<path d="M73.0104 89.6146C73.2843 89.8525 73.5034 90.1192 73.6767 90.4076C73.7406 90.5229 73.8136 90.6742 73.8592 90.8184C73.8866 90.9049 73.9139 90.9913 73.9321 91.0778C73.9413 91.1139 73.9504 91.1571 73.9595 91.1931L73.9594 91.2508C73.9595 91.2075 73.9595 91.2075 73.9686 91.2508C73.9868 91.4165 73.9958 91.5823 73.9957 91.7552C73.9957 91.8345 73.9956 91.9138 73.9773 91.993C73.9773 92.0362 73.9681 92.0723 73.959 92.1155C73.9773 91.993 73.959 92.1299 73.9498 92.1515C73.9498 92.1876 73.9315 92.2308 73.9224 92.2668C73.9224 92.2812 73.8858 92.4037 73.9132 92.3245C73.9498 92.1948 73.8309 92.4685 73.8126 92.519C73.7943 92.555 73.7852 92.5982 73.776 92.6343C73.7486 92.7135 73.7211 92.7856 73.6846 92.8648C73.6846 92.8648 73.6023 93.0377 73.648 92.9441C73.6937 92.8504 73.6023 93.0233 73.6023 93.0233C73.3737 93.4124 73.5014 93.8664 74.0402 94.0468C74.579 94.2271 75.0723 93.9823 75.2735 93.5789C76.0415 92.0443 75.3119 90.0912 73.778 89.0024C73.2575 88.6347 72.5357 89.1965 73.0104 89.6074L73.0104 89.6146Z" fill="#E08932"/>
<path d="M84.1533 72.2079C83.6231 73.1013 83.038 73.9657 82.3891 74.8014C82.06 75.2192 81.7401 75.6442 81.3928 76.0548C81.2191 76.2637 81.0455 76.4654 80.8627 76.6671C80.6616 76.8904 80.4423 77.0921 80.3325 77.3587C80.1313 77.8414 80.944 78.411 81.5105 78.0726C82.0769 77.7341 82.3969 77.1938 82.7443 76.74C83.0916 76.2861 83.4024 75.8683 83.6949 75.4145C84.2891 74.4995 84.8102 73.5485 85.2675 72.5831C85.5143 72.0716 84.4367 71.7108 84.1442 72.2079L84.1533 72.2079Z" fill="#E08932"/>
<path d="M81.04 106.126C81.2957 106.205 81.5515 106.278 81.8163 106.357C81.9442 106.393 82.072 106.429 82.1908 106.472C82.3095 106.516 82.4465 106.552 82.5926 106.573C82.757 106.595 82.9488 106.595 83.095 106.523C83.2138 106.458 83.3052 106.379 83.36 106.278C83.4149 106.177 83.4332 106.055 83.3967 105.947C83.3511 105.824 83.2507 105.695 83.0955 105.637C82.9859 105.601 82.8763 105.557 82.7576 105.536C82.6936 105.521 82.6297 105.514 82.5658 105.5C82.4288 105.471 82.2918 105.442 82.1639 105.42C81.8899 105.362 81.6251 105.312 81.3511 105.254C81.0588 105.196 80.7116 105.326 80.6384 105.571C80.6018 105.686 80.6109 105.816 80.693 105.924C80.7752 106.032 80.8939 106.09 81.04 106.133L81.04 106.126Z" fill="#E08932"/>
<path d="M81.8274 105.339C82.074 105.418 82.3205 105.505 82.5671 105.584C82.6858 105.628 82.8137 105.664 82.9324 105.707C82.9964 105.729 83.0512 105.75 83.1151 105.765C83.3343 105.837 83.6083 105.815 83.8184 105.715C83.9555 105.65 84.056 105.556 84.12 105.434C84.184 105.311 84.2115 105.174 84.1568 105.052C84.0564 104.814 83.8647 104.662 83.5541 104.59C83.4902 104.576 83.4171 104.561 83.3532 104.54C83.2254 104.511 83.1066 104.482 82.9788 104.453C82.723 104.395 82.4582 104.33 82.2025 104.273C82.0289 104.229 81.8188 104.258 81.6635 104.33C81.5173 104.395 81.3802 104.532 81.3436 104.661C81.307 104.806 81.3161 104.964 81.4165 105.087L81.526 105.195C81.6173 105.26 81.7178 105.31 81.8365 105.339L81.8274 105.339Z" fill="#E08932"/>
<path d="M82.3486 104.016C82.6135 104.081 82.8692 104.153 83.1341 104.218C83.2619 104.254 83.3807 104.283 83.5085 104.319C83.5724 104.333 83.6455 104.348 83.7186 104.355C83.8008 104.369 83.9013 104.384 83.9652 104.384C84.0657 104.384 84.1387 104.369 84.2301 104.348C84.4494 104.298 84.623 104.161 84.687 103.988C84.751 103.815 84.6872 103.62 84.5229 103.483C84.4589 103.433 84.4042 103.382 84.322 103.353C84.2489 103.325 84.1759 103.303 84.0937 103.281C84.0297 103.26 83.9567 103.245 83.8927 103.231C83.7649 103.209 83.637 103.187 83.5 103.166C83.2351 103.122 82.9611 103.079 82.6963 103.036C82.5227 103.007 82.3492 103.014 82.1938 103.086C82.0568 103.151 81.9289 103.273 81.8923 103.388C81.8099 103.669 82.0016 103.929 82.3486 104.016Z" fill="#E08932"/>
<path d="M82.8865 102.864C83.0783 102.943 83.2792 103.023 83.471 103.102C83.5623 103.138 83.6627 103.181 83.7541 103.217C83.9093 103.282 84.0646 103.347 84.2381 103.376L84.4482 103.398C84.5578 103.398 84.6583 103.384 84.7588 103.348C84.8227 103.333 84.8867 103.304 84.9323 103.268C85.0146 103.225 85.0877 103.168 85.1334 103.096C85.1334 103.088 85.2157 102.951 85.2157 102.944L85.2432 102.779C85.2432 102.692 85.225 102.613 85.1794 102.533C85.1611 102.483 85.1246 102.433 85.079 102.397C85.0242 102.332 84.9511 102.274 84.8598 102.238C84.7137 102.159 84.5493 102.122 84.3849 102.079C84.2845 102.05 84.184 102.029 84.0744 102C83.8643 101.949 83.6543 101.891 83.4442 101.841C83.3529 101.819 83.2524 101.812 83.1611 101.834C83.0697 101.834 82.9784 101.862 82.8962 101.898C82.7591 101.963 82.6677 102.05 82.6037 102.165C82.5397 102.28 82.5214 102.41 82.567 102.532C82.6217 102.669 82.7313 102.799 82.8956 102.871L82.8865 102.864Z" fill="#E08932"/>
<path d="M83.7193 101.394C83.9293 101.488 84.1393 101.582 84.3585 101.669C84.4681 101.712 84.5686 101.762 84.6781 101.806C84.8791 101.892 85.0891 101.986 85.3357 101.979C85.628 101.972 85.8838 101.842 85.9936 101.633C86.0484 101.54 86.0576 101.446 86.0394 101.338C86.0394 101.287 86.0212 101.237 85.9938 101.194C85.9664 101.122 85.9117 101.064 85.8477 101.013C85.7473 100.912 85.5738 100.848 85.4185 100.804C85.3637 100.79 85.309 100.768 85.245 100.754C85.1354 100.718 85.0167 100.689 84.9071 100.653C84.6788 100.588 84.4596 100.516 84.2313 100.451C84.0852 100.407 83.8568 100.436 83.7289 100.501C83.601 100.566 83.5187 100.645 83.4639 100.746C83.345 100.976 83.4453 101.265 83.7284 101.394L83.7193 101.394Z" fill="#E08932"/>
<path d="M85.117 100.109C85.181 100.13 85.254 100.152 85.318 100.174L85.1718 100.123C85.391 100.195 85.5737 100.289 85.7746 100.383C85.875 100.426 85.9663 100.477 86.0576 100.527C86.1581 100.585 86.2585 100.628 86.359 100.678C86.496 100.751 86.7243 100.772 86.8796 100.729C87.0166 100.693 87.1354 100.636 87.2268 100.542C87.3182 100.448 87.3731 100.34 87.3731 100.225C87.3732 100.081 87.3002 99.9582 87.1724 99.8501C86.6885 99.4247 85.967 99.2587 85.2728 99.1935C85.1358 99.179 84.944 99.251 84.8526 99.3302C84.7612 99.4095 84.7063 99.4959 84.688 99.5968C84.6697 99.6977 84.6879 99.8058 84.7609 99.8923C84.8522 100 84.9618 100.065 85.117 100.109Z" fill="#E08932"/>
<path d="M85.5932 98.142C83.8665 98.8547 82.3131 99.8917 81.2346 101.167C80.1561 102.442 79.2876 104.012 79.2685 105.526C79.2681 106.268 80.7203 106.456 80.9399 105.706C81.1412 105.022 81.2877 104.337 81.5804 103.667C81.8547 103.048 82.2387 102.457 82.6865 101.895C83.6188 100.743 84.7611 99.7343 86.223 98.9926C86.8991 98.647 86.3058 97.8397 85.5932 98.1348L85.5932 98.142Z" fill="#E08932"/>
<path d="M143.173 83.9514C142.251 84.6932 141.547 85.5649 141.19 86.5736C141.016 87.0707 140.906 87.5823 140.86 88.0939C140.842 88.3245 140.833 88.5551 140.842 88.7857C140.851 89.1027 140.841 89.4775 141.07 89.737C141.526 90.2488 142.357 90.1266 142.65 89.5719C142.769 89.3414 142.696 89.0675 142.696 88.8225C142.696 88.6063 142.696 88.3901 142.724 88.174C142.724 88.1163 142.733 88.0659 142.742 88.0154C142.742 87.9938 142.76 87.8929 142.742 87.9722C142.76 87.8641 142.788 87.756 142.815 87.6552C142.87 87.4318 142.943 87.2084 143.026 86.9851C143.19 86.56 143.337 86.2286 143.565 85.8756C143.821 85.4721 144.068 85.0759 144.397 84.7086C144.909 84.1323 143.786 83.4761 143.173 83.9658L143.173 83.9514Z" fill="#E08932"/>
<path d="M142.131 89.6879C142.295 89.724 142.45 89.7529 142.615 89.789C142.697 89.8034 142.779 89.8251 142.852 89.8395C142.953 89.8612 143.035 89.8756 143.135 89.8757C143.181 89.8757 143.227 89.8757 143.272 89.8757C143.455 89.8758 143.656 89.8183 143.775 89.7102L143.884 89.595C143.939 89.5301 143.967 89.4581 143.967 89.386C143.985 89.3356 143.985 89.2851 143.967 89.2347C143.967 89.1626 143.93 89.0905 143.885 89.0257C143.784 88.9031 143.638 88.8094 143.456 88.766C143.319 88.73 143.181 88.7155 143.035 88.7154C142.953 88.7154 142.871 88.7154 142.789 88.7153C142.624 88.7153 142.46 88.7152 142.295 88.7151C142.14 88.715 141.957 88.7654 141.848 88.859L141.747 88.9599C141.702 89.0175 141.674 89.0752 141.674 89.1472C141.656 89.1905 141.656 89.2337 141.674 89.2769C141.674 89.3418 141.701 89.4067 141.747 89.4643C141.838 89.5725 141.957 89.659 142.121 89.6951L142.131 89.6879Z" fill="#E08932"/>
<path d="M142.213 88.6568C142.441 88.7146 142.67 88.7723 142.898 88.8373C143.008 88.8662 143.126 88.895 143.236 88.9239C143.291 88.9383 143.336 88.9528 143.391 88.9672C143.51 88.9961 143.629 88.9961 143.756 88.9962C143.93 88.9963 144.158 88.9315 144.277 88.8234C144.387 88.7298 144.46 88.6218 144.478 88.4921C144.497 88.3623 144.478 88.2326 144.387 88.1245C144.278 87.9947 144.141 87.9082 143.949 87.8577C143.83 87.8216 143.73 87.8071 143.593 87.7999C143.538 87.7998 143.483 87.7998 143.428 87.7998C143.31 87.7997 143.191 87.7925 143.072 87.7852C142.835 87.7779 142.597 87.7634 142.36 87.7561C142.223 87.756 142.04 87.8136 141.948 87.8929C141.857 87.9721 141.802 88.0513 141.784 88.1594C141.747 88.39 141.921 88.5918 142.204 88.664L142.213 88.6568Z" fill="#E08932"/>
<path d="M142.35 87.5391C142.698 87.5825 143.036 87.6403 143.373 87.7125C143.538 87.7486 143.693 87.7847 143.857 87.8208C144.077 87.8641 144.287 87.9219 144.515 87.9364C144.643 87.9508 144.789 87.8932 144.89 87.8284C144.99 87.7636 145.082 87.6772 145.109 87.5763C145.164 87.3745 145.073 87.1223 144.826 87.0213C144.634 86.9419 144.406 86.8986 144.196 86.8625C143.986 86.8264 143.767 86.8046 143.557 86.7829C143.21 86.7468 142.853 86.7322 142.497 86.7248C142.232 86.7247 142.013 86.8832 141.976 87.0849C141.949 87.2723 142.095 87.5102 142.35 87.5391Z" fill="#E08932"/>
<path d="M142.843 86.7347C143.117 86.8285 143.382 86.9223 143.656 87.0233C143.839 87.0882 144.021 87.1387 144.213 87.1893C144.286 87.2109 144.359 87.2325 144.432 87.247C144.606 87.2831 144.77 87.2543 144.935 87.2328C145.145 87.2041 145.319 87.0456 145.364 86.8943C145.419 86.7286 145.365 86.5412 145.209 86.4186C145.091 86.3249 144.963 86.2455 144.798 86.2022C144.725 86.1878 144.652 86.1733 144.579 86.1589C144.433 86.13 144.296 86.1011 144.15 86.0794C143.858 86.0433 143.556 86.0071 143.264 85.971C143.118 85.9565 142.972 85.9492 142.844 86.014C142.743 86.0644 142.67 86.1293 142.624 86.2157C142.533 86.3958 142.597 86.6625 142.843 86.7491L142.843 86.7347Z" fill="#E08932"/>
<path d="M143.338 85.646C143.576 85.7975 143.813 85.9417 144.069 86.0715C144.178 86.1292 144.288 86.1725 144.407 86.2158C144.471 86.2374 144.534 86.2591 144.598 86.2807C144.717 86.324 144.818 86.3601 144.945 86.3601C145.055 86.3602 145.192 86.3386 145.283 86.281C145.384 86.2234 145.457 86.1658 145.512 86.0721C145.567 85.9785 145.567 85.8848 145.539 85.7839C145.521 85.6974 145.457 85.6181 145.384 85.5532C145.293 85.4811 145.183 85.445 145.065 85.409C145.001 85.3873 144.937 85.3657 144.873 85.3512L145.019 85.4017C144.864 85.3512 144.699 85.2935 144.544 85.243C144.425 85.2069 144.307 85.1708 144.188 85.1347L144.316 85.178C144.188 85.1347 144.06 85.0914 143.941 85.041C143.823 84.9977 143.686 84.9688 143.558 85.0048C143.457 85.0335 143.366 85.0767 143.302 85.1416C143.238 85.2064 143.192 85.2929 143.192 85.3793C143.192 85.473 143.238 85.5883 143.338 85.6532L143.338 85.646Z" fill="#E08932"/>
<path d="M144.17 85.3131C144.343 85.4429 144.535 85.5655 144.745 85.6593C144.827 85.6953 144.918 85.7314 145.001 85.7603C145.064 85.7819 145.128 85.8036 145.192 85.8252C145.256 85.8469 145.338 85.8469 145.402 85.8469C145.43 85.8469 145.448 85.8469 145.475 85.847C145.53 85.847 145.585 85.847 145.64 85.8326C145.676 85.8254 145.749 85.7966 145.795 85.7822C145.905 85.739 146.014 85.6238 146.042 85.5301C146.069 85.4292 146.069 85.2923 145.987 85.2058C145.987 85.2058 145.978 85.1986 145.969 85.1914C145.933 85.1409 145.887 85.0977 145.823 85.0688C145.805 85.0544 145.786 85.04 145.759 85.0328C145.741 85.0256 145.723 85.0111 145.704 85.0039C145.622 84.9606 145.531 84.939 145.439 84.9173C145.348 84.8957 145.257 84.874 145.165 84.8379L145.302 84.8812C145.12 84.8235 144.955 84.7442 144.8 84.6504C144.736 84.6216 144.672 84.5999 144.608 84.5999C144.535 84.5855 144.471 84.5926 144.398 84.607C144.289 84.6358 144.197 84.6862 144.124 84.7582C143.969 84.9167 143.978 85.1617 144.17 85.3059L144.17 85.3131Z" fill="#E08932"/>
<path d="M110.913 64.8215C111.168 66.1763 111.505 67.5024 111.851 68.8429C112.024 69.4987 112.188 70.1473 112.362 70.8031C112.444 71.1274 112.526 71.4589 112.617 71.7832C112.708 72.1076 112.781 72.5111 113.036 72.7995C113.456 73.2752 114.269 73.0666 114.352 72.519C114.407 72.1803 114.224 71.7911 114.115 71.4596C114.015 71.1641 113.896 70.8686 113.787 70.5731C113.54 69.9101 113.294 69.247 113.048 68.584C112.564 67.2795 112.081 65.9822 111.506 64.692C111.37 64.3893 110.858 64.5188 110.913 64.8215Z" fill="#E08932"/>
<path d="M117.692 81.1453C118.723 82.8392 119.928 84.4539 121.133 86.0757C121.726 86.8687 122.337 87.6544 122.94 88.4473C123.241 88.8438 123.542 89.2402 123.843 89.6367C124.145 90.0332 124.409 90.4512 124.902 90.7181C125.268 90.92 125.916 90.6537 125.862 90.2861C125.734 89.4574 124.858 88.6427 124.319 87.9291C123.699 87.1145 123.087 86.2928 122.448 85.4782C121.207 83.8779 119.965 82.2776 118.55 80.7566C118.176 80.3529 117.418 80.6912 117.701 81.1453L117.692 81.1453Z" fill="#E08932"/>
<path d="M96.8837 79.3319C96.0519 80.4197 95.001 81.3633 93.7674 82.1843C93.1735 82.5803 92.5796 82.9476 91.9217 83.2716C91.2274 83.6172 90.4873 83.8907 89.793 84.2291C89.0986 84.5675 89.5365 85.4973 90.377 85.3175C91.2174 85.1377 92.0214 84.7849 92.7706 84.4033C93.5198 84.0217 94.2416 83.5969 94.8904 83.1215C96.1514 82.1925 97.2116 81.0471 98.0252 79.8512C98.4274 79.2605 97.3316 78.7556 96.8928 79.3247L96.8837 79.3319Z" fill="#E08932"/>
<path d="M84.537 91.5083C87.6879 92.2087 90.7934 92.5416 94.0728 92.2907C97.1146 92.0542 100.677 91.5656 103.272 90.2262C104.012 89.8446 103.565 88.8282 102.642 89.0512C101.236 89.3966 99.8926 89.8933 98.4857 90.2386C97.0789 90.584 95.4893 90.8643 93.9638 91.0295C90.9676 91.3381 87.7066 91.38 84.7199 90.9751C84.2724 90.9173 84.0803 91.4217 84.5278 91.5155L84.537 91.5083Z" fill="#E08932"/>
<path d="M46.319 166.034L42.9281 169.881C42.9281 169.881 60.6148 181.989 94.3741 184.122C128.133 186.255 148.889 180.917 158.465 176.193L156.594 172.416C156.594 172.416 128.839 181.146 104.561 179.694C81.4248 178.315 63.2211 176.441 46.3007 166.027L46.319 166.034Z" fill="#C67F4E"/>
<path d="M94.8874 57.3064C96.3938 58.6257 96.6942 60.5282 96.7481 62.301C96.8111 64.0737 96.7096 65.9184 97.6404 67.533C99.429 70.6395 104.415 71.9171 106.451 74.9301C107.409 76.3573 107.6 78.0148 107.672 79.629C107.744 81.2432 107.725 82.8862 108.318 84.4285C108.92 85.9709 110.271 87.4343 112.226 87.9107C114.008 85.7281 116.813 83.8412 119.791 82.7328C120.385 82.5096 120.55 81.6234 120.34 81.1405C120.13 80.6504 119.628 80.2826 119.099 79.9726C118.569 79.6625 118.003 79.3956 117.574 79.0135C116.369 77.9393 116.543 76.3324 116.215 74.9199C115.759 72.9596 114.171 71.1862 111.979 70.1981C111.395 69.9384 110.774 69.722 110.235 69.4119C109.696 69.1018 108.592 68.3591 108.144 67.5878C106.912 65.4831 107.599 63.0478 106.805 60.8208C106.003 58.5937 104.597 56.4457 102.369 54.9387C99.9212 55.4061 97.0983 56.3561 94.8965 57.3064L94.8874 57.3064Z" fill="#D34F6E"/>
<path d="M101.402 50.3544C101.658 50.3977 101.694 50.859 102.388 51.551C103.091 52.2431 105.355 53.9448 103.902 56.0988C102.896 57.5901 98.1374 57.3358 95.3422 57.7022C92.5469 58.0685 90.5095 59.0765 90.5095 59.0765C90.5095 59.0765 96.9176 49.5238 101.402 50.3544Z" fill="#B7395A"/>
<path d="M82.5305 50.1018C81.1055 50.2309 79.5069 50.4392 78.6752 51.3684C78.072 52.0456 78.0532 52.9391 78.071 53.7751C78.0887 54.82 78.1339 55.8721 78.4621 56.8884C78.7904 57.8974 79.4293 58.8777 80.4611 59.5339C81.4655 60.1685 82.7625 60.4501 84.032 60.602C86.0232 60.8406 88.1423 60.7839 89.9513 60.0856C91.4861 59.4954 92.6924 58.4798 93.6795 57.3776C94.6666 56.2827 95.4619 55.0796 96.385 53.9486C97.034 53.1562 97.7651 52.3854 98.7337 51.8165C99.7022 51.2476 100.917 50.9095 102.095 51.0613C102.26 50.5641 102.178 50.0596 101.795 49.6487C101.411 49.2378 100.845 48.9421 100.252 48.7545C98.5529 48.2133 96.6255 48.4503 94.8168 48.6945C90.8157 49.2333 86.5589 49.7288 82.5305 50.0946L82.5305 50.1018Z" fill="#D34F6E"/>
<path d="M75.8314 39.286C75.4475 39.8479 75.3101 40.5541 75.6843 41.1235C75.9307 41.4912 76.3599 41.7724 76.5698 42.1544C76.9713 42.8752 76.5323 43.8118 77.144 44.4318C77.5366 44.8211 78.2398 44.9367 78.861 44.836C79.4822 44.7426 80.0212 44.469 80.5603 44.2026C82.0678 43.4538 83.6576 42.633 84.389 41.3506C84.9558 40.3564 84.9108 39.153 84.2262 38.2015C83.5417 37.25 82.2267 36.6008 80.8475 36.5498C79.7697 36.5133 78.7191 36.8516 77.9424 37.4349C77.1931 37.9967 76.3251 38.544 75.8314 39.2788L75.8314 39.286Z" fill="#BFD1D8"/>
<path d="M77.2842 38.177C77.0849 35.1287 79.708 32.1032 83.3895 31.1608C87.0619 30.2112 91.4548 31.4309 93.5725 33.9827C94.677 35.3163 95.1785 36.9019 95.9815 38.3651C97.0036 40.2319 98.5737 42.0052 98.6822 44.0446C98.8088 46.4371 96.5788 48.7781 93.6374 49.3462C93.7468 49.6705 94.0846 50.0093 94.194 50.3337C93.024 51.8465 91.1053 53.0346 88.8673 53.2283C86.6294 53.4291 84.3005 52.7723 82.7301 51.4962C82.3385 49.4279 82.1204 47.338 81.7287 45.2697C80.9157 45.4207 80.2949 44.8511 79.9573 44.2457C79.6196 43.6402 79.8118 42.8981 80.3419 42.3866C80.8719 41.8752 81.7124 41.5945 82.5528 41.5589C83.1374 41.5375 83.8865 41.3433 84.1424 40.9254C84.3893 40.5148 84.3713 40.0031 84.0883 39.5995C83.8693 39.2967 83.5223 39.0516 83.3672 38.72C83.2669 38.4966 83.267 38.2516 83.1849 38.0281C82.884 37.1561 81.5232 36.752 80.3996 36.9388C79.2852 37.1257 78.1614 37.5937 77.3025 38.1842L77.2842 38.177Z" fill="#EAB27A"/>
<path d="M88.7573 35.9423C88.3189 35.8773 87.8714 35.8411 87.4238 35.8769C87.1497 35.8984 86.8848 35.9271 86.6199 35.9702C86.355 36.0134 86.0809 36.1141 85.8251 36.2077C85.2952 36.4021 84.7196 36.6829 84.4819 37.1223C84.2624 37.5258 84.4083 37.9726 84.8466 38.2395C85.221 38.463 85.6777 38.492 86.098 38.3481C86.4086 38.2473 86.6371 38.0457 86.8929 37.88L86.6462 38.0312C87.0208 37.808 87.4502 37.6208 87.8796 37.4769L87.6238 37.5633C87.9436 37.4625 88.2816 37.3834 88.6287 37.3475L88.3821 37.3762C88.4277 37.3762 88.4734 37.369 88.5282 37.3619C88.7657 37.3403 89.0124 37.2972 89.1769 37.1459C89.3139 37.0235 89.4053 36.8938 89.4328 36.7281C89.4878 36.3966 89.2231 35.993 88.7756 35.9279L88.7573 35.9423Z" fill="#C6854A"/>
<path d="M92.1279 36.6364C92.1919 36.622 92.2832 36.622 92.0914 36.6292C92.1188 36.6292 92.1371 36.6292 92.1645 36.6292C92.2649 36.6292 92.3563 36.6221 92.4568 36.6077C92.6303 36.5862 92.7948 36.5574 92.9683 36.5359L92.7217 36.5646C92.9683 36.5431 93.215 36.5215 93.4616 36.4928L93.1967 36.5215C93.4981 36.4928 93.7996 36.493 94.101 36.5219L93.827 36.493C93.9 36.5002 93.9731 36.5147 94.0462 36.5219C94.2471 36.5508 94.4207 36.5653 94.6308 36.5221C94.7404 36.5006 94.8409 36.4574 94.9414 36.4214C95.2246 36.3278 95.3891 36.0613 95.4258 35.8307C95.4716 35.5857 95.3804 35.3262 95.143 35.1532C94.9513 35.0089 94.7504 34.9152 94.4855 34.8862C94.385 34.879 94.2937 34.8645 94.2023 34.8645C94.0836 34.8645 93.9648 34.8644 93.8552 34.8644C93.5447 34.8786 93.2158 34.9145 92.9143 34.9793C92.6129 35.044 92.3571 35.152 92.1012 35.2888C92.0281 35.3248 91.9642 35.368 91.9002 35.4112C91.7723 35.4904 91.6992 35.548 91.5987 35.6561C91.5712 35.6849 91.5438 35.7137 91.5164 35.7497C91.4981 35.7714 91.4798 35.793 91.4707 35.8074C91.4341 35.8578 91.5804 35.7065 91.489 35.7858C91.3153 35.9514 91.2239 36.1964 91.3882 36.3983C91.5342 36.5785 91.8356 36.7011 92.1097 36.6292L92.1279 36.6364Z" fill="#C6854A"/>
<path d="M93.3959 38.6895C93.3959 38.6895 93.4233 38.6823 93.4324 38.6751L93.2497 38.7327C93.3502 38.6967 93.4599 38.6751 93.5695 38.6608L93.3411 38.6823C93.5147 38.6608 93.6882 38.6464 93.8526 38.6249L93.606 38.6536C93.7522 38.6392 93.8983 38.6393 94.0444 38.6538L93.7796 38.6248C93.8344 38.6249 93.8892 38.6393 93.9348 38.6465C94.0718 38.6682 94.2089 38.6755 94.355 38.6899L94.081 38.661L94.0993 38.661C94.2362 38.6971 94.3733 38.7044 94.5103 38.6756C94.6473 38.6757 94.7752 38.6397 94.894 38.5821C95.0127 38.5317 95.1133 38.4597 95.1864 38.3732C95.2778 38.294 95.3418 38.2003 95.3692 38.0995C95.4333 37.8905 95.4151 37.6599 95.2691 37.4725C95.123 37.2995 94.913 37.148 94.6573 37.0975C94.5203 37.0686 94.3376 37.0397 94.2097 37.0469C94.0636 37.0468 93.9174 37.0684 93.7804 37.0899C93.5794 37.1187 93.3876 37.1834 93.1957 37.2554C93.013 37.3202 92.8577 37.4066 92.7206 37.5218C92.5835 37.6371 92.4738 37.7523 92.3824 37.8748C92.3002 37.9901 92.2727 38.1198 92.2909 38.2495C92.3091 38.3792 92.373 38.5017 92.5008 38.5883C92.5921 38.6604 92.7108 38.7109 92.8296 38.7397C92.93 38.7614 93.0305 38.7687 93.131 38.7471C93.2315 38.7471 93.3228 38.7183 93.405 38.6751L93.3959 38.6895Z" fill="#C6854A"/>
<path d="M89.7337 38.1555C89.5328 38.0618 89.2954 37.9392 89.0762 37.9031C88.8296 37.8669 88.5647 37.838 88.309 37.8523C88.0532 37.8666 87.7883 37.8881 87.5508 37.9528C87.2402 38.0392 86.8747 38.1471 86.6371 38.3488C86.4726 38.4857 86.3721 38.6442 86.3446 38.8315C86.3171 39.0189 86.3444 39.2134 86.4722 39.3648C86.5726 39.4874 86.7004 39.5883 86.8556 39.6677C87.0657 39.7758 87.4402 39.8192 87.6777 39.7545C87.7964 39.7257 87.9152 39.6897 88.0157 39.6393C88.0523 39.6177 88.0979 39.5961 88.1345 39.5817C88.2167 39.5457 88.2989 39.5169 88.3812 39.4881L88.1254 39.5745C88.3629 39.4953 88.6004 39.4378 88.8562 39.4091L88.5913 39.4378C88.6826 39.4306 88.774 39.4235 88.8653 39.4235C89.0297 39.4164 89.1759 39.3804 89.3312 39.3588L89.0937 39.3803C89.1668 39.3804 89.2398 39.3804 89.3129 39.3804L89.5321 39.3589C89.6418 39.3373 89.7331 39.3014 89.8154 39.2437C89.9524 39.1645 90.0712 39.0421 90.1078 38.9052C90.1902 38.6242 90.0533 38.3286 89.7337 38.1772L89.7337 38.1555Z" fill="#C6854A"/>
<path d="M91.5146 39.0308C91.5054 39.2902 91.5144 39.5496 91.6147 39.8019C91.7151 40.0541 91.8337 40.3136 91.9888 40.5515C92.2809 40.984 92.6643 41.3876 93.1117 41.7265C93.4221 41.9645 93.9792 42.0584 94.3538 41.8568C94.5 41.7776 94.6371 41.6983 94.7193 41.5687C94.829 41.403 94.8748 41.2373 94.8384 41.0499C94.8111 40.8841 94.7198 40.6967 94.5555 40.5814C94.2268 40.3578 93.9163 40.1055 93.6516 39.8388L93.8068 39.9902C93.6151 39.7955 93.4325 39.5864 93.2773 39.3774C93.2043 39.2765 93.1404 39.1612 93.0492 39.0675C92.9579 38.9737 92.8666 38.8656 92.7936 38.7575C92.6384 38.5628 92.3096 38.433 92.0173 38.5121C91.725 38.5913 91.5239 38.7858 91.5146 39.0308Z" fill="#C6854A"/>
<path d="M92.0695 46.9176C92.2818 47.0504 92.5028 47.1663 92.7615 47.1945C93.0203 47.2227 93.2939 47.2376 93.5669 47.2083C94.068 47.1459 94.5889 46.9855 95.0863 46.735C95.4338 46.5625 95.7792 46.0935 95.7902 45.6513C95.7941 45.4785 95.7936 45.3141 95.7247 45.1761C95.6389 44.9956 95.5224 44.874 95.3484 44.8179C95.1969 44.7638 94.9966 44.7582 94.8215 44.8546C94.4773 45.0509 94.1178 45.2164 93.7682 45.333L93.969 45.2623C93.7146 45.346 93.4525 45.4143 93.2036 45.4574C93.0843 45.4764 92.9574 45.4801 92.8353 45.5195C92.7133 45.5588 92.5793 45.5913 92.454 45.6069C92.2171 45.6568 91.9511 45.898 91.8772 46.2056C91.8032 46.5132 91.8693 46.7918 92.0695 46.9176Z" fill="#C6854A"/>
<path d="M82.0594 93.7606C82.1047 93.7606 82.1047 93.7032 82.0594 93.7031C82.0141 93.7031 82.014 93.7606 82.0594 93.7606Z" fill="#E08932"/>
<path d="M79.9495 94.4083C80.0501 94.3147 80.3058 94.3076 80.4429 94.2356C80.6347 94.1276 80.7809 93.9835 80.9363 93.8467C81.2196 93.5874 81.4572 93.292 81.6857 92.9967C82.1884 92.3556 82.5907 91.7 82.9107 90.9939C83.5417 89.6322 83.9352 88.1624 83.8995 86.7067C83.8817 85.842 82.3015 85.863 82.2188 86.706C82.0811 88.0247 81.843 89.3145 81.3125 90.5753C81.0565 91.1733 80.773 91.7713 80.453 92.3548C80.2793 92.6718 80.069 92.9816 79.8953 93.2986C79.8131 93.4427 79.7125 93.6011 79.6485 93.7597C79.6027 93.8749 79.6757 94.12 79.6117 94.2064C79.4837 94.3721 79.7942 94.574 79.9587 94.4155L79.9495 94.4083Z" fill="#E08932"/>
<path d="M111.732 105.266C115.222 104.713 118.474 103.742 121.499 102.244C122.97 101.517 124.349 100.66 125.638 99.7379C126.286 99.277 126.908 98.7872 127.502 98.283C128.096 97.7788 128.836 97.2819 128.937 96.5541C128.992 96.129 128.344 95.7828 127.859 95.9051C127.074 96.1138 126.653 96.7117 126.114 97.1871C125.575 97.6625 124.981 98.1451 124.378 98.5916C123.162 99.4919 121.847 100.313 120.476 101.054C117.735 102.531 114.656 103.762 111.477 104.524C110.874 104.668 111.13 105.36 111.732 105.259L111.732 105.266Z" fill="#E08932"/>
<path d="M128.268 99.0158C128.487 99.1456 128.707 99.2682 128.917 99.398C129.026 99.4629 129.127 99.5206 129.236 99.5855C129.318 99.6288 129.401 99.6648 129.492 99.6937C129.583 99.7226 129.684 99.7442 129.784 99.7443C129.83 99.7443 129.949 99.7371 129.994 99.7228C130.013 99.7228 130.04 99.7084 130.058 99.7012L130.204 99.6508C130.277 99.622 130.332 99.5788 130.378 99.5211C130.415 99.4923 130.442 99.4563 130.46 99.4131C130.497 99.3554 130.515 99.2906 130.515 99.2257C130.515 99.2113 130.515 99.1969 130.515 99.1825C130.515 99.1393 130.506 99.06 130.488 99.0168C130.461 98.9375 130.415 98.8654 130.351 98.8005C130.251 98.6996 130.15 98.6347 130.022 98.5626C129.913 98.4977 129.803 98.4328 129.684 98.3607C129.465 98.2309 129.246 98.101 129.027 97.964C128.936 97.9208 128.844 97.8919 128.744 97.8918C128.643 97.8702 128.543 97.8774 128.433 97.9061C128.251 97.9421 128.059 98.0573 127.976 98.187C127.885 98.3311 127.83 98.4968 127.894 98.6554L127.976 98.7995C128.049 98.8932 128.14 98.9653 128.25 99.0158L128.268 99.0158Z" fill="#E08932"/>
<path d="M125.857 100.254C126.085 100.391 126.314 100.52 126.551 100.657C126.661 100.722 126.77 100.794 126.889 100.845C127.053 100.91 127.236 100.982 127.41 101.025C127.656 101.083 127.967 100.989 128.086 100.809C128.131 100.737 128.159 100.658 128.168 100.572C128.168 100.442 128.095 100.334 127.995 100.24C127.903 100.154 127.794 100.081 127.684 100.002C127.547 99.9084 127.374 99.8362 127.218 99.7569C126.972 99.6415 126.734 99.5261 126.488 99.4107C126.351 99.3458 126.159 99.3313 126.013 99.3601C125.867 99.3888 125.711 99.4824 125.638 99.5833C125.565 99.6986 125.519 99.8355 125.574 99.958L125.638 100.073C125.693 100.145 125.766 100.203 125.857 100.246L125.857 100.254Z" fill="#E08932"/>
<path d="M124.03 101.275C124.212 101.419 124.404 101.563 124.587 101.707C124.678 101.779 124.769 101.844 124.861 101.916C124.925 101.967 124.988 102.01 125.052 102.053C125.116 102.097 125.198 102.126 125.281 102.162C125.39 102.205 125.5 102.227 125.628 102.212C125.737 102.198 125.856 102.162 125.938 102.097C126.002 102.039 126.048 101.982 126.075 101.91C126.121 101.802 126.085 101.672 126.021 101.578C125.993 101.535 125.966 101.492 125.93 101.448C125.875 101.376 125.793 101.319 125.72 101.254C125.628 101.182 125.537 101.11 125.446 101.038C125.263 100.893 125.08 100.742 124.898 100.598C124.788 100.511 124.624 100.453 124.459 100.453C124.295 100.453 124.131 100.504 124.021 100.597C123.911 100.691 123.838 100.813 123.838 100.943C123.838 101.073 123.902 101.195 124.021 101.289L124.03 101.275Z" fill="#E08932"/>
<path d="M121.48 102.631C121.653 102.826 121.836 103.013 122.009 103.208C122.21 103.424 122.393 103.648 122.612 103.849C122.685 103.914 122.749 103.986 122.849 104.03C122.986 104.095 123.16 104.116 123.315 104.073C123.443 104.037 123.516 103.987 123.598 103.9C123.726 103.756 123.699 103.562 123.598 103.418C123.452 103.208 123.261 103.028 123.078 102.834C122.877 102.617 122.676 102.401 122.476 102.185C122.384 102.084 122.284 102.012 122.138 101.976C122.001 101.947 121.818 101.961 121.699 102.019C121.581 102.076 121.471 102.17 121.434 102.285C121.398 102.401 121.407 102.537 121.489 102.631L121.48 102.631Z" fill="#E08932"/>
<path d="M119.096 104.25C119.288 104.487 119.479 104.725 119.671 104.97C119.79 105.122 119.908 105.266 120.054 105.403C120.136 105.482 120.209 105.562 120.328 105.612C120.456 105.677 120.593 105.684 120.739 105.699C120.831 105.706 120.94 105.663 121.013 105.62C121.095 105.569 121.141 105.511 121.178 105.432C121.233 105.317 121.251 105.202 121.205 105.079C121.169 104.985 121.096 104.885 121.05 104.798C120.977 104.675 120.877 104.56 120.786 104.445C120.594 104.207 120.402 103.976 120.22 103.738C120.128 103.63 120 103.544 119.836 103.508C119.672 103.472 119.48 103.486 119.343 103.558C119.06 103.702 118.922 104.012 119.114 104.25L119.096 104.25Z" fill="#E08932"/>
<path d="M116.09 105.474C116.163 105.776 116.309 106.072 116.5 106.339C116.601 106.483 116.728 106.634 116.865 106.757C116.948 106.829 117.039 106.901 117.148 106.951C117.258 107.002 117.377 107.023 117.505 107.045C117.678 107.074 117.833 107.045 117.961 106.952C118.089 106.858 118.126 106.721 118.08 106.591C118.044 106.483 118.026 106.368 117.934 106.274C117.87 106.209 117.807 106.137 117.752 106.072C117.624 105.928 117.524 105.777 117.432 105.618L117.496 105.734C117.405 105.561 117.341 105.388 117.296 105.208C117.268 105.092 117.131 104.97 117.003 104.912C116.866 104.847 116.675 104.825 116.519 104.861C116.364 104.897 116.218 104.976 116.145 105.092C116.062 105.214 116.044 105.337 116.081 105.474L116.09 105.474Z" fill="#E08932"/>
<path d="M113.641 106.341C113.905 106.788 114.161 107.235 114.453 107.675C114.599 107.891 114.955 107.963 115.229 107.877C115.503 107.791 115.695 107.531 115.586 107.301C115.339 106.796 115.057 106.313 114.783 105.816C114.719 105.701 114.527 105.607 114.39 105.578C114.235 105.542 114.016 105.556 113.879 105.628C113.742 105.7 113.614 105.808 113.577 105.938C113.531 106.082 113.568 106.205 113.641 106.341Z" fill="#E08932"/>
<path d="M111.23 107.285L111.714 107.919L111.951 108.229C111.987 108.28 112.033 108.33 112.079 108.381C112.152 108.46 112.206 108.525 112.316 108.575C112.343 108.59 112.38 108.604 112.407 108.619C112.727 108.756 113.138 108.583 113.138 108.287C113.138 108.259 113.138 108.23 113.138 108.201C113.138 108.1 113.093 108.035 113.038 107.941C113.011 107.891 112.974 107.841 112.938 107.79C112.855 107.682 112.773 107.574 112.691 107.466L112.216 106.831C112.061 106.63 111.687 106.536 111.422 106.665C111.157 106.795 111.047 107.069 111.211 107.292L111.23 107.285Z" fill="#E08932"/>
<path d="M109.238 107.883C109.411 108.099 109.575 108.308 109.749 108.524C109.831 108.632 109.913 108.733 109.995 108.841C110.059 108.921 110.141 108.993 110.224 109.065C110.278 109.115 110.324 109.166 110.388 109.202C110.488 109.26 110.571 109.303 110.698 109.317C110.817 109.332 110.945 109.318 111.046 109.267C111.237 109.166 111.375 108.965 111.292 108.784C111.165 108.482 110.891 108.237 110.644 107.991C110.443 107.79 110.243 107.588 110.042 107.386C109.969 107.314 109.795 107.263 109.676 107.27C109.558 107.278 109.457 107.299 109.366 107.357C109.174 107.479 109.101 107.71 109.238 107.883Z" fill="#E08932"/>
<path d="M64.732 73.8078C64.9332 73.3179 65.0613 72.7487 65.3082 72.2732C65.3083 72.1363 65.2901 71.9633 65.2628 71.8336C64.9803 70.6084 64.3507 69.4408 63.8855 68.2516C63.4385 67.1128 63.0007 65.9741 62.5538 64.8354C61.6416 62.5002 60.7386 60.1723 59.8174 57.8443C58.8961 55.5164 57.9748 53.1885 57.0444 50.8605C56.3786 49.174 55.731 47.4731 54.6449 45.9161C53.5405 44.3376 51.9429 42.9533 49.6322 42.5488C49.2304 42.4766 49.0657 42.9377 49.4584 43.0315C53.7234 44.0566 55.0274 48.0781 56.1584 51.0475C57.864 55.5088 59.5696 59.9772 61.2935 64.4313C61.777 65.6781 62.2604 66.9178 62.7438 68.1646C63.2455 69.4547 63.9015 72.3951 64.5676 73.642C64.5859 73.678 64.7046 73.8006 64.7228 73.8078L64.732 73.8078Z" fill="#F98293"/>
<path d="M110.043 124.931C110.553 127.295 111.072 129.659 111.601 132.022C111.865 133.19 112.12 134.357 112.366 135.532C112.612 136.721 112.794 137.946 113.149 139.121C113.25 139.453 113.971 139.388 113.917 139.042C113.726 137.875 113.361 136.707 113.069 135.547C112.768 134.358 112.477 133.169 112.185 131.979C111.611 129.601 111.037 127.216 110.445 124.845C110.39 124.636 109.997 124.722 110.043 124.931Z" fill="#F98293"/>
<path d="M230.273 43.0052C231.341 43.7695 232.51 44.4474 233.752 45.0316C234.144 45.2192 234.601 45.3347 235.058 45.3421C235.505 45.3567 235.98 45.3064 236.346 45.1264C236.41 45.0976 236.473 45.1553 236.437 45.1985C235.989 45.746 235.331 46.2646 234.682 46.6246C235.568 48.059 237.522 48.975 239.522 49.1416C241.522 49.3082 243.56 48.783 245.25 47.9118C246.94 47.0406 247.982 45.8736 249.17 44.5842C247.344 44.0141 245.919 42.8173 244.961 41.4621C243.994 40.1142 243.501 38.543 242.99 37.0511C243.63 36.7055 244.26 36.331 244.745 35.8556C245.229 35.3802 245.577 34.7895 245.577 34.177C245.577 33.5644 245.194 32.9373 244.518 32.6416C243.906 32.3675 243.13 32.396 242.49 32.6119C241.842 32.8278 241.403 33.3177 240.964 33.7498C239.202 32.942 237.714 31.601 236.701 30.2026C234.974 31.3548 232.316 31.6131 230.261 30.8628C229.063 32.5774 226.633 33.7221 224.149 33.7283C225.718 36.9645 227.013 40.6619 230.273 42.9836L230.273 43.0052Z" fill="#E0995F"/>
<path d="M228.039 34.0261C227.774 33.9683 227.5 33.925 227.235 33.9393C226.961 33.9536 226.687 33.9895 226.431 34.0686C226.176 34.1478 225.929 34.2486 225.701 34.3854C225.436 34.5438 225.034 34.7815 225.043 35.0625C225.042 35.3003 225.344 35.4878 225.636 35.4231C225.8 35.3871 225.883 35.3151 225.983 35.2143C226.02 35.1782 225.983 35.1998 225.974 35.2215C225.992 35.1998 226.011 35.1855 226.029 35.1638C226.102 35.099 226.175 35.0342 226.257 34.9766C226.276 34.9622 226.303 34.9478 226.331 34.9262C226.34 34.9262 226.422 34.8685 226.367 34.8973C226.321 34.9261 226.385 34.8901 226.394 34.8829C226.422 34.8685 226.44 34.8541 226.468 34.8397C226.568 34.7893 226.669 34.7461 226.769 34.7029C226.815 34.6813 226.87 34.6598 226.915 34.6454C226.934 34.6382 226.961 34.631 226.979 34.6238C227.08 34.5878 226.934 34.6382 226.997 34.6238C227.107 34.595 227.217 34.559 227.326 34.5374C227.546 34.4943 227.756 34.4511 227.957 34.444C228.258 34.4369 228.331 34.0839 228.03 34.0189L228.039 34.0261Z" fill="#8E6342"/>
<path d="M231.355 33.3558C231.72 33.1686 232.095 33.0463 232.524 32.9744C232.634 32.9528 232.744 32.9385 232.853 32.9313C232.762 32.9385 232.926 32.9313 232.945 32.9313C232.999 32.9314 233.054 32.9314 233.109 32.9242C233.374 32.9171 233.684 32.9749 233.931 32.8669C234.26 32.7229 234.224 32.3698 233.931 32.2183C233.676 32.0885 233.265 32.1676 232.991 32.2179C232.753 32.2539 232.525 32.3114 232.296 32.3834C231.821 32.5417 231.392 32.7505 231.017 33.0242C230.78 33.1971 231.09 33.5143 231.364 33.3775L231.355 33.3558Z" fill="#8E6342"/>
<path d="M232.278 34.378C232.278 34.378 232.278 34.4212 232.278 34.4429C232.278 34.4068 232.287 34.3708 232.297 34.3348C232.297 34.3636 232.278 34.3996 232.278 34.4285C232.278 34.4429 232.278 34.4573 232.269 34.4717C232.242 34.5293 232.242 34.5942 232.26 34.6518C232.26 34.7095 232.287 34.7671 232.324 34.8176C232.351 34.8536 232.379 34.8897 232.415 34.9113C232.415 34.9113 232.433 34.9185 232.433 34.9257C232.479 34.969 232.543 34.9978 232.607 35.0123C232.671 35.0411 232.744 35.0484 232.817 35.0484C232.863 35.0484 232.917 35.0412 232.963 35.0341C233.054 35.0125 233.137 34.9765 233.201 34.9261C233.201 34.9261 233.201 34.9189 233.21 34.9117C233.228 34.8973 233.246 34.8828 233.255 34.8612C233.31 34.818 233.338 34.7676 233.356 34.7099C233.383 34.6523 233.383 34.5875 233.365 34.5298C233.365 34.4721 233.338 34.4145 233.301 34.364L233.301 34.3496C233.301 34.3424 233.301 34.3352 233.292 34.328C233.274 34.2992 233.265 34.2703 233.247 34.2415C233.265 34.2775 233.283 34.3064 233.301 34.3424C233.292 34.3208 233.283 34.2992 233.274 34.2775C233.256 34.2271 233.228 34.1838 233.183 34.1406C233.146 34.0973 233.101 34.0613 233.037 34.0396C233 34.0252 232.954 34.0108 232.918 33.9964C232.854 33.9819 232.781 33.9747 232.717 33.9963C232.671 33.9962 232.626 34.0034 232.589 34.025C232.525 34.0394 232.47 34.0682 232.425 34.1042L232.342 34.1835C232.297 34.2483 232.269 34.3132 232.269 34.3852L232.278 34.378Z" fill="#8E6342"/>
<path d="M227.554 35.7753C227.527 35.8257 227.499 35.869 227.481 35.9194C227.481 35.9194 227.481 35.9266 227.481 35.9338C227.481 35.9698 227.463 36.0131 227.463 36.0491C227.463 36.0635 227.463 36.0707 227.463 36.0851C227.463 36.1284 227.463 36.1716 227.481 36.2076C227.481 36.2293 227.508 36.2509 227.517 36.2725C227.536 36.3014 227.545 36.3302 227.563 36.3518C227.581 36.3806 227.609 36.4023 227.627 36.4239C227.645 36.4383 227.663 36.4599 227.682 36.4816C227.718 36.5104 227.764 36.5392 227.809 36.5537C227.873 36.5825 227.937 36.6042 228.01 36.6042C228.083 36.6187 228.147 36.6115 228.22 36.5971C228.266 36.5827 228.303 36.5683 228.348 36.5539C228.412 36.5251 228.458 36.4891 228.495 36.4459C228.531 36.4171 228.549 36.3883 228.559 36.3522C228.595 36.3018 228.604 36.2514 228.604 36.1937C228.604 36.1577 228.595 36.1216 228.586 36.0856C228.559 36.0135 228.513 35.9559 228.449 35.8982C228.404 35.8621 228.349 35.8333 228.303 35.8045C228.34 35.8261 228.376 35.8477 228.413 35.8694C228.385 35.8549 228.367 35.8405 228.349 35.8189C228.376 35.8477 228.404 35.8766 228.431 35.8982C228.413 35.8838 228.404 35.8693 228.385 35.8549C228.376 35.8405 228.358 35.8261 228.34 35.8117C228.34 35.8117 228.34 35.8117 228.331 35.8117C228.331 35.8117 228.321 35.8045 228.312 35.7972C228.303 35.79 228.294 35.7756 228.276 35.7684C228.303 35.79 228.321 35.8189 228.349 35.8477C228.331 35.8333 228.321 35.8189 228.312 35.7972C228.331 35.8261 228.34 35.8549 228.358 35.8837C228.358 35.8837 228.358 35.8693 228.349 35.8621C228.331 35.8333 228.321 35.8045 228.303 35.7828C228.285 35.7612 228.257 35.7396 228.239 35.7107C228.212 35.6963 228.184 35.6747 228.148 35.6603C228.102 35.6386 228.047 35.6242 227.984 35.617C227.947 35.6097 227.91 35.6097 227.865 35.6169C227.828 35.6169 227.792 35.6241 227.755 35.6385C227.719 35.6457 227.682 35.6601 227.655 35.6817C227.609 35.7033 227.572 35.7393 227.545 35.7753L227.554 35.7753Z" fill="#8E6342"/>
<path d="M230.103 35.4389C230.112 35.511 230.094 35.583 230.103 35.6623C230.103 35.7488 230.13 35.8281 230.157 35.9073C230.203 36.0515 230.239 36.1884 230.276 36.3325C230.294 36.4046 230.312 36.4767 230.33 36.556C230.33 36.5848 230.34 36.6136 230.349 36.6424C230.349 36.6641 230.349 36.6857 230.358 36.7001C230.358 36.6641 230.358 36.6641 230.358 36.7001C230.385 36.8875 230.367 37.118 230.558 37.255C230.686 37.3488 230.933 37.3777 231.061 37.2553C231.17 37.1472 231.216 37.0463 231.198 36.9094C231.198 36.8085 231.171 36.7148 231.143 36.614C231.116 36.4626 231.08 36.3185 231.025 36.1743C230.97 36.0158 230.897 35.8644 230.815 35.7059C230.779 35.6338 230.733 35.5617 230.669 35.4968C230.605 35.4247 230.514 35.3815 230.441 35.3094C230.331 35.2084 230.075 35.2876 230.094 35.4245L230.103 35.4389Z" fill="#8E6342"/>
<path d="M203.433 55.0231C203.433 55.0231 209.708 70.0434 210.363 74.4755C210.363 74.4755 215.899 72.0349 220.958 74.2564L215.343 53.8389C215.343 53.8389 207.471 51.7676 203.433 55.0159L203.433 55.0231Z" fill="#C3DAF4"/>
<path d="M231.181 53.3366C231.181 53.3366 221.528 50.969 215.334 53.849L220.949 74.2665C220.949 74.2665 229.573 71.8271 234.357 74.1206L231.181 53.3366Z" fill="#B2CBED"/>
<path d="M236.359 74.4378C238.25 73.9414 239.675 72.472 239.768 70.9011C238.526 69.5025 237.139 68.0247 235.888 66.619C234.656 65.2349 233.359 63.6201 231.807 62.4521C230.255 61.284 228.347 60.3464 226.218 60.0861C225.908 60.0499 225.57 60.0282 225.287 60.1289C225.003 60.2369 224.793 60.5107 224.921 60.7413C225.003 60.8927 225.204 60.9792 225.387 61.0514C226.473 61.4986 227.56 61.9531 228.638 62.4003C227.624 62.371 226.619 62.3778 225.623 62.5431C224.829 62.6725 224.016 62.8884 223.476 63.3709C223.303 63.5222 223.166 63.7311 223.275 63.9185C223.357 64.0627 223.567 64.1348 223.768 64.1349C223.969 64.135 224.152 64.0774 224.335 64.0198C223.878 64.1205 223.43 64.4951 223.165 64.7976C223.037 64.9417 222.946 65.1578 223.101 65.2876C223.21 65.3741 223.393 65.3742 223.548 65.3671C225.156 65.2957 226.773 65.2171 228.38 65.1457C227.083 65.5343 225.813 66.0454 224.799 66.7944C224.607 66.9313 224.415 67.1185 224.479 67.3131C224.525 67.4429 224.689 67.5294 224.863 67.5583C225.036 67.5872 225.21 67.5584 225.374 67.5369C226.397 67.3788 227.393 67.1054 228.316 66.7311C228.745 67.3366 229.155 67.9492 229.804 68.4179C230.452 68.8866 231.338 69.204 232.206 69.0675C233.858 70.7328 235.227 72.5133 236.34 74.445L236.359 74.4378Z" fill="#E0995F"/>
<path d="M207.563 65.4617C208.367 64.8927 209.573 64.5546 210.623 64.346C210.961 64.2813 211.198 64.3175 211.308 64.4112C211.399 64.4905 211.408 64.6202 211.354 64.7211C211.299 64.8219 210.842 65.0884 210.75 65.1676C209.974 65.8302 209.151 66.255 208.375 66.9104C208.841 66.5864 209.937 66.4355 210.54 66.3133C210.713 66.2773 211.015 66.3135 211.133 66.4216C211.243 66.537 210.64 67.0123 210.558 67.142C210.101 67.848 209.278 67.862 209.15 69.1591C209.113 69.5554 208.255 69.5406 207.835 69.3243C207.414 69.1079 207.186 68.7331 206.976 68.3727C206.538 67.6231 206.1 66.8662 205.662 66.1166C205.471 65.7851 205.279 65.4463 205.206 65.086C205.142 64.7256 205.207 64.3293 205.508 64.0556C206.385 63.2201 206.77 62.233 207.473 61.2965C207.601 61.1236 207.739 60.9508 207.949 60.8356C208.159 60.7275 208.46 60.6989 208.652 60.8358C208.908 61.0161 208.807 61.3475 208.67 61.5997C208.277 62.3418 207.829 63.0622 207.326 63.761C208.148 63.0263 209.272 62.5079 210.487 62.2922C210.725 62.2491 211.072 62.2781 211.09 62.4727C211.099 62.5735 211.163 62.8402 210.916 63.0635C209.929 63.9278 208.65 64.6407 207.572 65.4401L207.563 65.4617Z" fill="#E0995F"/>
<path d="M239.494 69.4186C239.237 71.8181 237.29 74.0008 234.558 75.0373C233.992 75.2532 234.485 75.9092 235.051 75.7005C238.112 74.5704 240.178 72.0708 240.279 69.4189C240.298 69.0154 239.54 69.0295 239.503 69.4186L239.494 69.4186Z" fill="#6B8DC9"/>
<path d="M234.442 75.5337C236.924 78.9217 240.156 81.9928 243.342 84.9847C246.063 87.5369 249.258 90.1757 253.652 90.682C255.606 90.9062 257.68 90.6909 259.361 89.834C261.033 88.9772 262.194 87.6013 262.797 86.1243C263.538 84.3231 263.612 82.4568 263.814 80.5833C264.034 78.5296 264.236 76.4831 264.438 74.4295C264.907 69.7889 265.421 65.1484 265.798 60.5006C265.825 60.1259 265.095 60.1328 265.058 60.5003C264.627 64.4059 264.296 68.3258 263.919 72.2386C263.735 74.2058 263.552 76.1802 263.368 78.1474C263.193 80.0497 263.092 81.9521 262.689 83.8327C262.35 85.4252 261.637 87.0679 260.257 88.2923C258.923 89.4736 257.05 90.042 255.059 90.0268C250.756 89.9889 247.46 87.6095 244.794 85.1943C241.298 82.0294 238.094 78.6844 234.953 75.2961C234.734 75.0582 234.25 75.267 234.451 75.5265L234.442 75.5337Z" fill="#517DBC"/>
<path d="M256.905 49.2056C252.585 49.6073 250.674 53.2095 250.189 56.1998C249.868 58.2173 249.794 60.2566 249.646 62.2886C249.49 64.3423 249.343 66.3959 249.186 68.4496C249.012 70.8275 248.846 73.2054 248.671 75.5833C248.644 76.0084 249.475 76.0016 249.502 75.5836C249.797 71.6349 250.1 67.6933 250.395 63.7445C250.533 61.7918 250.68 59.8462 250.818 57.8935C250.937 56.128 251.094 54.2257 252.127 52.6264C253.096 51.1208 254.804 49.8532 256.969 49.5875C257.243 49.5516 257.179 49.1841 256.905 49.2056Z" fill="#517DBC"/>
<path d="M239.815 69.6205C241.905 71.7256 244.407 73.5426 247.174 75.0787C248.553 75.8432 249.977 76.5428 251.457 77.1776C252.973 77.8268 254.516 78.4255 255.822 79.3269C256.297 79.6514 256.991 79.1184 256.516 78.7795C255.275 77.871 253.75 77.2578 252.261 76.6446C250.772 76.0315 249.32 75.3607 247.923 74.6179C245.093 73.1106 242.454 71.3439 240.253 69.2676C239.98 69.0152 239.55 69.3754 239.797 69.6277L239.815 69.6205Z" fill="#517DBC"/>
<path d="M257.323 73.908C255.926 73.8569 254.555 73.9428 253.194 74.1801C252.527 74.2951 251.861 74.4389 251.212 74.6188C250.563 74.7987 249.86 74.9786 249.275 75.2594C248.873 75.4538 249.129 76.016 249.604 75.8793C250.225 75.6994 250.819 75.4618 251.44 75.2819C252.061 75.1092 252.701 74.9582 253.349 74.8431C254.646 74.6059 255.989 74.4695 257.323 74.4341C257.752 74.4198 257.752 73.9226 257.323 73.908Z" fill="#517DBC"/>
<path d="M230.734 42.4255C230.946 42.5582 231.167 42.6741 231.426 42.7023C231.685 42.7305 231.958 42.7454 232.231 42.7161C232.733 42.6537 233.253 42.4933 233.751 42.2428C234.098 42.0703 234.444 41.6013 234.455 41.1591C234.459 40.9863 234.458 40.822 234.389 40.684C234.303 40.5034 234.187 40.3819 234.013 40.3258C233.861 40.2716 233.661 40.266 233.486 40.3624C233.142 40.5587 232.782 40.7242 232.433 40.8408L232.634 40.7701C232.379 40.8538 232.117 40.9221 231.868 40.9652C231.749 40.9842 231.622 40.9879 231.5 41.0273C231.378 41.0666 231.244 41.0991 231.119 41.1147C230.882 41.1647 230.616 41.4058 230.542 41.7134C230.468 42.021 230.534 42.2996 230.734 42.4255Z" fill="#C6854A"/>
<path d="M42.4497 184.578L301.382 184.578" stroke="#2E2854" stroke-linecap="round" stroke-linejoin="round"/>
</g>
<defs>
<clipPath id="clip0_982_1631">
<rect width="280" height="193" fill="white" transform="translate(22)"/>
</clipPath>
</defs>
</svg>
