<svg width="324" height="185" viewBox="0 0 324 185" fill="none" xmlns="http://www.w3.org/2000/svg">
<path d="M272.794 184.633H54.5698C41.8513 159.516 35.65 131.105 34.5884 103.112C34.1334 91.1315 35.2203 78.029 43.5069 69.1748C50.2896 61.923 60.5309 58.9935 69.163 53.9439C81.852 46.5154 90.9138 34.5756 100.755 23.7986C110.596 13.0174 122.459 2.6923 137.082 0.457177C155.42 -2.34494 172.971 8.19381 187.463 19.505C201.951 30.8162 216.334 43.8489 234.52 47.4522C243.671 49.2641 253.234 48.5287 262.3 50.7022C279.324 54.778 292.581 69.0556 298.045 85.2972C303.509 101.539 301.993 119.403 296.967 135.78C291.941 152.158 281.093 169.574 272.794 184.633Z" fill="#CADCE9"/>
<mask id="mask0_982_1630" style="mask-type:luminance" maskUnits="userSpaceOnUse" x="102" y="136" width="123" height="48">
<path d="M102.521 183.393L224.587 183.393V136.451H102.521V183.393Z" fill="white"/>
</mask>
<g mask="url(#mask0_982_1630)">
<path d="M206.043 187.14C202.828 188.919 199.538 190.201 196.458 191.044C196.075 191.146 195.692 191.249 195.317 191.348C194.938 191.438 194.558 191.516 194.188 191.594C193.442 191.742 192.722 191.89 192.014 191.993C190.594 192.182 189.271 192.321 188.033 192.317C183.095 192.375 179.944 191.031 179.54 189.059C179.123 187.033 181.377 184.765 184.907 182.325C185.8 181.733 186.756 181.072 187.801 180.451C188.319 180.135 188.85 179.794 189.402 179.474C189.68 179.313 189.958 179.153 190.24 178.989C190.523 178.82 190.809 178.652 191.096 178.479C193.413 177.14 195.953 175.743 198.607 174.272C201.269 172.805 203.574 171.556 205.647 170.586C207.694 169.588 209.51 168.885 211.098 168.446C211.89 168.224 212.64 168.084 213.335 168.014C214.022 167.932 214.658 167.932 215.248 168.002C216.423 168.15 217.396 168.598 218.117 169.333C218.837 170.073 219.241 171.03 219.254 172.222C219.258 172.817 219.17 173.471 218.972 174.182C218.765 174.88 218.441 175.628 218.007 176.433C217.135 178.035 215.745 179.794 213.79 181.647C211.814 183.467 209.261 185.374 206.043 187.144V187.14Z" fill="#547374"/>
<path d="M217.758 169.654C213.061 173.356 206.641 177.789 199.681 181.286C196.21 183.044 192.633 184.598 189.187 185.892C185.745 187.19 182.438 188.221 179.544 189.06C182.539 188.69 185.981 187.995 189.554 186.911C193.126 185.83 196.829 184.355 200.364 182.564C207.458 179.002 213.748 174.059 217.758 169.654Z" fill="#6D9B7C"/>
<path d="M187.039 177.119C188.517 177.567 190.362 177.806 192.376 177.649C193.366 177.559 194.403 177.374 195.456 177.099C196.517 176.828 197.533 176.413 198.569 175.936C199.614 175.464 200.57 174.851 201.51 174.194C202.457 173.545 203.304 172.789 204.084 172C204.471 171.606 204.855 171.207 205.196 170.792C205.529 170.373 205.845 169.95 206.135 169.527C206.725 168.684 207.226 167.838 207.58 167.004C207.243 167.292 206.894 167.587 206.54 167.891C206.173 168.183 205.798 168.479 205.415 168.779C204.64 169.37 203.886 169.999 203.022 170.562C202.175 171.133 201.324 171.708 200.435 172.238C199.53 172.756 198.615 173.249 197.701 173.709C195.822 174.589 193.964 175.336 192.128 175.866C190.337 176.442 188.555 176.774 187.047 177.115L187.039 177.119Z" fill="#D8E29F"/>
<path d="M183.643 179.967C184.831 180.629 186.386 181.192 188.104 181.381C188.968 181.483 189.886 181.512 190.834 181.459C191.782 181.405 192.722 181.229 193.686 180.99C194.167 180.867 194.647 180.723 195.123 180.563C195.591 180.39 196.046 180.197 196.496 179.988C197.389 179.56 198.295 179.092 199.07 178.521C199.858 177.958 200.591 177.35 201.244 176.725C201.872 176.08 202.42 175.415 202.883 174.766C202.205 175.144 201.493 175.542 200.751 175.957C200.006 176.356 199.205 176.725 198.405 177.095C198 177.28 197.596 177.457 197.187 177.629C196.774 177.802 196.341 177.95 195.919 178.106C195.064 178.406 194.209 178.681 193.354 178.924C192.473 179.141 191.605 179.326 190.75 179.482C190.325 179.56 189.903 179.63 189.486 179.688C189.061 179.737 188.639 179.782 188.227 179.819C187.401 179.893 186.605 179.938 185.846 179.971C185.088 180 184.338 179.98 183.652 179.975L183.643 179.967Z" fill="#D8E29F"/>
<path d="M180.479 182.567C181.25 183.175 182.261 183.729 183.458 184.103C184.056 184.292 184.696 184.436 185.366 184.526C186.023 184.6 186.71 184.625 187.405 184.588C188.1 184.551 188.808 184.461 189.503 184.313C190.181 184.148 190.847 183.931 191.479 183.672C192.768 183.171 193.855 182.439 194.702 181.691C192.6 182.316 190.004 182.92 187.46 183.06C186.171 183.121 184.932 183.105 183.748 183.002C182.556 182.887 181.452 182.723 180.475 182.558L180.479 182.567Z" fill="#D8E29F"/>
<path d="M190.658 173.544C192.136 173.675 193.779 173.482 195.578 173.009C196.475 172.771 197.347 172.422 198.249 172.019C198.696 171.814 199.151 171.596 199.593 171.349C200.023 171.099 200.452 170.832 200.874 170.548C201.716 169.981 202.559 169.357 203.288 168.654C204.025 167.952 204.762 167.233 205.36 166.448C205.967 165.667 206.519 164.874 206.986 164.081C207.425 163.276 207.799 162.479 208.09 161.719C205.71 163.88 202.765 166.436 199.652 168.535C196.564 170.672 193.24 172.258 190.653 173.539L190.658 173.544Z" fill="#D8E29F"/>
<path d="M194.512 169.173C196.972 168.878 200.018 167.411 202.462 165.036C204.93 162.694 206.552 159.481 207.045 156.893C205.288 158.885 203.304 161.367 201.029 163.524L200.199 164.337C199.917 164.605 199.622 164.855 199.336 165.11C198.767 165.611 198.202 166.108 197.655 166.593C197.09 167.057 196.538 167.505 196.012 167.941C195.755 168.159 195.498 168.372 195.253 168.582C194.997 168.787 194.748 168.984 194.508 169.178L194.512 169.173Z" fill="#D8E29F"/>
<path d="M197.242 164.296C197.773 164.132 198.338 163.91 198.894 163.618C199.441 163.318 199.997 162.961 200.549 162.546C201.682 161.732 202.673 160.639 203.566 159.427C204 158.815 204.362 158.162 204.699 157.5C204.863 157.168 205.019 156.835 205.162 156.502C205.293 156.165 205.402 155.824 205.508 155.483C205.714 154.805 205.87 154.139 205.975 153.503C206.06 152.858 206.076 152.237 206.055 151.666C205.761 152.163 205.466 152.689 205.162 153.231C204.838 153.77 204.505 154.324 204.16 154.891C203.515 156.038 202.71 157.172 201.965 158.302C200.372 160.533 198.649 162.595 197.246 164.292L197.242 164.296Z" fill="#D8E29F"/>
<path d="M186.992 177.079C186.508 175.599 186.183 173.87 186.031 172.062C185.939 171.146 185.892 170.213 185.901 169.297C185.914 168.381 185.909 167.427 186.002 166.536C186.103 165.648 186.183 164.736 186.347 163.894C186.52 163.06 186.689 162.23 186.916 161.466C187.026 161.084 187.165 160.718 187.291 160.364C187.413 160.003 187.544 159.654 187.691 159.325C187.986 158.668 188.323 158.072 188.643 157.525C188.66 157.854 188.681 158.199 188.69 158.548C188.69 158.898 188.681 159.251 188.677 159.617C188.656 160.344 188.677 161.137 188.618 161.918C188.576 162.719 188.534 163.54 188.488 164.383C188.416 165.213 188.353 166.071 188.294 166.951C188.129 168.668 187.999 170.472 187.767 172.177C187.586 173.923 187.291 175.546 187 177.079H186.992Z" fill="#D8E29F"/>
<path d="M183.786 180.13C183.293 178.868 182.969 177.377 182.763 175.746C182.666 174.936 182.615 174.111 182.615 173.293C182.615 172.471 182.615 171.621 182.699 170.82C182.737 170.417 182.788 170.018 182.851 169.632C182.906 169.238 182.961 168.843 183.037 168.465C183.176 167.697 183.399 167.011 183.601 166.316C183.812 165.634 184.073 165.01 184.368 164.451C184.637 163.872 184.941 163.35 185.278 162.906C185.257 163.498 185.231 164.114 185.206 164.763C185.168 165.413 185.097 166.074 185.05 166.781C185.025 167.134 185 167.492 184.974 167.857C184.941 168.215 184.907 168.58 184.873 168.946C184.806 169.681 184.743 170.442 184.692 171.218C184.616 171.97 184.549 172.742 184.49 173.515C184.46 173.905 184.431 174.291 184.401 174.682C184.364 175.06 184.326 175.438 184.288 175.816C184.216 176.576 184.14 177.328 184.073 178.051C183.997 178.782 183.892 179.464 183.791 180.134L183.786 180.13Z" fill="#D8E29F"/>
<path d="M180.475 182.564C180.1 181.66 179.831 180.55 179.704 179.379C179.641 178.792 179.616 178.192 179.624 177.588C179.624 176.972 179.654 176.351 179.721 175.751C179.793 175.151 179.902 174.568 180.041 174.017C180.168 173.446 180.323 172.904 180.513 172.407C180.905 171.425 181.364 170.546 181.891 169.896C181.731 171.651 181.389 173.792 181.149 176.051C181.006 177.161 180.917 178.323 180.812 179.429C180.694 180.534 180.576 181.602 180.475 182.564Z" fill="#D8E29F"/>
<path d="M190.324 173.27C189.996 171.918 189.713 170.287 189.638 168.648C189.595 167.826 189.545 166.955 189.566 166.113C189.57 165.69 189.591 165.27 189.617 164.851C189.629 164.424 189.65 164.001 189.684 163.582C189.751 162.744 189.878 161.942 189.983 161.137C190.093 160.336 190.295 159.592 190.455 158.853C190.623 158.117 190.847 157.435 191.095 156.798C191.314 156.149 191.571 155.553 191.866 155.023C192.271 157.513 192.228 160.661 191.98 163.935C191.736 167.21 191.163 170.55 190.324 173.274V173.27Z" fill="#D8E29F"/>
<path d="M193.594 168.557C193.042 166.236 192.92 163.183 193.303 160.361C193.691 157.521 194.474 154.851 195.641 153.002C195.826 155.171 195.73 157.932 195.338 160.698L195.203 161.745C195.152 162.094 195.085 162.435 195.026 162.781C194.9 163.475 194.769 164.161 194.647 164.831C194.487 165.492 194.322 166.141 194.154 166.77C194.065 167.086 193.977 167.395 193.893 167.695C193.787 167.99 193.686 168.278 193.585 168.557H193.594Z" fill="#D8E29F"/>
<path d="M196.846 164.082C196.711 163.556 196.623 162.997 196.547 162.401C196.463 161.801 196.416 161.177 196.404 160.54C196.408 159.279 196.438 157.923 196.694 156.637C196.8 155.987 196.918 155.338 197.095 154.722C197.179 154.414 197.276 154.11 197.381 153.81C197.474 153.51 197.567 153.214 197.676 152.927C197.887 152.351 198.135 151.809 198.409 151.304C198.662 150.794 198.931 150.322 199.231 149.898C199.247 150.408 199.252 150.95 199.243 151.517C199.21 152.076 199.163 152.659 199.113 153.259C199.041 154.471 198.797 155.704 198.632 156.982C198.182 159.488 197.655 162.064 196.85 164.082H196.846Z" fill="#D8E29F"/>
<path d="M203.565 146.637C202.592 148.568 201.745 151.111 200.848 153.642C200.456 154.924 199.984 156.181 199.66 157.418C199.277 158.63 198.986 159.805 198.775 160.853C199.487 160.039 200.166 159.008 200.814 157.878C201.404 156.719 202.023 155.47 202.428 154.151C203.351 151.547 203.683 148.765 203.565 146.641V146.637Z" fill="#D8E29F"/>
<path d="M200.498 157.131C198.211 161.576 194.824 167.119 190.662 172.091C188.58 174.572 186.335 176.918 184.098 179.022C181.861 181.13 179.594 182.921 177.619 184.499C179.86 183.32 182.383 181.791 184.827 179.827C187.266 177.867 189.667 175.538 191.799 172.994C196.067 167.896 199.129 161.922 200.494 157.131H200.498Z" fill="#B0C98F"/>
<path d="M127.474 169.392C133.574 172.333 138.419 176.208 141.275 179.676C144.152 183.152 145.096 186.155 143.878 187.659C142.644 189.191 139.552 189.006 135.52 187.84C131.48 186.66 126.467 184.536 121.091 181.944C115.716 179.359 111.924 177.141 109.586 174.992C109 174.462 108.512 173.928 108.112 173.402C107.707 172.884 107.4 172.37 107.181 171.861C106.742 170.846 106.675 169.856 106.966 168.931C107.256 168.007 107.884 167.235 108.874 166.663C109.371 166.38 109.957 166.142 110.639 165.965C111.318 165.796 112.084 165.69 112.952 165.644C116.394 165.48 121.365 166.454 127.474 169.392Z" fill="#547374"/>
<path d="M107.412 169.07C112.733 171.141 119.591 173.988 126.176 177.374C132.782 180.723 139.088 184.593 143.878 187.662C141.763 185.776 139.185 183.738 136.283 181.762C133.384 179.782 130.161 177.867 126.825 176.166C120.156 172.739 113.007 170.274 107.412 169.074V169.07Z" fill="#6D9B7C"/>
<path d="M187.157 157.582C183.369 159.39 180.104 161.555 177.32 163.983C174.535 166.416 172.235 169.111 170.398 172.082C168.553 175.048 167.163 178.282 166.24 181.815C165.322 185.344 164.862 189.17 164.972 193.282C169.176 193.18 173.259 191.951 176.835 189.819C180.412 187.69 183.475 184.658 185.678 181.117C187.881 177.571 189.217 173.524 189.499 169.444C189.785 165.364 189.01 161.268 187.161 157.582H187.157Z" fill="#6D9B7C"/>
<path d="M183.82 181.138C183.909 181.08 183.938 180.965 183.888 180.879C183.837 180.793 183.723 180.772 183.635 180.83C182.936 181.282 182.203 181.664 181.448 181.96C180.682 182.247 179.898 182.457 179.11 182.588C177.543 182.851 175.913 182.757 174.388 182.354L175.281 181.113L176.14 179.852C176.722 179.018 177.261 178.155 177.813 177.3C179.523 177.399 181.221 177.111 182.86 176.516C184.469 175.903 186.015 174.967 187.283 173.726C187.359 173.652 187.363 173.537 187.296 173.463C187.228 173.389 187.111 173.389 187.035 173.463C185.826 174.642 184.364 175.538 182.835 176.138C181.276 176.721 179.654 177.009 178.032 176.955C179.78 174.153 181.39 171.269 182.847 168.315C182.847 168.315 182.856 168.315 182.86 168.315C183.892 168.159 184.895 167.818 185.805 167.308C186.723 166.807 187.57 166.145 188.261 165.344C188.328 165.266 188.324 165.151 188.248 165.085C188.172 165.02 188.058 165.028 187.991 165.106C187.667 165.472 187.321 165.813 186.946 166.117C186.563 166.421 186.163 166.692 185.741 166.93C184.899 167.403 184.001 167.744 183.049 167.916C184.136 165.656 185.173 163.368 186.078 161.026C186.116 160.936 186.07 160.833 185.973 160.796C185.88 160.763 185.775 160.808 185.737 160.899C184.692 163.569 183.521 166.195 182.228 168.758C181.777 167.929 181.465 167.053 181.267 166.149C181.065 165.246 181.002 164.329 181.078 163.43C181.086 163.335 181.01 163.249 180.909 163.241C180.808 163.232 180.724 163.302 180.72 163.397C180.631 164.366 180.711 165.361 180.939 166.338C181.149 167.304 181.512 168.257 182.021 169.145C182.021 169.145 182.026 169.149 182.03 169.153C180.846 171.454 179.607 173.734 178.238 175.936C176.633 173.188 175.955 169.995 176.292 167.037C176.305 166.947 176.233 166.86 176.132 166.844C176.035 166.827 175.942 166.889 175.934 166.984C175.593 170.077 176.3 173.414 178.028 176.286C176.675 178.439 175.277 180.563 173.769 182.609C171.97 180.053 171.152 176.976 171.367 174.063C171.376 173.972 171.3 173.886 171.203 173.874C171.106 173.861 171.022 173.923 171.013 174.018C170.912 175.542 171.047 177.079 171.489 178.607C171.902 180.115 172.593 181.59 173.545 182.917L171.734 185.3C171.102 186.072 170.491 186.865 169.846 187.626C168.688 186.089 167.993 184.207 167.917 182.362C167.913 182.268 167.828 182.19 167.732 182.19C167.635 182.19 167.555 182.264 167.559 182.358C167.651 184.31 168.372 186.29 169.61 187.909C168.519 189.211 167.386 190.481 166.223 191.722C166.156 191.792 166.16 191.907 166.236 191.972C166.312 192.038 166.426 192.034 166.493 191.96C167.226 191.2 167.908 190.403 168.616 189.622C169.303 188.825 169.99 188.028 170.659 187.219C172.53 188.065 174.725 188.283 176.785 187.704C176.886 187.675 176.945 187.576 176.924 187.478C176.903 187.379 176.802 187.326 176.701 187.35C174.759 187.905 172.677 187.708 170.895 186.927C172.033 185.534 173.128 184.113 174.186 182.662C177.358 183.558 180.935 183.061 183.846 181.138H183.82Z" fill="#B0C98F"/>
<path d="M145.513 167.66C148.041 170.273 150.105 173.071 151.681 175.779C153.265 178.487 154.369 181.104 154.992 183.421C156.256 188.068 155.712 191.376 153.855 192.251C151.95 193.151 149.128 191.589 145.825 188.836C144.178 187.452 142.375 185.771 140.466 183.898C138.562 182.02 136.557 179.945 134.45 177.768C132.348 175.586 130.549 173.684 129.096 171.937C127.617 170.22 126.488 168.659 125.675 167.245C125.266 166.543 124.955 165.861 124.723 165.22C124.483 164.587 124.335 163.979 124.272 163.404C124.15 162.253 124.373 161.226 124.946 160.372C125.519 159.517 126.387 158.917 127.571 158.629C128.165 158.486 128.835 158.424 129.589 158.449C130.334 158.486 131.152 158.617 132.053 158.843C133.852 159.299 135.921 160.207 138.221 161.625C140.491 163.067 142.985 165.035 145.509 167.656L145.513 167.66Z" fill="#6D9B7C"/>
<path d="M125.355 160.646C130.128 164.262 136.043 169.324 141.195 175.084C143.778 177.952 146.192 180.968 148.319 183.91C150.451 186.852 152.296 189.719 153.855 192.25C152.738 189.51 151.201 186.433 149.246 183.318C147.295 180.204 144.936 177.057 142.303 174.135C137.058 168.264 130.667 163.457 125.355 160.646Z" fill="#B0C98F"/>
<path d="M142.248 168.91C142.88 167.48 143.373 165.775 143.676 163.955C143.845 163.039 143.958 162.094 144.017 161.157C144.072 160.22 144.123 159.251 144.085 158.322C144.039 157.398 143.988 156.461 143.862 155.573C143.723 154.694 143.575 153.827 143.369 153.018C143.268 152.611 143.141 152.225 143.015 151.843C142.897 151.461 142.766 151.091 142.627 150.738C142.341 150.035 142.008 149.394 141.679 148.811C141.658 149.156 141.637 149.513 141.629 149.879C141.629 150.24 141.625 150.614 141.62 150.992C141.625 151.752 141.599 152.566 141.629 153.379C141.646 154.205 141.658 155.056 141.675 155.923C141.709 156.781 141.734 157.665 141.747 158.565C141.814 160.335 141.835 162.168 141.924 163.914C141.974 165.685 142.109 167.353 142.252 168.91H142.248Z" fill="#D8E29F"/>
<path d="M145.109 172.304C145.753 171.1 146.263 169.642 146.63 168.023C146.811 167.218 146.941 166.388 147.021 165.558C147.101 164.724 147.16 163.861 147.148 163.035C147.144 162.62 147.123 162.209 147.089 161.802C147.064 161.392 147.03 160.985 146.979 160.586C146.887 159.785 146.71 159.046 146.537 158.318C146.356 157.595 146.124 156.925 145.85 156.313C145.597 155.689 145.307 155.126 144.982 154.633C144.982 155.245 144.982 155.89 144.982 156.56C144.999 157.234 145.016 157.932 145.037 158.655C145.046 160.122 145.126 161.63 145.105 163.22C145.117 163.996 145.121 164.785 145.113 165.574C145.109 165.969 145.1 166.367 145.096 166.758C145.096 167.144 145.096 167.53 145.096 167.916C145.088 168.689 145.084 169.449 145.075 170.184C145.071 170.924 145.092 171.622 145.109 172.3V172.304Z" fill="#D8E29F"/>
<path d="M148.091 175.143C148.588 174.292 149.014 173.224 149.288 172.065C149.427 171.486 149.528 170.882 149.595 170.274C149.671 169.653 149.709 169.029 149.705 168.413C149.701 167.796 149.65 167.192 149.566 166.609C149.494 166.013 149.385 165.442 149.237 164.912C148.93 163.856 148.529 162.907 148.045 162.18C148.074 163.992 148.23 166.219 148.23 168.528C148.251 169.67 148.205 170.845 148.176 171.967C148.146 173.088 148.121 174.169 148.095 175.143H148.091Z" fill="#D8E29F"/>
<path d="M139.261 164.801C139.708 163.47 140.099 161.851 140.28 160.191C140.373 159.357 140.466 158.482 140.491 157.623C140.508 157.192 140.508 156.76 140.504 156.329C140.508 155.893 140.504 155.458 140.483 155.026C140.39 153.313 140.184 151.629 139.817 150.112C139.653 149.344 139.434 148.629 139.185 147.955C138.962 147.277 138.696 146.649 138.397 146.086C138.01 148.67 138.014 151.912 138.145 155.257C138.275 158.601 138.637 162.011 139.257 164.801H139.261Z" fill="#D8E29F"/>
<path d="M136.304 159.85C136.999 157.549 137.248 154.459 136.915 151.55C136.586 148.633 135.765 145.856 134.564 143.949C134.404 146.188 134.522 149.007 134.85 151.83C134.981 153.259 135.217 154.661 135.423 156.041C135.554 156.715 135.689 157.38 135.828 158.021C135.904 158.342 135.975 158.658 136.043 158.966C136.131 159.27 136.215 159.566 136.3 159.85H136.304Z" fill="#D8E29F"/>
<path d="M133.241 155.204C133.397 154.682 133.507 154.119 133.595 153.519C133.692 152.919 133.755 152.286 133.781 151.641C133.806 150.36 133.781 148.987 133.528 147.668C133.136 145.002 132.083 142.512 130.865 140.803C130.865 141.325 130.878 141.879 130.903 142.45C130.949 143.021 131.004 143.613 131.067 144.221C131.169 145.45 131.404 146.707 131.577 147.997C132.02 150.54 132.504 153.141 133.233 155.195L133.241 155.204Z" fill="#D8E29F"/>
<path d="M142.202 168.947C140.668 169.255 138.811 169.325 136.826 169.008C135.849 168.844 134.834 168.589 133.814 168.244C132.79 167.903 131.809 167.439 130.819 166.913C129.825 166.391 128.915 165.75 128.034 165.06C127.141 164.378 126.349 163.609 125.624 162.816C125.262 162.418 124.908 162.015 124.592 161.604C124.281 161.189 123.99 160.766 123.72 160.347C123.177 159.509 122.722 158.679 122.397 157.861C122.726 158.145 123.059 158.441 123.4 158.741C123.754 159.032 124.112 159.328 124.479 159.632C125.22 160.232 125.949 160.857 126.77 161.44C127.579 162.032 128.397 162.619 129.248 163.178C130.111 163.729 130.992 164.259 131.868 164.76C133.667 165.734 135.466 166.588 137.248 167.258C138.988 167.96 140.723 168.458 142.206 168.938L142.202 168.947Z" fill="#D8E29F"/>
<path d="M145.273 172.161C144.005 172.687 142.396 173.065 140.664 173.089C139.796 173.11 138.882 173.048 137.951 172.913C137.02 172.773 136.106 172.531 135.179 172.218C134.72 172.062 134.261 171.886 133.81 171.688C133.367 171.487 132.934 171.265 132.508 171.027C131.665 170.55 130.823 170.028 130.098 169.429C129.365 168.837 128.695 168.2 128.101 167.555C127.528 166.894 127.036 166.22 126.627 165.566C127.272 165.965 127.95 166.384 128.658 166.824C129.365 167.247 130.128 167.658 130.89 168.06C132.403 168.882 134.096 169.581 135.739 170.193C136.586 170.476 137.433 170.731 138.263 170.957C138.68 171.068 139.093 171.175 139.501 171.273C139.918 171.364 140.331 171.446 140.736 171.524C141.549 171.676 142.337 171.803 143.091 171.914C143.845 172.021 144.59 172.091 145.277 172.165L145.273 172.161Z" fill="#D8E29F"/>
<path d="M148.091 175.147C147.236 175.653 146.149 176.072 144.915 176.298C144.3 176.413 143.643 176.479 142.973 176.491C142.311 176.491 141.629 176.442 140.951 176.335C140.268 176.228 139.586 176.064 138.92 175.85C138.271 175.624 137.639 175.353 137.045 175.041C135.841 174.432 134.846 173.631 134.092 172.83C136.106 173.598 138.592 174.42 141.094 174.819C142.358 175.016 143.592 175.131 144.776 175.172C145.972 175.201 147.093 175.176 148.087 175.143L148.091 175.147Z" fill="#D8E29F"/>
<path d="M138.903 165.052C137.42 165.064 135.777 164.764 134.025 164.189C133.148 163.902 132.297 163.511 131.425 163.068C130.991 162.842 130.558 162.603 130.132 162.344C129.715 162.081 129.306 161.798 128.898 161.502C127.259 160.331 125.805 158.881 124.622 157.348C124.044 156.576 123.522 155.791 123.08 155.01C122.658 154.222 122.309 153.441 122.031 152.697C124.373 154.801 127.225 157.361 130.229 159.555C133.212 161.782 136.409 163.565 138.903 165.052Z" fill="#D8E29F"/>
<path d="M135.348 160.417C132.9 159.982 129.934 158.4 127.579 156.004C125.199 153.634 123.619 150.491 123.13 147.947C124.883 149.891 126.855 152.335 129.062 154.533C130.119 155.659 131.286 156.691 132.331 157.689C132.875 158.178 133.405 158.65 133.911 159.106C134.16 159.337 134.404 159.562 134.64 159.78C134.884 159.998 135.12 160.212 135.352 160.417H135.348Z" fill="#D8E29F"/>
<path d="M132.837 155.404C132.31 155.223 131.754 154.981 131.202 154.673C130.658 154.36 130.111 153.991 129.567 153.567C128.459 152.729 127.478 151.64 126.602 150.432C124.916 147.992 123.96 145.042 124.057 142.766C124.365 143.25 124.672 143.764 124.992 144.298C125.325 144.828 125.666 145.375 126.016 145.933C126.682 147.059 127.474 148.193 128.228 149.323C129.803 151.558 131.493 153.658 132.837 155.412V155.404Z" fill="#D8E29F"/>
<path d="M126.281 137.676C126.256 139.821 126.694 142.586 127.646 145.195C128.08 146.509 128.687 147.767 129.285 148.929C129.93 150.076 130.599 151.111 131.299 151.949C131.105 150.889 130.827 149.702 130.448 148.473C130.119 147.228 129.652 145.955 129.23 144.665C128.299 142.113 127.347 139.574 126.286 137.676H126.281Z" fill="#D8E29F"/>
<path d="M129.702 148.145C131.08 152.964 133.932 159.012 137.803 164.419C139.737 167.119 141.902 169.662 144.106 171.885C146.309 174.112 148.597 175.977 150.648 177.472C148.925 175.615 146.924 173.516 144.931 171.162C142.939 168.807 140.917 166.243 139.017 163.593C135.221 158.289 131.998 152.611 129.702 148.141V148.145Z" fill="#B0C98F"/>
<path d="M150.994 141.402C148.492 146.583 146.924 151.756 146.162 156.818C145.399 161.884 145.446 166.843 146.267 171.679C147.08 176.515 148.664 181.228 151.053 185.788C153.442 190.345 156.626 194.753 160.696 198.879C164.917 194.918 167.959 189.979 169.669 184.585C171.384 179.194 171.763 173.364 170.815 167.739C169.863 162.114 167.592 156.711 164.197 152.138C160.806 147.561 156.298 143.835 151.002 141.402H150.994Z" fill="#B0C98F"/>
<path d="M168.869 169.391C168.911 169.256 168.831 169.108 168.7 169.063C168.566 169.018 168.427 169.096 168.384 169.235C168.064 170.324 167.647 171.364 167.125 172.337C166.586 173.315 165.958 174.227 165.246 175.057C163.839 176.721 162.044 178.073 160.068 179.014L159.841 176.919L159.563 174.827C159.39 173.43 159.163 172.042 158.943 170.653C160.839 169.244 162.377 167.452 163.565 165.386C164.711 163.327 165.49 160.997 165.713 158.59C165.726 158.446 165.625 158.319 165.486 158.298C165.347 158.282 165.221 158.38 165.208 158.524C164.993 160.817 164.26 163.035 163.19 165.003C162.078 166.984 160.62 168.714 158.855 170.09C158.105 165.583 157.157 161.108 156.02 156.679C156.02 156.679 156.028 156.679 156.032 156.671C156.508 156.141 156.942 155.566 157.322 154.958C157.692 154.354 158.008 153.713 158.274 153.051C158.804 151.72 159.112 150.29 159.137 148.84C159.137 148.7 159.032 148.581 158.889 148.577C158.75 148.573 158.632 148.68 158.628 148.819C158.611 149.489 158.539 150.151 158.417 150.8C158.282 151.453 158.092 152.09 157.857 152.706C157.381 153.939 156.728 155.081 155.864 156.088C154.971 152.723 154.01 149.37 152.885 146.067C152.843 145.935 152.7 145.865 152.569 145.906C152.435 145.947 152.363 146.087 152.405 146.219C153.05 148.109 153.618 150.019 154.2 151.925C154.739 153.844 155.283 155.763 155.754 157.702C154.516 157.205 153.378 156.535 152.346 155.738C151.306 154.941 150.408 154.009 149.671 152.965C149.591 152.858 149.435 152.829 149.321 152.907C149.208 152.981 149.178 153.133 149.254 153.24C150.046 154.366 151.032 155.373 152.165 156.227C153.273 157.086 154.533 157.789 155.889 158.298C155.893 158.298 155.902 158.298 155.906 158.298C156.749 161.79 157.524 165.299 158.122 168.841C153.875 167.345 150.198 164.531 147.838 161.039C147.767 160.928 147.611 160.899 147.493 160.969C147.375 161.039 147.337 161.186 147.409 161.293C149.89 164.938 153.732 167.888 158.223 169.4C158.796 172.867 159.302 176.347 159.647 179.848C157.498 179.318 155.497 178.414 153.711 177.239C151.908 176.064 150.379 174.609 149.119 172.954C149.043 172.847 148.883 172.826 148.77 172.896C148.656 172.97 148.622 173.114 148.702 173.221C150.012 174.946 151.601 176.458 153.496 177.679C155.346 178.903 157.456 179.836 159.702 180.374L160.056 184.491C160.136 185.867 160.245 187.24 160.296 188.616C157.629 188.069 155.122 186.734 153.29 184.865C153.197 184.77 153.037 184.766 152.932 184.852C152.826 184.943 152.822 185.091 152.915 185.185C154.861 187.157 157.494 188.567 160.317 189.125C160.422 191.467 160.464 193.809 160.46 196.151C160.46 196.287 160.57 196.398 160.713 196.398C160.852 196.398 160.966 196.287 160.966 196.151C160.987 194.701 160.932 193.255 160.919 191.804C160.869 190.358 160.822 188.908 160.747 187.461C163.502 186.652 165.979 184.906 167.588 182.469C167.664 182.354 167.635 182.19 167.521 182.112C167.407 182.034 167.247 182.063 167.171 182.178C165.659 184.483 163.312 186.151 160.717 186.948C160.578 184.474 160.38 182.005 160.123 179.544C164.29 177.642 167.571 173.956 168.869 169.396V169.391Z" fill="#D8E29F"/>
</g>
<path d="M288.293 121.454C285.483 116.815 278.865 115.43 273.629 117.152C268.392 118.869 264.369 122.994 261.133 127.358C249.27 143.378 245.613 164.866 251.372 183.795H259.444C259.17 175.52 262.983 167.385 267.882 160.507C273.3 152.897 280.095 146.278 285.319 138.542C287.038 135.994 288.601 133.287 289.33 130.32C290.059 127.354 289.886 124.079 288.293 121.45V121.454Z" fill="#B0C98F"/>
<path d="M259.246 146.928C264.019 136.78 272.268 128.727 278.92 122.843C279.093 122.691 279.105 122.432 278.949 122.264C278.794 122.096 278.528 122.083 278.355 122.235C271.644 128.172 263.32 136.303 258.484 146.587C253.731 156.695 252.24 169.201 254.039 183.8H254.89C253.091 169.317 254.553 156.921 259.25 146.932L259.246 146.928Z" fill="#D8E29F"/>
<path d="M265.927 183.511C265.847 179.904 268.619 176.506 271.568 174.324C274.517 172.142 277.955 170.655 280.887 168.453C283.819 166.25 286.309 162.996 286.145 159.393C285.972 155.654 282.762 152.425 279.025 151.57C275.288 150.716 271.257 151.981 268.278 154.339C265.3 156.698 263.273 160.038 261.917 163.539C259.562 169.607 259.132 177.18 260.577 183.511H265.932H265.927Z" fill="#6D9B7C"/>
<path d="M262.583 174.103C262.62 173.897 262.671 173.7 262.713 173.499C262.713 173.453 262.722 173.412 262.743 173.371C262.882 172.722 263.038 172.089 263.21 171.469C262.709 169.632 262.709 165.651 262.709 165.478C262.709 165.318 262.84 165.191 263.004 165.191C263.164 165.191 263.299 165.318 263.299 165.478C263.299 165.511 263.299 168.334 263.577 170.29C264.327 168.038 265.329 166 266.593 164.209C266.593 164.209 266.593 164.205 266.597 164.201C266.833 163.868 267.073 163.535 267.326 163.219C267.461 163.05 267.6 162.886 267.735 162.726C267.726 161.07 268.493 157.471 268.527 157.315C268.561 157.158 268.716 157.06 268.872 157.093C269.032 157.126 269.133 157.278 269.1 157.43C269.091 157.462 268.493 160.26 268.35 162.027C270.886 159.324 274.067 157.499 277.445 156.842C277.605 156.809 277.757 156.912 277.791 157.068C277.824 157.224 277.719 157.372 277.559 157.405C273.843 158.128 270.372 160.318 267.785 163.568C267.731 163.638 267.68 163.712 267.625 163.782C272.044 162.422 275.124 162.376 278.103 162.335H278.381C278.381 162.335 278.381 162.335 278.385 162.335C278.545 162.335 278.675 162.459 278.68 162.619C278.68 162.775 278.553 162.906 278.389 162.911H278.111C275.006 162.96 271.792 163.005 267.04 164.579C265.414 166.908 264.213 169.653 263.467 172.771C266.382 170.766 271.981 169.871 272.234 169.83C272.394 169.805 272.546 169.912 272.571 170.068C272.596 170.224 272.487 170.372 272.327 170.397C272.264 170.405 265.822 171.436 263.278 173.642C263.24 173.831 263.193 174.02 263.155 174.214C262.641 176.946 262.443 179.986 262.553 183.511C262.557 183.672 262.431 183.803 262.267 183.807H262.258C262.102 183.807 261.972 183.684 261.963 183.532C261.854 179.966 262.052 176.888 262.578 174.115L262.583 174.103Z" fill="#B0C98F"/>
<path d="M64.7066 183.479C65.7092 178.031 64.8624 172.024 61.9008 167.304C58.9561 162.611 54.3978 159.123 49.8437 155.877C45.2897 152.631 40.5713 149.447 37.0831 145.121C33.5991 140.794 31.4843 135.026 32.9967 129.726C34.6692 123.858 40.6851 119.721 46.9116 119.203C53.134 118.69 59.3394 121.381 63.9146 125.535C71.3291 132.269 74.6699 142.426 75.0533 152.303C75.4366 162.176 72.7741 173.845 70.5329 183.479H64.7066Z" fill="#B0C98F"/>
<path d="M65.4268 151.896C65.4268 151.896 65.4142 151.859 65.4058 151.842C65.2667 151.452 65.1277 151.062 64.9803 150.68C64.8202 150.269 64.6601 149.862 64.4916 149.455C65.6206 144.985 66.7286 136.468 66.7412 136.382C66.7707 136.156 66.6064 135.95 66.3747 135.921C66.1472 135.897 65.9324 136.053 65.9029 136.279C65.8944 136.357 64.955 143.576 63.9313 148.165C62.1029 144.089 59.7648 140.346 57.0391 137.055C57.452 132.203 56.4282 126.254 56.4156 126.196C56.3777 125.974 56.1586 125.822 55.9311 125.859C55.7036 125.896 55.5478 126.11 55.5857 126.332C55.5941 126.389 56.4872 131.57 56.2555 136.135C55.4214 135.182 54.5535 134.266 53.652 133.399C53.6183 133.349 53.5762 133.308 53.5214 133.275C49.3296 129.257 44.4765 126.196 39.2694 124.417C39.0504 124.339 38.8102 124.454 38.7344 124.668C38.6586 124.881 38.7723 125.116 38.9914 125.19C43.6255 126.775 47.9731 129.401 51.8152 132.828C46.8272 131.817 39.7413 132.072 39.4127 132.084C39.181 132.092 38.9998 132.285 39.0082 132.511C39.0167 132.737 39.2147 132.922 39.4464 132.906C39.5348 132.906 48.2638 132.589 53.058 133.974C57.7216 138.481 61.5468 144.209 64.0872 150.704C59.8406 147.5 53.1886 145.499 48.9168 145.437C48.6809 145.449 48.4913 145.614 48.4913 145.844C48.4913 146.07 48.6724 146.259 48.9084 146.259C53.4498 146.32 60.8349 148.74 64.6643 152.249C67.845 161.169 68.9319 171.392 67.9798 183.446C67.9629 183.672 68.1357 183.87 68.3674 183.886C68.38 183.886 68.3884 183.886 68.4011 183.886C68.6201 183.886 68.8055 183.722 68.8224 183.508C69.7871 171.297 68.6749 160.939 65.431 151.892L65.4268 151.896Z" fill="#D8E29F"/>
<path d="M61.4583 183.443C61.5257 180.349 59.1496 177.436 56.622 175.563C54.0943 173.693 51.1453 172.416 48.6302 170.526C46.1194 168.636 43.9793 165.846 44.1225 162.756C44.27 159.551 47.0209 156.782 50.2269 156.047C53.4328 155.311 56.8874 156.4 59.4445 158.421C62.0017 160.443 63.7374 163.311 64.9001 166.31C66.9181 171.512 67.2888 178.008 66.046 183.439H61.4541L61.4583 183.443Z" fill="#547374"/>
<path d="M64.3272 175.373C64.2935 175.196 64.2514 175.028 64.2177 174.855C64.2177 174.818 64.2092 174.781 64.1924 174.745C64.0744 174.19 63.9396 173.643 63.788 173.113C64.2177 171.54 64.2177 168.121 64.2177 167.978C64.2177 167.842 64.1039 167.731 63.9649 167.731C63.8259 167.731 63.7121 167.842 63.7121 167.978C63.7121 168.006 63.7121 170.426 63.472 172.103C62.8274 170.172 61.968 168.425 60.8853 166.885C60.8853 166.885 60.8853 166.885 60.8811 166.88C60.6789 166.593 60.4725 166.309 60.2576 166.038C60.1439 165.894 60.0259 165.755 59.9037 165.615C59.9122 164.193 59.2507 161.108 59.2255 160.976C59.196 160.845 59.0612 160.759 58.9264 160.787C58.7916 160.816 58.7031 160.943 58.7326 161.079C58.7368 161.108 59.2507 163.507 59.3771 165.023C57.2033 162.702 54.4734 161.141 51.575 160.578C51.4402 160.549 51.3054 160.635 51.2801 160.771C51.2548 160.902 51.3433 161.034 51.4781 161.059C54.663 161.679 57.6415 163.557 59.8616 166.342C59.9079 166.4 59.9501 166.466 59.9964 166.527C56.2049 165.36 53.5677 165.323 51.0105 165.286H50.7703C50.6313 165.286 50.5218 165.393 50.5176 165.529C50.5176 165.664 50.6271 165.775 50.7661 165.779H51.0063C53.6688 165.82 56.4239 165.862 60.502 167.209C61.8964 169.206 62.9243 171.56 63.5647 174.235C61.0623 172.518 56.2639 171.745 56.0448 171.712C55.9058 171.692 55.7794 171.782 55.7583 171.918C55.7373 172.053 55.8299 172.177 55.969 172.197C56.0237 172.205 61.5467 173.089 63.729 174.983C63.7627 175.147 63.8048 175.307 63.8343 175.472C64.2766 177.814 64.4452 180.423 64.3525 183.443C64.3525 183.578 64.4578 183.693 64.5968 183.697H64.6052C64.74 183.697 64.8538 183.59 64.858 183.459C64.9549 180.402 64.7822 177.76 64.3314 175.381L64.3272 175.373Z" fill="#6D9B7C"/>
<path d="M281.004 184.49H44.9984C44.4462 184.49 44.001 184.267 44.001 183.99C44.001 183.713 44.4462 183.49 44.9984 183.49H281.004C281.556 183.49 282.001 183.713 282.001 183.99C282.001 184.267 281.556 184.49 281.004 184.49Z" fill="#2E2854"/>
<path d="M197.941 50.748C192.941 60.4034 184.562 58.1313 181.663 50.748V61.4306H197.941V50.748Z" fill="#F9DCDF"/>
<path d="M201.905 55.7072L201.754 52.8105L198.009 57.6547L189.806 62.8152L181.604 57.6547L177.859 52.8105L177.707 55.7072C177.315 63.1274 174.96 70.3176 170.865 76.5833L170.769 76.7354H208.848L208.751 76.5833C204.661 70.3176 202.302 63.1233 201.91 55.7072H201.905Z" fill="#F9DCDF"/>
<path d="M174.556 56.8944C174.809 57.8681 175.668 58.5214 176.696 58.5214H202.912C203.94 58.5214 204.8 57.8681 205.052 56.8944C205.305 55.9206 204.867 54.9468 203.961 54.4702L190.244 47.2225V44.6259C190.244 43.9151 189.65 43.3398 188.926 43.3398C187.75 43.3398 186.786 42.4441 186.714 41.3143C186.714 41.2691 186.714 39.868 186.714 39.8228C186.714 38.6313 187.708 37.6616 188.93 37.6616H191.706C191.146 37.1275 190.383 36.7988 189.545 36.7988H188.93C187.22 36.7988 185.834 38.1547 185.834 39.8228C185.834 39.868 185.834 41.2732 185.834 41.3184C185.905 42.9208 187.266 44.2068 188.93 44.2068C189.17 44.2068 189.368 44.3999 189.368 44.6341V47.2308L175.651 54.4785C174.745 54.9551 174.307 55.9288 174.56 56.9026L174.556 56.8944ZM176.064 55.2262L189.802 47.9662L203.54 55.2262C204.21 55.5796 204.311 56.2287 204.193 56.6807C204.075 57.1285 203.671 57.6545 202.908 57.6545H176.692C175.929 57.6545 175.525 57.1285 175.407 56.6807C175.289 56.2329 175.39 55.5796 176.06 55.2262H176.064Z" fill="#8D415F"/>
<path d="M208.844 76.7354C198.523 69.9561 198.662 63.9164 201.754 52.8106L197.945 50.748L196.779 55.1936C196.041 58.0081 193.438 59.9802 190.459 59.9802H189.158C186.179 59.9802 183.576 58.0122 182.838 55.1936L181.671 50.748L177.863 52.8106C180.951 63.9122 181.094 69.9561 170.773 76.7354L171.788 99.5221C172.024 104.798 171.843 110.086 171.249 115.336L170.769 119.568H208.848L208.368 115.336C207.774 110.086 207.597 104.798 207.829 99.5221L208.844 76.7354Z" fill="#CC85AF"/>
<path d="M195.822 72.7424C195.599 74.7392 194.664 76.6497 193.24 78.1001C193 78.3466 192.743 78.5808 192.477 78.7945C191.057 79.9367 189.334 80.6475 187.654 81.3747C185.973 82.102 184.266 82.8826 182.944 84.1275C181.621 85.3766 180.723 87.1885 181.044 88.9552C181.343 90.5905 182.927 92.008 184.591 91.9135C186.672 85.4957 192.856 86.49 194.226 79.5957C193.775 86.1654 188.218 86.1736 185.16 92.9776C184.401 94.6663 183.799 96.7658 183.462 99.494C184.582 100.423 185.871 100.583 185.871 100.583C185.509 98.8941 185.526 96.4946 186.065 94.428C186.887 95.2949 188.079 95.903 189.254 96.0345C191.403 96.2769 193.547 95.1593 194.933 93.5405C196.319 91.9176 197.044 89.855 197.486 87.7884C198.548 82.8415 197.655 77.4674 195.822 72.7383V72.7424Z" fill="#F9DCDF"/>
<path d="M193.408 66.7385L192.49 64.2486C192.414 64.0473 192.237 63.8912 192.022 63.846L188.892 63.1475C188.677 63.0982 188.45 63.1599 188.294 63.3119L186.356 65.1649C186.267 65.2512 186.204 65.358 186.179 65.4771L184.578 72.2975C184.498 72.6386 184.717 72.9796 185.067 73.0576L191.049 74.393C191.399 74.471 191.748 74.2574 191.828 73.9164L193.429 67.096C193.459 66.9768 193.45 66.8535 193.408 66.7385ZM190.029 65.3292C189.671 65.2512 189.448 64.9019 189.528 64.5527C189.608 64.2035 189.966 63.9857 190.324 64.0638C190.682 64.1418 190.906 64.4911 190.826 64.8403C190.746 65.1895 190.387 65.4073 190.029 65.3292Z" fill="white"/>
<path d="M190.278 67.1071L189.064 66.8359L189.494 68.1918L190.707 68.463L190.278 67.1071Z" fill="#547374"/>
<path d="M188.947 68.4389L190.227 67.0954L189.014 66.8242L188.024 67.8637L187.653 67.6336L187.834 68.8539L189.313 68.6649L188.947 68.4389Z" fill="#6D9B7C"/>
<path d="M186.031 69.9555L186.398 71.1142L187.388 70.0747L187.021 68.916L186.031 69.9555Z" fill="#547374"/>
<path d="M187.881 70.4154L186.048 70.0045L186.415 71.1673L187.83 71.4836L187.814 71.9068L188.804 71.1467L187.902 69.9922L187.881 70.4154Z" fill="#6D9B7C"/>
<path d="M190.682 72.1191L191.533 71.2282L190.113 70.9121L189.267 71.803L190.682 72.1191Z" fill="#547374"/>
<path d="M190.168 70.3239L190.72 72.0783L191.567 71.1908L191.142 69.8308L191.529 69.6377L190.354 69.1816L189.781 70.5211L190.168 70.3239Z" fill="#6D9B7C"/>
<path d="M190.164 64.5852C190.126 64.6057 190.084 64.6181 190.038 64.6222C189.511 64.6345 189.111 64.1825 189.027 63.7388C188.959 63.3813 189.044 62.991 189.28 62.5432C189.347 62.4199 189.419 62.3008 189.486 62.1857C189.6 61.9967 189.709 61.8159 189.785 61.6269C190.013 61.0764 189.966 60.4108 189.663 59.8972C189.587 59.7698 189.634 59.6096 189.764 59.5356C189.895 59.4617 190.059 59.5069 190.135 59.6342C190.522 60.2957 190.581 61.1175 190.287 61.8242C190.194 62.0501 190.072 62.2556 189.949 62.4528C189.882 62.5678 189.815 62.6746 189.756 62.7856C189.575 63.1225 189.511 63.4019 189.553 63.6402C189.596 63.8621 189.789 64.0962 190.017 64.0921C190.164 64.0921 190.291 64.2031 190.295 64.351C190.295 64.4496 190.244 64.54 190.16 64.5852H190.164Z" fill="#B0C98F"/>
<path d="M150.602 50.748C154.781 51.9108 165.718 51.7752 167.727 50.748L161.092 74.8865V113.681H157.237V74.8865L150.602 50.748Z" fill="#495375"/>
<path d="M143.916 56.8944C144.169 57.8681 145.028 58.5214 146.056 58.5214H172.273C173.301 58.5214 174.16 57.8681 174.413 56.8944C174.666 55.9206 174.227 54.9468 173.322 54.4702L159.605 47.2225V44.6259C159.605 43.9151 159.011 43.3398 158.286 43.3398C157.111 43.3398 156.146 42.4441 156.074 41.3143C156.074 41.2691 156.074 39.868 156.074 39.8228C156.074 38.6313 157.069 37.6616 158.29 37.6616H161.067C160.506 37.1275 159.744 36.7988 158.905 36.7988H158.29C156.58 36.7988 155.194 38.1547 155.194 39.8228C155.194 39.868 155.194 41.2732 155.194 41.3184C155.266 42.9208 156.626 44.2068 158.29 44.2068C158.53 44.2068 158.728 44.3999 158.728 44.6341V47.2308L145.012 54.4785C144.106 54.9551 143.668 55.9288 143.92 56.9026L143.916 56.8944ZM145.424 55.2262L159.162 47.9662L172.9 55.2262C173.57 55.5796 173.671 56.2287 173.553 56.6807C173.435 57.1327 173.031 57.6545 172.268 57.6545H146.052C145.29 57.6545 144.885 57.1285 144.767 56.6807C144.649 56.2329 144.75 55.5796 145.42 55.2262H145.424Z" fill="#8D415F"/>
<path d="M157.237 74.8865L150.602 50.748L139.923 56.7344C138.886 57.3137 138.191 58.3368 138.048 59.4913L131.539 111.556L140.386 112.904L144.388 76.53L141.86 115.916L157.237 116.442V74.8865Z" fill="#797C99"/>
<path d="M150.602 50.7483L146.899 59.1669C146.511 60.0503 146.979 61.0692 147.91 61.3733L150.602 62.2525L148.171 67.2446C147.813 67.98 148.062 68.8593 148.753 69.3112L157.237 74.8826L150.602 50.7441V50.7483Z" fill="#99A3B0"/>
<path d="M139.543 58.5176L144.388 75.3303C142.914 63.2795 141.578 59.5776 139.543 58.5176Z" fill="#495375"/>
<path d="M131.539 111.557L138.162 111.964C138.823 112.005 139.404 111.541 139.493 110.9L140.024 107.099C140.112 106.479 139.708 105.895 139.084 105.739L134.416 104.572L141.212 105.386L140.386 112.905L131.539 111.557Z" fill="#495375"/>
<path d="M134.328 108.776C134.835 108.776 135.246 108.375 135.246 107.88C135.246 107.385 134.835 106.984 134.328 106.984C133.821 106.984 133.41 107.385 133.41 107.88C133.41 108.375 133.821 108.776 134.328 108.776Z" fill="#99A3B0"/>
<path d="M161.092 74.8865L167.727 50.748L178.406 56.7344C179.443 57.3137 180.138 58.3368 180.281 59.4913L186.79 111.556L177.943 112.904L173.941 76.53L176.469 115.916L161.092 116.442V74.8865Z" fill="#797C99"/>
<path d="M167.727 50.7483L171.43 59.1669C171.818 60.0503 171.35 61.0692 170.419 61.3733L167.727 62.2525L170.158 67.2446C170.516 67.98 170.267 68.8593 169.576 69.3112L161.092 74.8826L167.727 50.7441V50.7483Z" fill="#99A3B0"/>
<path d="M178.786 58.5176L173.941 75.3303C175.415 63.2795 176.751 59.5776 178.786 58.5176Z" fill="#495375"/>
<path d="M186.79 111.557L180.167 111.964C179.506 112.005 178.924 111.541 178.836 110.9L178.305 107.099C178.217 106.479 178.621 105.895 179.245 105.739L183.912 104.572L177.117 105.386L177.943 112.905L186.79 111.557Z" fill="#495375"/>
<path d="M183.083 107.88C183.083 108.373 183.495 108.776 184.001 108.776C184.506 108.776 184.919 108.373 184.919 107.88C184.919 107.387 184.506 106.984 184.001 106.984C183.495 106.984 183.083 107.387 183.083 107.88Z" fill="#99A3B0"/>
<path d="M122.633 51.0566C128.518 54.9928 135.924 52.8028 138.119 51.0566L130.376 79.0614L122.633 51.0566Z" fill="#A08B7C"/>
<path d="M115.088 56.8944C115.341 57.8681 116.2 58.5214 117.228 58.5214H143.444C144.472 58.5214 145.332 57.8681 145.584 56.8944C145.837 55.9206 145.399 54.9468 144.493 54.4702L130.776 47.2225V44.6259C130.776 43.9151 130.182 43.3398 129.458 43.3398C128.282 43.3398 127.318 42.4441 127.246 41.3143C127.246 41.2691 127.246 39.868 127.246 39.8228C127.246 38.6313 128.24 37.6616 129.462 37.6616H132.238C131.678 37.1275 130.915 36.7988 130.077 36.7988H129.462C127.752 36.7988 126.361 38.1547 126.361 39.8228C126.361 39.868 126.361 41.2732 126.361 41.3184C126.433 42.9208 127.794 44.2068 129.458 44.2068C129.698 44.2068 129.896 44.3999 129.896 44.6341V47.2308L116.179 54.4785C115.273 54.9551 114.835 55.9288 115.088 56.9026V56.8944ZM116.596 55.2262L130.334 47.9662L144.072 55.2262C144.742 55.5796 144.843 56.2287 144.725 56.6807C144.607 57.1327 144.203 57.6545 143.44 57.6545H117.224C116.461 57.6545 116.057 57.1285 115.939 56.6807C115.821 56.2329 115.922 55.5796 116.592 55.2262H116.596Z" fill="#8D415F"/>
<path d="M122.633 51.0566L130.376 79.0614V153.465C121.146 153.465 113.769 155.109 109.384 152.233L111.949 82.1264L109.384 110.419L100.562 106.91L108.916 62.5281C109.62 58.7974 112.156 55.646 115.703 54.093L122.633 51.0608V51.0566Z" fill="#BBA389"/>
<path d="M122.633 51.0566L130.376 79.0614L121.58 71.4192C121.066 70.9714 120.88 70.2606 121.116 69.6278L123.391 63.547L119.128 60.8476C118.399 60.3874 118.151 59.463 118.551 58.7111L122.633 51.0566Z" fill="#CABFAB"/>
<path d="M138.124 51.0566L130.38 79.0614V157.677C139.611 157.677 146.987 155.109 151.373 152.233L148.807 82.1264L151.373 110.419L160.194 106.91L151.84 62.5281C151.137 58.7974 148.601 55.646 145.054 54.093L138.124 51.0608V51.0566Z" fill="#BBA389"/>
<path d="M138.124 51.0566L130.38 79.0614L139.177 71.4192C139.691 70.9714 139.876 70.2606 139.64 69.6278L137.365 63.547L141.629 60.8476C142.357 60.3874 142.606 59.463 142.206 58.7111L138.124 51.0566Z" fill="#CABFAB"/>
<path d="M127.769 153.506C128.62 153.481 129.492 153.465 130.376 153.465V79.0605L127.769 153.506Z" fill="#A08B7C"/>
<path d="M239.602 175.791H225.165V54.9917C225.165 45.817 217.51 38.3516 208.103 38.3516H114.384C104.977 38.3516 97.3223 45.817 97.3223 54.9917V175.787H82.885C78.5879 175.787 75.0913 179.197 75.0913 183.388H78.8828C78.8828 181.235 80.6775 179.485 82.885 179.485H115.551C117.759 179.485 119.553 181.235 119.553 183.388H123.345C123.345 179.197 119.848 175.787 115.551 175.787H101.114V54.9917C101.114 47.8549 107.067 42.0494 114.384 42.0494H208.103C215.42 42.0494 221.373 47.8549 221.373 54.9917V175.787H206.936C202.639 175.787 199.142 179.197 199.142 183.388H202.933C202.933 181.235 204.728 179.485 206.936 179.485H239.602C241.809 179.485 243.604 181.235 243.604 183.388H247.396C247.396 179.197 243.899 175.787 239.602 175.787V175.791Z" fill="#99A3B0"/>
<path d="M161.998 39.8194V40.3987C161.998 40.637 161.8 40.8301 161.555 40.8301C161.311 40.8301 161.113 40.637 161.113 40.3987V39.8194C161.113 38.6279 160.119 37.6582 158.897 37.6582H161.058C161.635 38.2088 161.993 38.973 161.993 39.8194H161.998Z" fill="#8D415F"/>
<path d="M192.642 39.8194V40.3987C192.642 40.637 192.444 40.8301 192.199 40.8301C191.955 40.8301 191.757 40.637 191.757 40.3987V39.8194C191.757 38.6279 190.763 37.6582 189.541 37.6582H191.702C192.279 38.2088 192.637 38.973 192.637 39.8194H192.642Z" fill="#8D415F"/>
<path d="M133.173 39.8194V40.3987C133.173 40.637 132.975 40.8301 132.731 40.8301C132.487 40.8301 132.289 40.637 132.289 40.3987V39.8194C132.289 38.6279 131.294 37.6582 130.073 37.6582H132.234C132.811 38.2088 133.169 38.973 133.169 39.8194H133.173Z" fill="#8D415F"/>
<path d="M138.658 73.7088H136.973C134.799 73.7088 132.642 73.3637 130.586 72.6816C131.85 75.0482 134.357 76.5356 137.091 76.5356H138.54C141.274 76.5356 143.785 75.0523 145.045 72.6816C142.989 73.3637 140.828 73.7088 138.658 73.7088Z" fill="#21398F"/>
<path d="M122.565 79.2752C122.818 80.249 123.677 80.9022 124.705 80.9022H150.922C151.95 80.9022 152.809 80.249 153.062 79.2752C153.314 78.3015 152.876 77.3277 151.971 76.8511L138.254 69.6034V67.0067C138.254 66.2959 137.66 65.7207 136.935 65.7207C135.76 65.7207 134.795 64.825 134.723 63.6951C134.723 63.6499 134.723 62.2489 134.723 62.2037C134.723 61.0122 135.718 60.0425 136.939 60.0425H139.715C139.155 59.5084 138.393 59.1797 137.554 59.1797H136.939C135.229 59.1797 133.843 60.5356 133.843 62.2037C133.843 62.2489 133.843 63.654 133.843 63.6992C133.914 65.3016 135.275 66.5876 136.939 66.5876C137.179 66.5876 137.377 66.7807 137.377 67.0149V69.6116L123.66 76.8593C122.755 77.3359 122.317 78.3097 122.569 79.2834L122.565 79.2752ZM124.078 77.6071L137.816 70.3471L151.554 77.6071C152.223 77.9604 152.324 78.6096 152.206 79.0616C152.089 79.5135 151.684 80.0353 150.922 80.0353H124.705C123.943 80.0353 123.538 79.5094 123.42 79.0616C123.302 78.6137 123.403 77.9604 124.073 77.6071H124.078Z" fill="#8D415F"/>
<path d="M140.651 62.2002V62.7795C140.651 63.0179 140.453 63.211 140.209 63.211C139.964 63.211 139.766 63.0179 139.766 62.7795V62.2002C139.766 61.0087 138.772 60.0391 137.55 60.0391H139.711C140.289 60.5896 140.647 61.3538 140.647 62.2002H140.651Z" fill="#8D415F"/>
<path d="M157.772 83.7709C156.984 80.3361 154.659 77.4272 151.44 75.8371L145.045 72.6816C143.781 75.0482 141.274 76.5356 138.54 76.5356H137.091C134.357 76.5356 131.846 75.0523 130.587 72.6816L124.191 75.8371C120.973 77.4272 118.647 80.3361 117.86 83.7709L113.28 103.686L117.565 106.015L118.618 137.517C121.099 139.937 129.15 140.528 137.82 140.528C146.49 140.528 154.541 139.937 157.022 137.517L158.075 106.015L162.36 103.686L157.78 83.7709H157.772Z" fill="#536CC8"/>
<path d="M158.071 106.011L153.382 108.562L153.134 86.4453L151.962 111.196L155.017 109.368L157.557 121.353L158.071 106.011Z" fill="#21398F"/>
<path d="M140.874 92.7891H135.01L138.435 98.5741H144.3L140.874 92.7891Z" fill="#B0C98F"/>
<path d="M136.19 100.267L140.617 92.7891H134.757L131.332 98.5741L129.39 97.8961L131.539 103.303L138.115 100.937L136.19 100.267Z" fill="#D8E29F"/>
<path d="M124.444 110.205L127.376 115.156L130.801 109.371L127.869 104.42L124.444 110.205Z" fill="#B0C98F"/>
<path d="M133.426 110.423H124.571L127.503 115.374H134.353L134.724 117.35L138.448 112.831L133.064 108.459L133.426 110.423Z" fill="#D8E29F"/>
<path d="M148.129 115.375L151.057 110.424H144.211L141.279 115.375H148.129Z" fill="#B0C98F"/>
<path d="M143.828 107.678L148.255 115.156L151.188 110.205L147.763 104.42L149.334 103.122L143.457 102.234L142.269 108.968L143.828 107.678Z" fill="#D8E29F"/>
<path d="M117.561 106.011L122.249 108.562L122.494 86.4453L123.669 111.196L120.615 109.368L118.075 121.353L117.561 106.011Z" fill="#21398F"/>
<path d="M141.78 80.627L139.37 79.4108C139.172 79.3122 138.941 79.3163 138.747 79.4232L135.966 80.9886C135.773 81.0954 135.65 81.2926 135.642 81.5063L135.516 84.1481C135.511 84.2673 135.541 84.3906 135.6 84.4933L139.185 90.5536C139.366 90.8576 139.762 90.9603 140.074 90.7837L145.39 87.7925C145.702 87.6159 145.807 87.2297 145.626 86.9256L142.041 80.8653C141.978 80.7585 141.89 80.6763 141.776 80.6188L141.78 80.627ZM138.321 81.835C138.001 82.0157 137.597 81.9089 137.411 81.5967C137.226 81.2844 137.335 80.89 137.656 80.7092C137.976 80.5284 138.38 80.6352 138.566 80.9475C138.751 81.2597 138.641 81.6542 138.321 81.835Z" fill="white"/>
<path d="M139.745 82.9746L138.667 83.5827L139.927 84.2894L141.005 83.6813L139.745 82.9746Z" fill="#547374"/>
<path d="M139.699 84.8366V83L138.621 83.6081V85.0256L138.191 85.1036L139.172 85.8761L140.125 84.7585L139.699 84.8366Z" fill="#6D9B7C"/>
<path d="M138.621 87.8804L139.699 88.4885V87.0669L138.621 86.4629V87.8804Z" fill="#547374"/>
<path d="M140.297 86.9884L138.667 87.9047L139.745 88.5128L141.005 87.8061L141.287 88.1307L141.481 86.9104L140.015 86.668L140.297 86.9884Z" fill="#6D9B7C"/>
<path d="M143.541 86.3761V85.1641L142.282 85.8708V87.0869L143.541 86.3761Z" fill="#547374"/>
<path d="M141.911 85.4073L143.541 86.3236V85.1115L142.282 84.4007L142.429 83.998L141.25 84.4459L141.763 85.8059L141.911 85.4073Z" fill="#6D9B7C"/>
<path d="M138.144 81.1125C138.106 81.1331 138.064 81.1454 138.018 81.1495C137.491 81.1618 137.091 80.7099 137.007 80.2661C136.939 79.9087 137.024 79.5184 137.26 79.0705C137.327 78.9473 137.399 78.8281 137.466 78.7131C137.58 78.5241 137.689 78.3433 137.765 78.1543C137.993 77.6037 137.946 76.9381 137.643 76.4245C137.567 76.2972 137.613 76.1369 137.744 76.063C137.875 75.989 138.039 76.0342 138.115 76.1616C138.502 76.8231 138.561 77.6448 138.266 78.3515C138.174 78.5775 138.052 78.7829 137.929 78.9801C137.862 79.0952 137.795 79.202 137.736 79.3129C137.555 79.6498 137.491 79.9292 137.533 80.1675C137.576 80.3894 137.769 80.6236 137.997 80.6195C138.144 80.6195 138.271 80.7304 138.275 80.8783C138.275 80.9769 138.224 81.0673 138.14 81.1125H138.144Z" fill="#B0C98F"/>
<path d="M98.7124 97.8965L109.35 133.079C109.977 135.154 110.298 137.307 110.298 139.472V172.572H96.606C95.2031 157.37 97.3095 138.605 97.3095 138.605L83.2682 112.585V172.572H68.3843C66.2779 154.218 69.9304 137.648 69.9304 137.648C65.1573 112.449 66.6992 102.93 68.279 97.8965H98.7166H98.7124Z" fill="#454F6B"/>
<path d="M83.2681 112.586C88.3403 112.791 91.3946 111.715 91.3946 111.715C88.6731 114.164 84.3803 114.648 84.3803 114.648L83.2681 112.59V112.586Z" fill="#422C4F"/>
<path d="M108.334 170.517H107.913V138.819C107.913 137.245 107.677 135.68 107.218 134.172L96.5386 99.3301L96.943 99.2109L107.622 134.053C108.099 135.601 108.339 137.204 108.339 138.819V170.517H108.334Z" fill="#797C99"/>
<path d="M83.2682 112.586C82.5057 112.541 81.7347 112.332 80.9849 112.023V114.333C81.503 114.55 81.8401 114.645 81.8401 114.645L80.9849 117.163V126.383L83.2682 132.563V112.586Z" fill="#422C4F"/>
<path d="M75.4365 107.4C75.6977 111.312 78.7689 113.309 80.5635 114.147V111.842C78.0527 110.667 75.9084 108.428 75.4365 107.4Z" fill="#422C4F"/>
<path d="M80.4583 118.721C79.7421 120.824 79.7716 123.101 80.5425 125.184L80.5636 125.245V118.404L80.4583 118.721Z" fill="#422C4F"/>
<path d="M80.9848 114.332C80.8542 114.278 80.7151 114.217 80.5635 114.143V118.403L80.9848 117.162V114.327V114.332Z" fill="#797C99"/>
<path d="M80.5635 170.517H80.9848V126.386L80.5635 125.248V170.517Z" fill="#797C99"/>
<path d="M80.9848 112.023C80.8415 111.965 80.7025 111.908 80.5635 111.842V114.147C80.7151 114.217 80.8542 114.278 80.9848 114.336V112.027V112.023Z" fill="#454F6B"/>
<path d="M80.5635 118.407V125.248L80.9848 126.386V117.166L80.5635 118.407Z" fill="#454F6B"/>
<path d="M90.8134 101.118C90.8134 101.118 90.8766 101.701 90.9356 102.622C93.872 102.272 96.7788 101.689 99.6098 100.851L98.7167 97.8926H68.2791C68.0642 98.5787 67.8494 99.347 67.6514 100.226C67.8662 100.3 68.0853 100.362 68.3044 100.432C68.3296 100.296 68.3549 100.156 68.3844 100.021C70.2928 100.391 72.1759 100.613 74.0464 100.662C74.0464 100.662 74.0169 101.147 73.9537 101.915C76.3508 102.404 78.7858 102.728 81.2335 102.885C81.2925 102.215 81.3683 101.553 81.4652 100.896C84.57 101.2 87.7002 101.274 90.8177 101.11L90.8134 101.118Z" fill="#422C4F"/>
<path d="M81.2292 102.892C81.0523 104.86 81.0354 106.861 81.1786 108.809C82.6405 109.741 84.254 110.67 85.9138 111.196C87.4937 110.629 89.2083 110.058 90.7881 109.491C91.1251 107.066 91.0366 104.293 90.9313 102.625C87.7127 103.007 84.4604 103.098 81.225 102.892H81.2292Z" fill="#797C99"/>
<path d="M90.9353 102.626C90.8764 101.705 90.8132 101.122 90.8132 101.122C87.6957 101.282 84.5698 101.212 81.4607 100.908C81.3638 101.566 81.288 102.231 81.229 102.897C84.4644 103.102 87.7167 103.008 90.9353 102.63V102.626Z" fill="#454F6B"/>
<path d="M67.4531 107.28C68.2325 108.201 69.0961 109.129 70.0356 109.7C71.0298 109.294 72.1041 108.891 73.0983 108.484C73.5533 106.257 73.8229 103.496 73.9535 101.927C72.0409 101.536 70.1578 101.039 68.3041 100.439C67.8744 102.625 67.5837 105.086 67.4531 107.285V107.28Z" fill="#797C99"/>
<path d="M68.3798 100.029C68.3504 100.165 68.3251 100.3 68.2998 100.44C70.1534 101.04 72.0408 101.537 73.9492 101.928C74.0124 101.159 74.0419 100.674 74.0419 100.674C72.1756 100.625 70.2925 100.399 68.3798 100.033V100.029Z" fill="#454F6B"/>
<path d="M113.605 177.141L113.344 177.046C111.81 176.475 110.504 175.444 109.615 174.096L108.613 172.576H100.874C100.874 172.576 99.2559 176.418 99.6435 180.588H117.628C116.769 179.035 115.357 177.794 113.605 177.145V177.141Z" fill="#422C4F"/>
<path d="M99.6436 180.584C99.7278 181.517 99.9132 182.466 100.242 183.39H118.513C118.412 182.388 118.1 181.439 117.628 180.584H99.6436Z" fill="white"/>
<path d="M83.6012 177.141L83.34 177.046C81.8065 176.475 80.5005 175.444 79.6116 174.096L78.609 172.576H70.8658C70.8658 172.576 69.2481 176.418 69.6357 180.588H87.6202C86.7608 179.035 85.3495 177.794 83.5969 177.145L83.6012 177.141Z" fill="#422C4F"/>
<path d="M69.6357 180.584C69.72 181.517 69.9054 182.466 70.234 183.39H88.5092C88.4081 182.388 88.0963 181.439 87.6245 180.584H69.64H69.6357Z" fill="white"/>
<path d="M130.713 63.4032C130.713 63.2142 130.78 63.0293 130.907 62.8855L131.092 62.6719C130.418 62.8157 129.757 62.8691 129.255 62.8937C129.201 63.0129 129.167 63.1444 129.167 63.2759C129.167 63.7894 129.592 64.2044 130.119 64.2044H131.535C131.08 64.2044 130.713 63.847 130.713 63.4032Z" fill="#EBA58E"/>
<path d="M129.167 63.2766C129.167 63.1411 129.201 63.0137 129.255 62.8945C129.108 62.9027 128.973 62.9069 128.859 62.911L128.202 64.2093H130.119C129.592 64.2093 129.167 63.7943 129.167 63.2807V63.2766Z" fill="#EBA58E"/>
<path d="M135.71 60.527L134.227 57.8235C133.801 57.051 132.975 56.5703 132.078 56.5703H129.394C127.33 56.5703 125.447 57.7125 124.533 59.5162L123.425 61.7062L114.367 71.8423L109.662 66.7763L102.361 73.2146L109 80.1829C112.505 83.8601 118.702 82.9768 120.981 78.4737L128.198 64.2083L128.855 62.91C128.969 62.91 129.104 62.9018 129.251 62.8936C129.753 62.8689 130.414 62.8155 131.088 62.6717C132.036 62.4704 132.992 62.0965 133.527 61.3857L132.369 62.8895C132.259 63.0333 132.2 63.2058 132.2 63.3825C132.2 63.8344 132.579 64.2042 133.043 64.2042H133.089C133.548 64.2042 133.986 64.007 134.281 63.6619L135.524 62.2156C135.933 61.739 136.004 61.0693 135.705 60.5229L135.71 60.527Z" fill="#F2C9AD"/>
<path d="M132.204 63.3816C132.204 63.2049 132.263 63.0323 132.373 62.8885L133.531 61.3848C132.996 62.0956 132.04 62.4695 131.092 62.6708L130.907 62.8844C130.78 63.0282 130.713 63.2131 130.713 63.4021C130.713 63.8459 131.079 64.2033 131.534 64.2033H133.047C132.583 64.2033 132.204 63.8335 132.204 63.3816Z" fill="#EBA58E"/>
<path d="M110.833 68.0248C110.774 72.832 105.053 76.0244 105.053 76.0244L102.37 73.2059L109.67 66.7676L110.833 68.0207V68.0248Z" fill="#422C4F"/>
<path d="M117.628 75.3463L114.372 71.8375L114.86 71.291C118.395 71.9402 117.628 75.3422 117.628 75.3422V75.3463Z" fill="#EBA58E"/>
<path d="M79.0513 51.8459H92.5408C96.7999 51.8459 100.823 53.7359 103.481 56.9776L111.284 66.4974C109.809 71.2224 102.298 75.3311 102.298 75.3311L98.7167 71.5634V84.1278C98.7167 87.7557 98.9569 91.3755 99.4371 94.9706L99.9806 99.0217C86.0783 102.103 67.1206 99.0217 67.1206 99.0217L67.6514 93.7914C67.9295 91.0509 68.0685 88.294 68.0685 85.5412V76.0583C68.0685 70.2939 68.7173 64.5499 69.998 58.9251C70.9416 54.7877 74.7037 51.8418 79.0513 51.8418V51.8459Z" fill="#CC6164"/>
<path d="M96.7366 97.6789C94.7819 97.9131 92.528 98.1432 90.1225 98.2706C87.717 98.402 85.1598 98.4308 82.6068 98.3322C80.0538 98.2295 77.5051 97.9912 75.1206 97.6666C72.732 97.3461 70.5076 96.9352 68.5781 96.5449C70.4233 97.2229 72.614 97.8597 75.0027 98.3322C77.3913 98.8088 79.9738 99.1252 82.5689 99.232C85.164 99.3347 87.7633 99.2279 90.1857 98.9444C92.608 98.6609 94.8451 98.2048 96.7408 97.6748L96.7366 97.6789Z" fill="#A34262"/>
<path d="M71.1226 93.8496C73.0984 94.1783 75.4365 94.3262 77.9263 94.1454C80.4118 93.9729 83.0364 93.4757 85.5599 92.6581C88.0792 91.8363 90.4847 90.6982 92.5827 89.3835C94.6806 88.0728 96.4627 86.5855 97.8445 85.168C96.252 86.3595 94.3563 87.6373 92.2204 88.7918C90.0887 89.9505 87.7169 90.9859 85.2608 91.787C82.8047 92.58 80.2728 93.1388 77.8546 93.4634C75.4365 93.788 73.1321 93.8784 71.1268 93.8537L71.1226 93.8496Z" fill="#A34262"/>
<path d="M69.3911 86.4453C70.478 87.1315 71.8093 87.8217 73.3006 88.4051C74.7919 88.9886 76.4392 89.4611 78.1201 89.761C79.801 90.0609 81.5156 90.1924 83.1207 90.1637C84.7258 90.139 86.2213 89.9541 87.4894 89.6912C84.9069 89.8432 81.5325 89.7816 78.2338 89.1776C74.931 88.5983 71.7545 87.4848 69.3953 86.4453H69.3911Z" fill="#A34262"/>
<path d="M95.0262 53.6172C94.2173 53.9212 93.3453 54.48 92.6164 55.2812C91.8834 56.0783 91.3063 57.1178 91.0324 58.2477C90.7628 59.3734 90.8049 60.5567 91.0956 61.5921C91.3821 62.6275 91.9087 63.5109 92.4943 64.1313C92.1404 63.3589 91.8371 62.455 91.7023 61.473C91.5632 60.491 91.5927 59.4392 91.8371 58.4367C92.0814 57.43 92.5364 56.4768 93.1051 55.6592C93.6739 54.8375 94.3605 54.1595 95.0304 53.6213L95.0262 53.6172Z" fill="#A34262"/>
<path d="M98.7122 71.5682L93.1387 65.7051C94.0739 75.8864 98.7122 82.1316 98.7122 82.1316V71.5682Z" fill="#A34262"/>
<path d="M79.8263 46.8452L77.0626 38.5292C75.2048 32.9332 79.4808 27.1934 85.5136 27.1934C91.0197 27.1934 95.1988 32.0252 94.272 37.3171L93.1093 43.9568C92.8186 45.6249 91.3357 46.8452 89.5958 46.8452H87.6158V51.8454H79.683L79.822 46.8452H79.8263Z" fill="#F2C9AD"/>
<path d="M87.2157 42.8073L88.4627 43.0826C89.2884 43.9044 90.4301 43.2018 90.4301 43.2018C89.7265 44.2618 88.4627 44.1796 88.4627 44.1796C87.5696 46.3901 84.6669 47.6638 84.6669 47.6638L84.7386 46.423C83.0029 47.8939 80.3825 47.5241 80.3825 47.5241L80.6648 46.9201L79.8096 47.3844L79.8264 46.8544V42.5156L87.2157 42.8156V42.8073Z" fill="#EBA58E"/>
<path d="M91.6813 40.9495C91.7192 39.9758 91.7529 38.9609 91.2137 38.1022C91.0409 37.8269 90.8008 37.5886 90.5143 37.4243C89.4738 36.8203 88.5849 37.3914 88.0456 38.1104C87.498 38.8418 87.2326 39.7662 87.3084 40.6701C87.3842 41.574 87.8013 42.4451 88.4627 43.0778C87.8392 44.9596 86.4658 46.7469 84.6669 47.6549C84.6754 46.9687 84.7765 46.262 84.7849 45.5759C83.5885 46.5866 81.9665 47.4412 80.3867 47.5152C80.5889 47.0345 80.8796 46.5086 81.0818 46.0319C80.0623 46.7263 78.8238 47.129 77.581 47.1742C78.0823 46.6934 78.4825 46.1223 78.689 45.4691C75.4451 42.3136 73.562 37.8721 73.1997 33.4183C73.0775 31.9104 73.166 30.308 74.0001 29.0385C74.8384 27.7689 76.6205 26.9923 78.0023 27.6785C78.1244 26.2898 79.6748 24.9668 81.0355 24.5354C82.3962 24.1039 83.8665 24.2108 85.2904 24.3546C86.7144 24.4984 88.1678 24.6668 89.5622 24.3423C90.5185 24.1204 91.4369 23.6684 92.4227 23.6602C93.7961 23.652 95.0726 24.5641 95.6793 25.768C96.2859 26.9718 96.2775 28.4057 95.8815 29.6876C95.4855 30.9695 94.7356 32.1241 93.893 33.18C94.1247 33.8251 94.0742 34.5194 93.8425 35.1645C93.6108 35.8096 93.1473 36.3683 92.5533 36.7299L92.5238 38.6939C92.5112 39.5156 92.2163 40.3086 91.6855 40.9454L91.6813 40.9495Z" fill="#8E5A61"/>
<path d="M90.3036 40.252C90.0045 40.1657 89.6801 40.3547 89.5242 40.6177C89.3683 40.8806 89.3431 41.1929 89.3389 41.4969C89.3389 41.6489 89.3389 41.801 89.3978 41.9406C89.4568 42.0803 89.5748 42.2036 89.7307 42.2241C89.8697 42.2406 90.0045 42.1748 90.1014 42.0762C90.1983 41.9776 90.253 41.8544 90.3078 41.727C90.6533 40.897 90.7754 39.9767 90.6617 39.0892C90.628 38.8468 90.5732 38.5962 90.4047 38.4195C90.1941 38.1935 89.8402 38.136 89.5411 38.2264C89.242 38.3168 89.0018 38.5346 88.8291 38.7893C88.6564 39.0399 88.5426 39.3275 88.4331 39.611C88.5426 39.4056 88.7533 39.1714 88.9049 38.9947C89.0566 38.8181 89.2504 38.666 89.4821 38.6126C89.7138 38.5592 89.975 38.6126 90.1351 38.7811C90.2741 38.929 90.3162 39.1426 90.3331 39.344C90.3584 39.6275 90.3626 39.9767 90.312 40.2561L90.3036 40.252Z" fill="#EBA58E"/>
<path d="M224.524 95.0569L219.3 121.463C218.281 126.616 217.813 131.858 217.914 137.105C218.07 145.096 217.922 158.815 215.955 173.808H232.806C235.616 153.811 231.825 131.764 231.825 131.764L239.968 109.302L243.899 133.678C243.76 153.125 240.246 173.808 240.246 173.808H258.361C259.343 151.896 255.834 132.857 255.834 132.857C259.065 111.627 260.396 109.211 260.396 97.4892C248.213 87.4025 224.516 95.0569 224.516 95.0569H224.524Z" fill="#F0BF6C"/>
<path d="M260.4 98.7712C260.4 98.3562 260.404 97.9289 260.404 97.4893C248.221 87.4025 224.524 95.0569 224.524 95.0569L223.833 98.5411C235.393 103.147 248.773 103.204 260.396 98.7712H260.4Z" fill="#E8916A"/>
<path d="M239.151 104.195L239.972 109.298L232.343 130.339V121.226C232.343 120.092 232.764 118.999 233.527 118.144C234.412 117.154 234.833 115.852 234.681 114.545L234.529 113.23C234.315 111.349 235.284 109.529 236.981 108.612L238.178 107.967L235.216 106.546C232.651 105.313 230.363 103.6 228.488 101.496L239.147 104.2L239.151 104.195Z" fill="#E8916A"/>
<path d="M239.151 104.194L252.821 102.793L251.389 103.783C248.061 106.084 243.709 106.409 240.061 104.638L239.151 104.194Z" fill="#E8916A"/>
<path d="M226.479 130.703C224.621 132.897 222.38 134.779 219.877 136.246C220.931 136.574 222.114 136.472 223.05 135.905C223.934 135.366 224.558 134.504 225.059 133.612C225.561 132.72 225.889 131.55 226.475 130.707L226.479 130.703Z" fill="#E8916A"/>
<path d="M254.385 130.33C253.479 133.071 251.368 135.404 248.697 136.629C249.611 136.863 250.656 137.249 251.507 136.851C252.181 136.534 252.619 135.889 252.973 135.244C253.774 133.777 254.166 131.978 254.389 130.33H254.385Z" fill="#E8916A"/>
<path d="M245.765 129.43C246.41 131.094 247.379 132.639 248.596 133.958C247.648 133.76 246.818 133.161 246.271 132.38C245.727 131.599 245.605 130.358 245.761 129.426L245.765 129.43Z" fill="#E8916A"/>
<path d="M229.508 47.3957C227.654 46.2288 226.382 44.2155 226.142 42.0749C225.902 39.9343 226.702 37.7033 228.257 36.1749C226.399 35.0779 225.207 33.0153 225.177 30.8993C225.148 28.7834 226.298 26.6879 228.122 25.5375C227.355 23.7461 227.06 21.6343 227.869 19.8593C228.678 18.0885 230.713 16.7901 232.659 17.1846C232.739 15.1261 234.012 12.9732 235.971 12.1966C237.93 11.4201 240.331 11.868 241.86 13.2937C244.611 11.1572 248.858 11.0832 251.819 12.928C254.781 14.7728 256.331 18.5363 255.501 21.8685C257.161 22.456 258.509 23.7585 258.964 25.4225C259.423 27.0865 258.998 28.9559 257.865 30.2789C260.182 31.1541 261.816 33.7795 261.576 36.1913C261.336 38.6031 259.31 40.7396 256.862 41.1628C257.637 43.0692 256.82 45.5837 255.122 46.7876C253.424 47.9914 251.137 48.2092 249.089 47.7572C246.494 50.0704 243.242 51.4057 239.728 51.3153C236.215 51.2208 232.453 49.2569 229.504 47.3998L229.508 47.3957Z" fill="#422C4F"/>
<path d="M216.267 79.3333C213.781 79.4401 211.473 78.0884 210.403 75.8984L200.043 54.6648C196.61 54.2991 193.299 53.0254 190.358 51.2464C189.954 50.9999 189.73 50.5479 189.781 50.0836C189.907 48.8921 190.228 47.6965 190.729 46.5954C191.066 45.8558 192.014 45.6298 192.667 46.1229C193.594 46.8254 194.609 47.376 195.725 47.8403C194.554 47.0309 193.56 45.9256 192.663 44.804C192.397 44.4712 192.448 43.9946 192.772 43.7234L192.785 43.7152C193.113 43.4399 193.606 43.4645 193.901 43.7768C195.418 45.3792 197.229 46.7227 199.281 47.5814C198.94 46.4146 198.712 45.2395 198.586 44.048C198.489 43.103 199.239 42.2812 200.212 42.2812C201.21 46.3406 204.319 48.395 204.092 52.5365L215.184 67.7715L218.74 59.9896L227.25 63.9299L221.613 75.8409C220.644 77.8911 218.584 79.2388 216.271 79.3415L216.267 79.3333Z" fill="#BD6C67"/>
<path d="M218.74 59.9805L227.25 63.9207L222.443 74.0773C219.048 68.7607 220.804 63.6249 221.12 63.0086L218.441 60.6379L218.74 59.9805Z" fill="#422C4F"/>
<path d="M215.188 67.7624L218.078 71.7355C218.487 67.0804 215.42 67.2488 215.42 67.2488L215.184 67.7665L215.188 67.7624Z" fill="#8C404C"/>
<path d="M229.546 45.9219C227.149 46.2547 225.034 47.6188 223.774 49.632L217.636 59.4682L222.755 61.8389L229.546 45.9219Z" fill="#E4AEB4"/>
<path d="M221.44 61.2304C223.437 56.3986 224.756 54.2415 226.597 52.8281L222.75 61.8385L221.436 61.2304H221.44Z" fill="#CC85AF"/>
<path d="M236.674 48.8915C238.031 49.8119 239.8 50.0584 241.418 49.7174C243.031 49.3763 244.493 48.4889 245.664 47.3549C246.254 46.7838 246.776 46.1469 247.248 45.4772L244.03 44.7459V38.3281L237.66 39.6634V44.7993L234.618 45.2225C234.635 46.6646 235.457 48.0698 236.678 48.8956L236.674 48.8915Z" fill="#BD6C67"/>
<path d="M237.656 42.277C239.632 43.5589 242.307 41.9647 244.026 40.4527V38.3203L237.656 39.6556V42.277Z" fill="#8C404C"/>
<path d="M253.875 78.4828C253.875 70.6763 258.509 53.6253 254.191 47.0514L247.244 45.4737C246.776 46.1475 246.254 46.7803 245.66 47.3514C244.489 48.4854 243.027 49.3728 241.413 49.7138C239.8 50.0549 238.026 49.8083 236.67 48.888C235.448 48.058 234.626 46.6529 234.61 45.2148L229.542 45.9215L222.169 63.1903C221.12 65.6514 221.937 68.4946 224.149 70.06C225.86 71.2721 226.778 73.2812 226.55 75.3314C225.902 81.2027 224.474 93.2083 223.218 97.4854C242.597 103.751 260.396 97.4854 260.396 97.4854C260.396 91.5278 253.866 86.2893 253.866 78.4828H253.875Z" fill="#E4AEB4"/>
<path d="M245.609 71.5509H227.65C227.738 70.9962 228.425 70.7908 228.998 70.8155C229.575 70.8401 230.144 71.0414 230.713 70.9593C231.602 70.8319 232.225 70.0718 232.861 69.4514C233.497 68.831 234.437 68.2722 235.25 68.6502C236.046 69.02 236.231 70.0718 236.922 70.6059C237.491 71.0414 238.296 71.0455 238.995 70.873C239.694 70.6963 240.347 70.3676 241.047 70.1992C242.584 69.8212 244.476 70.4744 245.605 71.555L245.609 71.5509Z" fill="#CC85AF"/>
<path d="M255.897 52.8281H246.852L248.824 76.1654L233.552 80.537C233.552 80.537 229.302 76.4325 226.42 76.5927C226.239 78.1951 226.016 80.0974 225.767 82.1148C229.095 87.7313 233.097 86.2933 233.097 86.2933L250.998 90.402C253.365 90.9443 255.678 90.5417 257.582 89.4898C255.817 86.2275 253.879 82.7393 253.879 78.4868C253.879 72.4306 256.668 60.8072 255.901 52.8322L255.897 52.8281Z" fill="#CC85AF"/>
<path d="M253.281 46.8455C256.529 47.585 259.048 50.0831 259.756 53.2632L262.161 64.106L249.173 65.1332L246.852 52.8318C246.342 50.1283 248.086 47.507 250.825 46.8578C251.634 46.6688 252.476 46.6647 253.285 46.8455H253.281Z" fill="#E4AEB4"/>
<path d="M250.087 65.0577L252.118 78.074L233.232 81.8417L229.259 77.3426C228.61 76.6072 227.713 76.11 226.723 75.995C223.808 75.6622 222.068 78.0781 222.068 78.0781C222.561 78.6369 223.37 78.8423 224.065 78.5506C225.067 78.1315 225.965 78.1315 225.965 78.1315C224.077 78.7519 222.932 79.4956 222.253 80.0955C221.655 80.6255 221.356 81.402 221.461 82.1827L221.651 83.6084C221.79 84.6602 223.113 85.0916 223.875 84.3356C224.89 83.3249 225.64 83.103 225.64 83.103C227.97 87.3267 232.655 85.3258 232.655 85.3258L252.312 87.9595C257.325 88.6333 261.66 84.5452 261.138 79.6353L259.516 64.3223L250.092 65.0659L250.087 65.0577Z" fill="#BD6C67"/>
<path d="M252.118 78.0697L257.085 80.5349C255.61 76.5823 253.832 77.1575 251.983 77.2027L252.118 78.0697Z" fill="#8C404C"/>
<path d="M250.087 65.0583L259.516 64.3105L259.592 65.0583L250.513 67.7618L250.087 65.0583Z" fill="#422C4F"/>
<path d="M247.884 34.1983C246.62 32.785 246.081 30.6156 246.696 28.8406C245.483 28.0066 244.261 27.1643 243.225 26.1248C242.192 25.0853 241.405 23.8198 241.097 22.4023C239.324 24.4485 236.754 25.8043 234.036 26.1741C234.011 26.1988 233.986 26.2193 233.961 26.244L233.362 29.0173C232.823 31.5236 232.848 34.1162 233.438 36.6101L233.489 36.832C233.75 37.9414 234.319 38.9808 235.178 39.7492C236.644 41.0598 238.658 41.4912 240.49 40.9859L242.862 40.3326C244.236 39.9546 245.47 39.2561 246.485 38.3276C246.443 36.832 246.919 35.2666 247.876 34.1983H247.884Z" fill="#BD6C67"/>
<path d="M244.893 31.4239L240.621 29.8791C241.245 29.3696 242.277 29.349 243.022 29.6695C243.768 29.99 244.472 30.7419 244.893 31.4198V31.4239Z" fill="#422C4F"/>
<path d="M242.075 32.4604C241.919 32.8713 241.506 33.0973 241.152 32.9699C240.798 32.8425 240.638 32.407 240.794 31.9961C240.95 31.5853 241.363 31.3593 241.717 31.4867C242.071 31.614 242.231 32.0495 242.075 32.4604Z" fill="#422C4F"/>
<path d="M233.978 27.4762L236.413 28.3554C236.442 27.6323 236.059 27.1023 235.608 26.9872C235.157 26.8763 234.492 27.1311 233.978 27.4721V27.4762Z" fill="#422C4F"/>
<path d="M234.508 29.7236C234.352 30.1345 234.39 30.5248 234.592 30.5988C234.795 30.6727 235.081 30.3974 235.237 29.9907C235.393 29.5839 235.355 29.1895 235.153 29.1155C234.951 29.0416 234.664 29.3169 234.508 29.7236Z" fill="#422C4F"/>
<path d="M237.651 34.2139L235.25 33.3477C235.288 33.8362 235.633 34.3124 236.097 34.5054C236.564 34.6942 237.264 34.5341 237.647 34.2139H237.651Z" fill="#8C404C"/>
<path d="M241.076 36.5274C239.172 36.4082 237.268 36.2891 235.364 36.1699C235.608 36.8479 236.215 37.382 236.901 37.6449C237.588 37.9079 238.363 37.9079 239.075 37.7107C239.787 37.5135 240.516 36.9917 241.076 36.5233V36.5274Z" fill="white"/>
<path d="M248.639 178.692C251.495 178.955 254.553 178.33 257.17 177.069C256.672 174.986 255.91 173.807 255.91 173.807H243.246C242.989 174.25 242.694 174.669 242.366 175.064C244.877 175.253 247.303 176.601 248.634 178.692H248.639Z" fill="#BD6C67"/>
<path d="M248.638 178.692C247.307 176.597 244.876 175.253 242.37 175.064C241.481 176.137 240.356 177.02 239.075 177.608C237.597 178.29 235.945 178.586 234.513 179.354C233.08 180.122 232.006 181.819 232.284 183.393H257.384C257.78 180.829 257.553 178.68 257.169 177.069C254.553 178.331 251.495 178.955 248.638 178.692Z" fill="white"/>
<path d="M243.246 173.803H255.91C249.662 177.09 243.246 173.803 243.246 173.803Z" fill="#422C4F"/>
<path d="M222.658 178.692C225.514 178.955 228.573 178.33 231.189 177.069C230.692 174.986 229.929 173.807 229.929 173.807H217.266C217.009 174.25 216.714 174.669 216.385 175.064C218.896 175.253 221.323 176.601 222.654 178.692H222.658Z" fill="#BD6C67"/>
<path d="M222.658 178.692C221.327 176.597 218.896 175.253 216.389 175.064C215.5 176.137 214.376 177.02 213.095 177.608C211.616 178.29 209.965 178.586 208.532 179.354C207.1 180.122 206.026 181.819 206.304 183.393H231.404C231.8 180.829 231.572 178.68 231.189 177.069C228.573 178.331 225.514 178.955 222.658 178.692Z" fill="white"/>
<path d="M217.27 173.803H229.933C223.686 177.09 217.27 173.803 217.27 173.803Z" fill="#422C4F"/>
</svg>
