<svg width="642" height="297" viewBox="0 0 642 297" fill="none" xmlns="http://www.w3.org/2000/svg">
<g clip-path="url(#clip0_1121_2007)">
<path d="M363.052 291.818V138.194C363.052 61.8701 293.7 0 208.156 0H171.827C86.2993 0 16.9644 61.8701 16.9644 138.194V291.818H363.052Z" fill="#F4F3F2"/>
<path d="M333.486 204.928H326.321V286.114H333.486V204.928Z" fill="#9A5851"/>
<path d="M360.267 204.928H353.102V286.114H360.267V204.928Z" fill="#9A5851"/>
<path d="M336.993 236.46H322.831C310.598 236.46 300.866 226.18 301.503 213.93L306.319 121.621C306.974 109.035 317.344 99.1582 329.912 99.1582C342.48 99.1582 352.85 109.035 353.505 121.621L358.32 213.93C358.958 226.18 349.226 236.46 336.993 236.46Z" fill="#64A297"/>
<path d="M362.482 236.611H350.853C340.819 236.611 332.831 228.181 333.352 218.136L337.295 142.435C337.832 132.103 346.339 124.01 356.642 124.01C366.945 124.01 375.453 132.103 375.99 142.435L379.933 218.136C380.453 228.181 372.466 236.611 362.431 236.611H362.482Z" fill="#567A7A"/>
<path d="M174.076 29.7988L78.4463 78.0733V145.378H269.688V78.0733L174.076 29.7988Z" fill="#F9DCDF"/>
<path d="M104.389 87.5801H155.131C157.128 87.5801 158.756 89.2122 158.756 91.2145V123.74H100.764V91.2145C100.764 89.2122 102.392 87.5801 104.389 87.5801Z" fill="#FFF5FF"/>
<path d="M192.936 87.5801H243.679C245.676 87.5801 247.304 89.2122 247.304 91.2145V123.74H189.312V91.2145C189.312 89.2122 190.94 87.5801 192.936 87.5801Z" fill="#FFF5FF"/>
<path d="M275.36 83.4923C274.823 83.4923 274.286 83.3745 273.782 83.1221L174.025 33.8044L74.3688 83.1221C72.5902 83.9971 70.4423 83.2735 69.5698 81.49C68.6972 79.7064 69.4187 77.5526 71.1974 76.6777L172.448 26.5691C173.438 26.0811 174.613 26.0811 175.619 26.5691L276.971 76.6777C278.749 77.5526 279.471 79.7064 278.598 81.49C277.977 82.7519 276.702 83.4923 275.393 83.4923H275.36Z" fill="#603F66"/>
<path d="M185.331 73.2052C191.549 66.9693 191.549 56.8588 185.331 50.6229C179.112 44.387 169.029 44.387 162.81 50.6229C156.592 56.8588 156.592 66.9693 162.81 73.2052C169.029 79.4411 179.112 79.4412 185.331 73.2052Z" fill="#FFF5FF"/>
<path d="M158.756 106.106H130.7V87.5801H128.82V106.106H100.764V107.99H128.82V123.757H130.7V107.99H158.756V106.106Z" fill="#F5D1EE"/>
<path d="M247.304 106.106H219.248V87.5801H217.368V106.106H189.312V107.99H217.368V123.757H219.248V107.99H247.304V106.106Z" fill="#F5D1EE"/>
<path d="M174.847 45.9868C174.596 45.9868 174.327 45.9531 174.076 45.9531C173.824 45.9531 173.555 45.9868 173.304 45.9868V61.1472H158.185C158.185 61.3996 158.151 61.6688 158.151 61.9212C158.151 62.1736 158.185 62.4428 158.185 62.6952H173.304V77.8557C173.555 77.8557 173.824 77.8893 174.076 77.8893C174.327 77.8893 174.596 77.8557 174.847 77.8557V62.6952H189.966C189.966 62.4428 190 62.1736 190 61.9212C190 61.6688 189.966 61.3996 189.966 61.1472H174.847V45.9868Z" fill="#F5D1EE"/>
<path d="M160.182 125.187H99.3374V91.2151C99.3374 88.4219 101.603 86.1504 104.388 86.1504H155.131C157.916 86.1504 160.182 88.4219 160.182 91.2151V125.187ZM102.19 122.31H157.312V91.2151C157.312 90.0036 156.322 89.0109 155.114 89.0109H104.371C103.163 89.0109 102.173 90.0036 102.173 91.2151V122.31H102.19Z" fill="#603F66"/>
<path d="M248.73 125.187H187.886V91.2151C187.886 88.4219 190.151 86.1504 192.937 86.1504H243.679C246.465 86.1504 248.73 88.4219 248.73 91.2151V125.187ZM190.738 122.31H245.861V91.2151C245.861 90.0036 244.871 89.0109 243.662 89.0109H192.92C191.712 89.0109 190.722 90.0036 190.722 91.2151V122.31H190.738Z" fill="#603F66"/>
<path d="M163.387 120.156H96.1157V125.894H163.387V120.156Z" fill="#603F66"/>
<path d="M251.935 120.156H184.664V125.894H251.935V120.156Z" fill="#603F66"/>
<g style="mix-blend-mode:multiply" opacity="0.3">
<path d="M182.264 104.339C153.101 116.269 120.363 116.774 89.2361 112.012C85.6788 111.474 82.0375 110.784 78.4634 109.875V145.362H269.705V78.0735L249.233 67.7422C248.411 68.1124 247.572 68.4825 246.75 68.8695C224.533 79.3018 205.001 95.0512 182.281 104.339H182.264Z" fill="#DEA5C0"/>
</g>
<path d="M66.5664 290.607C66.5664 290.607 66.5664 290.556 66.5664 290.522C66.5664 278.845 57.136 269.389 45.4907 269.389C33.8454 269.389 24.415 278.845 24.415 290.522C24.415 290.556 24.415 290.573 24.415 290.607H66.5664Z" fill="#64A297"/>
<path d="M312.108 176.104H49.2998V292.154H312.108V176.104Z" fill="#E4AEB4"/>
<g style="mix-blend-mode:multiply" opacity="0.3">
<path d="M312.108 241.844C264.805 233.599 215.388 245.815 166.894 248.676C150.449 249.652 133.485 249.45 118.131 243.409C101.989 237.066 88.8164 224.648 78.547 210.632C71.9022 201.562 66.1802 191.568 57.5217 184.4C55.055 182.364 52.2528 180.614 49.2827 179.268V292.172H312.091V241.861L312.108 241.844Z" fill="#F9DCDF"/>
</g>
<path d="M75.0739 196.732H61.1465V276.186H75.0739V196.732Z" fill="#FAD5F1"/>
<path d="M64.4854 187.177V281.151C64.4854 282.077 65.9116 282.077 65.9116 281.151V187.177C65.9116 186.251 64.4854 186.251 64.4854 187.177Z" fill="#FFF5FF"/>
<path d="M70.0063 187.177V281.151C70.0063 282.077 71.4326 282.077 71.4326 281.151V187.177C71.4326 186.251 70.0063 186.251 70.0063 187.177Z" fill="#FFF5FF"/>
<path d="M162.045 196.732H148.117V276.186H162.045V196.732Z" fill="#FAD5F1"/>
<path d="M151.457 187.177V281.151C151.457 282.077 152.883 282.077 152.883 281.151V187.177C152.883 186.251 151.457 186.251 151.457 187.177Z" fill="#FFF5FF"/>
<path d="M156.977 187.177V281.151C156.977 282.077 158.403 282.077 158.403 281.151V187.177C158.403 186.251 156.977 186.251 156.977 187.177Z" fill="#FFF5FF"/>
<path d="M90.5952 279.098H133.032C136.019 279.098 138.452 281.537 138.452 284.533V286.114H85.1753V284.533C85.1753 281.537 87.6084 279.098 90.5952 279.098Z" fill="#FAD5F1"/>
<path d="M95.3103 272.098H128.333C130.783 272.098 132.78 274.1 132.78 276.557V279.114H90.8804V276.557C90.8804 274.1 92.8772 272.098 95.3271 272.098H95.3103Z" fill="#FFF5FF"/>
<path d="M109.657 210.918H113.651C121.756 210.918 128.333 217.514 128.333 225.641V272.098H94.9746V225.641C94.9746 217.514 101.552 210.918 109.657 210.918Z" fill="#F5D1EE"/>
<path d="M181.61 212.818H196.259C201.595 212.818 205.941 217.16 205.941 222.527V258.047H171.945V222.527C171.945 217.176 176.274 212.818 181.627 212.818H181.61Z" fill="#FFF5FF"/>
<path d="M124.877 225.792C124.39 219.331 119.02 214.232 112.443 214.232H110.849C104.271 214.232 98.9012 219.331 98.4146 225.792H124.877Z" fill="#FFF5FF"/>
<path d="M123.82 244.957C124.988 244.957 125.934 244.008 125.934 242.837C125.934 241.666 124.988 240.717 123.82 240.717C122.652 240.717 121.706 241.666 121.706 242.837C121.706 244.008 122.652 244.957 123.82 244.957Z" fill="#603F66"/>
<path d="M205.924 234.356H190V212.818H187.852V234.356H171.928V236.493H187.852V258.03H190V236.493H205.924V234.356Z" fill="#F5D1EE"/>
<path d="M30.7578 290.606C30.9759 289.697 31.1102 288.755 31.1102 287.779C31.1102 281.385 25.9419 276.186 19.5487 276.186C13.1555 276.186 7.9873 281.368 7.9873 287.779C7.9873 288.755 8.12154 289.697 8.33968 290.606H30.741H30.7578Z" fill="#567A7A"/>
<path d="M226.799 216.857H291.788C297.61 216.857 302.342 221.602 302.342 227.441V290.523H216.244V227.441C216.244 221.602 220.976 216.857 226.799 216.857Z" fill="#FFF5FF"/>
<path d="M230.44 221.568H288.163C293.147 221.568 297.191 225.623 297.191 230.621V287.14H221.396V230.621C221.396 225.623 225.439 221.568 230.423 221.568H230.44Z" fill="#FAD5F1"/>
<path d="M217.352 232.54H299.44C300.363 232.54 300.363 231.109 299.44 231.109H217.352C216.429 231.109 216.429 232.54 217.352 232.54Z" fill="#FFF5FF"/>
<path d="M217.352 242.215H299.44C300.363 242.215 300.363 240.785 299.44 240.785H217.352C216.429 240.785 216.429 242.215 217.352 242.215Z" fill="#FFF5FF"/>
<path d="M217.352 251.889H299.44C300.363 251.889 300.363 250.459 299.44 250.459H217.352C216.429 250.459 216.429 251.889 217.352 251.889Z" fill="#FFF5FF"/>
<path d="M217.352 261.581H299.44C300.363 261.581 300.363 260.15 299.44 260.15H217.352C216.429 260.15 216.429 261.581 217.352 261.581Z" fill="#FFF5FF"/>
<path d="M217.352 271.256H299.44C300.363 271.256 300.363 269.826 299.44 269.826H217.352C216.429 269.826 216.429 271.256 217.352 271.256Z" fill="#FFF5FF"/>
<path d="M217.352 280.932H299.44C300.363 280.932 300.363 279.502 299.44 279.502H217.352C216.429 279.502 216.429 280.932 217.352 280.932Z" fill="#FFF5FF"/>
<path d="M206.998 259.107H170.854V222.51C170.854 216.571 175.67 211.725 181.61 211.725H196.259C202.182 211.725 207.015 216.554 207.015 222.51V259.107H206.998ZM173.002 256.954H204.85V222.51C204.85 217.748 200.991 213.878 196.242 213.878H181.593C176.844 213.878 172.985 217.748 172.985 222.51V256.954H173.002Z" fill="#734C79"/>
<path d="M171.811 253.689H206.042C207.753 253.689 209.163 255.086 209.163 256.819V259.326H168.689V256.819C168.689 255.103 170.082 253.689 171.811 253.689Z" fill="#603F66"/>
<path d="M147.48 276.186H162.666C165.837 276.186 168.421 278.777 168.421 281.957V286.113H141.724V281.957C141.724 278.777 144.308 276.186 147.48 276.186Z" fill="#FFF5FF"/>
<path d="M60.5256 276.186H75.7115C78.8829 276.186 81.467 278.777 81.467 281.957V286.113H54.77V281.957C54.77 278.777 57.3541 276.186 60.5256 276.186Z" fill="#FFF5FF"/>
<path d="M304.389 137.453H234.937H126.471H57.0352L38.896 196.732H126.471H234.937H322.528L304.389 137.453Z" fill="#603F66"/>
<path d="M87.323 151.553H77.2382C76.2281 151.553 75.4092 152.374 75.4092 153.387V153.589C75.4092 154.602 76.2281 155.423 77.2382 155.423H87.323C88.3331 155.423 89.152 154.602 89.152 153.589V153.387C89.152 152.374 88.3331 151.553 87.323 151.553Z" fill="#734C79"/>
<path d="M129.995 159.631H119.91C118.9 159.631 118.081 160.452 118.081 161.465V161.667C118.081 162.68 118.9 163.501 119.91 163.501H129.995C131.005 163.501 131.824 162.68 131.824 161.667V161.465C131.824 160.452 131.005 159.631 129.995 159.631Z" fill="#734C79"/>
<path d="M158.336 143.443H148.251C147.241 143.443 146.422 144.264 146.422 145.277V145.479C146.422 146.492 147.241 147.313 148.251 147.313H158.336C159.346 147.313 160.165 146.492 160.165 145.479V145.277C160.165 144.264 159.346 143.443 158.336 143.443Z" fill="#734C79"/>
<path d="M136.841 187.174H126.773C125.763 187.174 124.944 187.995 124.944 189.008V189.21C124.944 190.223 125.763 191.044 126.773 191.044H136.841C137.851 191.044 138.67 190.223 138.67 189.21V189.008C138.67 187.995 137.851 187.174 136.841 187.174Z" fill="#734C79"/>
<path d="M69.4524 170.871H59.3676C58.3575 170.871 57.5386 171.692 57.5386 172.705V172.907C57.5386 173.92 58.3575 174.741 59.3676 174.741H69.4524C70.4625 174.741 71.2814 173.92 71.2814 172.907V172.705C71.2814 171.692 70.4625 170.871 69.4524 170.871Z" fill="#734C79"/>
<path d="M98.0622 181.369H87.9775C86.9673 181.369 86.1484 182.19 86.1484 183.203V183.405C86.1484 184.418 86.9673 185.239 87.9775 185.239H98.0622C99.0724 185.239 99.8913 184.418 99.8913 183.405V183.203C99.8913 182.19 99.0724 181.369 98.0622 181.369Z" fill="#734C79"/>
<path d="M177.348 157.123H167.28C166.27 157.123 165.451 157.944 165.451 158.957V159.159C165.451 160.172 166.27 160.993 167.28 160.993H177.348C178.358 160.993 179.177 160.172 179.177 159.159V158.957C179.177 157.944 178.358 157.123 177.348 157.123Z" fill="#734C79"/>
<path d="M220.019 165.199H209.934C208.924 165.199 208.105 166.02 208.105 167.033V167.235C208.105 168.248 208.924 169.069 209.934 169.069H220.019C221.029 169.069 221.848 168.248 221.848 167.235V167.033C221.848 166.02 221.029 165.199 220.019 165.199Z" fill="#734C79"/>
<path d="M295.378 185.24H285.293C284.283 185.24 283.464 186.061 283.464 187.074V187.276C283.464 188.289 284.283 189.11 285.293 189.11H295.378C296.388 189.11 297.207 188.289 297.207 187.276V187.074C297.207 186.061 296.388 185.24 295.378 185.24Z" fill="#734C79"/>
<path d="M248.378 149.014H238.293C237.283 149.014 236.464 149.835 236.464 150.848V151.05C236.464 152.063 237.283 152.884 238.293 152.884H248.378C249.388 152.884 250.207 152.063 250.207 151.05V150.848C250.207 149.835 249.388 149.014 248.378 149.014Z" fill="#734C79"/>
<path d="M290.731 157.123H280.663C279.652 157.123 278.833 157.944 278.833 158.957V159.159C278.833 160.172 279.652 160.993 280.663 160.993H290.731C291.741 160.993 292.56 160.172 292.56 159.159V158.957C292.56 157.944 291.741 157.123 290.731 157.123Z" fill="#734C79"/>
<path d="M252.64 177.516H242.555C241.545 177.516 240.726 178.337 240.726 179.35V179.552C240.726 180.565 241.545 181.386 242.555 181.386H252.64C253.65 181.386 254.469 180.565 254.469 179.552V179.35C254.469 178.337 253.65 177.516 252.64 177.516Z" fill="#734C79"/>
<path d="M194.967 183.305H184.882C183.872 183.305 183.053 184.126 183.053 185.139V185.341C183.053 186.354 183.872 187.175 184.882 187.175H194.967C195.977 187.175 196.796 186.354 196.796 185.341V185.139C196.796 184.126 195.977 183.305 194.967 183.305Z" fill="#734C79"/>
<path d="M307.813 141.273H53.5955C51.2295 141.273 49.2998 139.338 49.2998 136.966C49.2998 134.593 51.2295 132.658 53.5955 132.658H307.813C310.178 132.658 312.108 134.593 312.108 136.966C312.108 139.338 310.178 141.273 307.813 141.273Z" fill="#4C2C53"/>
<g style="mix-blend-mode:multiply" opacity="0.12">
<path d="M169.948 176.49C143.57 178.055 114.574 178.947 93.7163 162.676C84.9403 155.827 78.2954 146.388 71.3485 137.453H57.0352L38.896 196.732H322.528L316.404 176.709C267.96 170.988 218.744 173.579 169.948 176.473V176.49Z" fill="#E4AEB4"/>
</g>
<path d="M379.866 297H0C0 290.993 4.84942 286.113 10.8567 286.113H369.026C375.016 286.113 379.883 290.976 379.883 297H379.866Z" fill="#292A60"/>
</g>
<g clip-path="url(#clip1_1121_2007)">
<path d="M630.983 289.632V153.764C630.983 86.2653 588.913 31.5586 537.017 31.5586H514.983C463.086 31.5586 421.017 86.2653 421.017 153.764V289.632H630.998H630.983Z" fill="#F4F3F2"/>
<path d="M526 5.0332L442.786 89.1528V294.608H609.214V89.1528L526 5.0332Z" fill="#CFD7F3"/>
<path d="M600.313 21.7402H576.325V78.666H600.313V21.7402Z" fill="#CFD7EF"/>
<g style="mix-blend-mode:multiply" opacity="0.38">
<path d="M609.214 228.5C589.104 222.669 568.672 217.869 548.034 214.199C526.837 210.443 503.643 206.962 489.072 191.328C481.845 183.568 477.585 173.561 474.397 163.496C464.967 133.735 463.733 102.291 460.56 71.1816L442.786 89.1513V294.606H609.229V228.5H609.214Z" fill="#21398F"/>
</g>
<path d="M458.43 274.375H526.294C528.027 274.375 529.437 275.767 529.437 277.479V283.512H455.287V277.479C455.287 275.767 456.697 274.375 458.43 274.375Z" fill="#21398F"/>
<path d="M522.299 265.252H462.44C460.707 265.252 459.297 266.644 459.297 268.356V274.389H525.442V268.356C525.442 266.644 524.032 265.252 522.299 265.252Z" fill="#386EBF"/>
<path d="M492.362 175.969C507.433 175.969 519.684 188.05 519.684 202.945V265.237H465.055V202.945C465.055 188.065 477.291 175.969 492.376 175.969H492.362Z" fill="#FFF5FF"/>
<path d="M492.362 182.352C503.805 182.352 513.103 191.532 513.103 202.83V229.705H471.636V202.83C471.636 191.532 480.934 182.352 492.377 182.352H492.362Z" fill="#CFD7EF"/>
<path d="M471.944 81.8867H578.455C585.432 81.8867 591.102 87.485 591.102 94.3741V137.348H459.297V94.3741C459.297 87.485 464.967 81.8867 471.944 81.8867Z" fill="#FFF5FF"/>
<path d="M512.736 199.088C512.618 198.45 512.457 197.812 512.281 197.189H493.317V182.395C492.994 182.395 492.685 182.352 492.362 182.352C492.039 182.352 491.73 182.381 491.407 182.395V197.189H472.444C472.267 197.812 472.106 198.436 471.988 199.088H491.407V214.419H471.636V216.318H491.407V229.705H493.332V216.318H513.103V214.419H493.332V199.088H512.751H512.736Z" fill="#345E90"/>
<path d="M516.687 236.868C516.687 238.478 515.365 239.783 513.735 239.783C512.104 239.783 510.782 238.478 510.782 236.868C510.782 235.258 512.104 233.953 513.735 233.953C515.365 233.953 516.687 235.258 516.687 236.868Z" fill="#345E90"/>
<path d="M541.03 58.6992C542.98 50.5038 537.832 42.2994 529.532 40.3742C521.231 38.4489 512.922 43.5319 510.972 51.7273C509.022 59.9227 514.17 68.1271 522.471 70.0523C530.771 71.9776 539.08 66.8946 541.03 58.6992Z" fill="#FFF5FF"/>
<path d="M526.705 40.0153C526.47 40.0153 526.235 39.9863 526 39.9863C525.765 39.9863 525.53 40.0153 525.295 40.0153V54.5332H510.591C510.591 54.7653 510.562 54.9973 510.562 55.2294C510.562 55.4614 510.591 55.6935 510.591 55.9255H525.295V70.4434C525.53 70.4434 525.765 70.4724 526 70.4724C526.235 70.4724 526.47 70.4434 526.705 70.4434V55.9255H541.409C541.409 55.6935 541.438 55.4614 541.438 55.2294C541.438 54.9973 541.409 54.7653 541.409 54.5332H526.705V40.0153Z" fill="#CFD7EF"/>
<path d="M526 37.0268C525.295 37.0268 524.707 36.4902 524.649 35.794L523.665 23.1761C523.606 22.4074 524.223 21.7402 525.016 21.7402H526.984C527.777 21.7402 528.394 22.4074 528.336 23.1761L527.351 35.794C527.293 36.4902 526.705 37.0268 526 37.0268Z" fill="#21398F"/>
<path d="M521.813 37.1001C521.476 37.4336 520.947 37.4481 520.594 37.1436L514.131 31.6758C513.734 31.3422 513.705 30.7476 514.087 30.3705L515.012 29.4568C515.38 29.0942 515.982 29.1087 516.334 29.5003L521.872 35.8818C522.181 36.2299 522.151 36.752 521.828 37.0856L521.813 37.1001Z" fill="#21398F"/>
<path d="M530.186 37.1001C530.524 37.4336 531.053 37.4481 531.405 37.1436L537.868 31.6758C538.265 31.3422 538.294 30.7476 537.912 30.3705L536.987 29.4568C536.62 29.0942 536.018 29.1087 535.665 29.5003L530.127 35.8818C529.819 36.2299 529.848 36.752 530.171 37.0856L530.186 37.1001Z" fill="#21398F"/>
<path d="M591.102 102.191H557.156V81.8867H554.453V102.191H495.946V81.8867H493.229V102.191H459.297V104.875H493.229V137.348H495.946V104.875H554.453V137.348H557.156V104.875H591.102V102.191Z" fill="#CFD7EF"/>
<path d="M587.547 226.964V197.478C587.547 185.615 577.808 175.984 565.778 175.984C553.748 175.984 544.009 185.6 544.009 197.478V226.964H587.547Z" fill="#FFF5FF"/>
<path d="M463.322 172.053H455.287C454.097 172.053 453.142 171.111 453.142 169.936C453.142 168.761 454.097 167.818 455.287 167.818H463.322C464.511 167.818 465.466 168.761 465.466 169.936C465.466 171.111 464.511 172.053 463.322 172.053Z" fill="#AABFD4"/>
<path d="M508.314 159.217H500.279C499.09 159.217 498.135 158.275 498.135 157.1C498.135 155.925 499.09 154.982 500.279 154.982H508.314C509.504 154.982 510.459 155.925 510.459 157.1C510.459 158.275 509.504 159.217 508.314 159.217Z" fill="#AABFD4"/>
<path d="M585.403 169.036H577.368C576.178 169.036 575.223 168.093 575.223 166.918C575.223 165.743 576.178 164.801 577.368 164.801H585.403C586.593 164.801 587.547 165.743 587.547 166.918C587.547 168.093 586.593 169.036 585.403 169.036Z" fill="#AABFD4"/>
<path d="M492.332 70.4557H484.297C483.108 70.4557 482.153 69.513 482.153 68.3382C482.153 67.1634 483.108 66.2207 484.297 66.2207H492.332C493.522 66.2207 494.477 67.1634 494.477 68.3382C494.477 69.513 493.522 70.4557 492.332 70.4557Z" fill="#AABFD4"/>
<path d="M556.759 53.2701H548.724C547.534 53.2701 546.58 52.3274 546.58 51.1526C546.58 49.9779 547.534 49.0352 548.724 49.0352H556.759C557.949 49.0352 558.904 49.9779 558.904 51.1526C558.904 52.3274 557.949 53.2701 556.759 53.2701Z" fill="#AABFD4"/>
<path d="M535.387 188.905H527.352C526.162 188.905 525.207 187.962 525.207 186.787C525.207 185.613 526.162 184.67 527.352 184.67H535.387C536.576 184.67 537.531 185.613 537.531 186.787C537.531 187.962 536.576 188.905 535.387 188.905Z" fill="#AABFD4"/>
<path d="M554.203 265.469H546.168C544.978 265.469 544.023 264.527 544.023 263.352C544.023 262.177 544.978 261.234 546.168 261.234H554.203C555.393 261.234 556.348 262.177 556.348 263.352C556.348 264.527 555.393 265.469 554.203 265.469Z" fill="#AABFD4"/>
<path d="M595.465 245.499H587.43C586.24 245.499 585.285 244.556 585.285 243.381C585.285 242.206 586.24 241.264 587.43 241.264H595.465C596.655 241.264 597.609 242.206 597.609 243.381C597.609 244.556 596.655 245.499 595.465 245.499Z" fill="#AABFD4"/>
<path d="M456.036 247.616H448.001C446.811 247.616 445.856 246.673 445.856 245.498C445.856 244.324 446.811 243.381 448.001 243.381H456.036C457.225 243.381 458.18 244.324 458.18 245.498C458.18 246.673 457.225 247.616 456.036 247.616Z" fill="#AABFD4"/>
<path d="M442.786 196.825H446.811C448.001 196.825 448.956 195.882 448.956 194.707C448.956 193.533 448.001 192.59 446.811 192.59H442.786V196.825Z" fill="#AABFD4"/>
<path d="M609.214 196.057H605.189C603.999 196.057 603.044 196.999 603.044 198.174C603.044 199.349 603.999 200.292 605.189 200.292H609.214V196.057Z" fill="#AABFD4"/>
<path d="M609.214 97.6934H603.882C602.692 97.6934 601.737 98.6361 601.737 99.8108C601.737 100.986 602.692 101.928 603.882 101.928H609.214V97.6934Z" fill="#AABFD4"/>
<path d="M587.547 200.146H567.115V176.041C566.674 176.012 566.233 175.969 565.778 175.969C565.323 175.969 564.882 176.012 564.441 176.041V200.146H544.009V202.785H564.441V226.948H567.115V202.785H587.547V200.146Z" fill="#CFD7EF"/>
<path d="M615.442 98.0573C614.355 98.0573 613.268 97.6367 612.46 96.81L526.499 9.99282L439.525 96.8245C437.909 98.4489 435.265 98.4634 433.62 96.8535C431.975 95.2581 431.96 92.6475 433.591 91.0231L523.547 1.21828C524.325 0.435101 525.398 0 526.514 0C527.63 0 528.703 0.449604 529.481 1.24729L618.424 91.0667C620.04 92.691 620.01 95.3016 618.35 96.897C617.543 97.6802 616.485 98.0718 615.427 98.0718L615.442 98.0573Z" fill="#4B2A3F"/>
<path d="M576.119 18.4043H600.533C602.428 18.4043 603.955 19.9126 603.955 21.7836V27.1498H572.697V21.7836C572.697 19.9126 574.224 18.4043 576.119 18.4043Z" fill="#21398F"/>
<path d="M594.73 117.826H456.139C455.463 117.826 454.919 117.289 454.919 116.622C454.919 115.955 455.463 115.418 456.139 115.418H594.73C595.406 115.418 595.95 115.955 595.95 116.622C595.95 117.289 595.406 117.826 594.73 117.826Z" fill="#2E88D2"/>
<path d="M460.78 116.621H459.341V135.519H460.78V116.621Z" fill="#21398F"/>
<path d="M467.67 116.621H466.23V135.519H467.67V116.621Z" fill="#21398F"/>
<path d="M474.544 116.621H473.104V135.519H474.544V116.621Z" fill="#21398F"/>
<path d="M481.433 116.621H479.994V135.519H481.433V116.621Z" fill="#21398F"/>
<path d="M488.308 116.621H486.868V135.519H488.308V116.621Z" fill="#21398F"/>
<path d="M495.197 116.621H493.757V135.519H495.197V116.621Z" fill="#21398F"/>
<path d="M502.071 116.621H500.632V135.519H502.071V116.621Z" fill="#21398F"/>
<path d="M508.961 116.621H507.521V135.519H508.961V116.621Z" fill="#21398F"/>
<path d="M515.835 116.621H514.396V135.519H515.835V116.621Z" fill="#21398F"/>
<path d="M522.724 116.621H521.285V135.519H522.724V116.621Z" fill="#21398F"/>
<path d="M529.599 116.621H528.159V135.519H529.599V116.621Z" fill="#21398F"/>
<path d="M536.488 116.621H535.048V135.519H536.488V116.621Z" fill="#21398F"/>
<path d="M543.362 116.621H541.923V135.519H543.362V116.621Z" fill="#21398F"/>
<path d="M550.237 116.621H548.797V135.519H550.237V116.621Z" fill="#21398F"/>
<path d="M557.127 116.621H555.687V135.519H557.127V116.621Z" fill="#21398F"/>
<path d="M564.001 116.621H562.562V135.519H564.001V116.621Z" fill="#21398F"/>
<path d="M570.89 116.621H569.451V135.519H570.89V116.621Z" fill="#21398F"/>
<path d="M577.765 116.621H576.325V135.519H577.765V116.621Z" fill="#21398F"/>
<path d="M584.654 116.621H583.214V135.519H584.654V116.621Z" fill="#21398F"/>
<path d="M591.528 116.621H590.089V135.519H591.528V116.621Z" fill="#21398F"/>
<path d="M460.119 135.506H590.265C594.745 135.506 598.373 139.103 598.373 143.512V148.501H452.011V143.512C452.011 139.088 455.654 135.506 460.119 135.506Z" fill="#21398F"/>
<path d="M588.252 227.658H543.289V197.462C543.289 185.222 553.38 175.258 565.778 175.258C578.176 175.258 588.267 185.222 588.267 197.462V227.658H588.252ZM544.729 226.252H586.828V197.462C586.828 186.005 577.383 176.679 565.778 176.679C554.174 176.679 544.729 186.005 544.729 197.462V226.252Z" fill="#AABFD4"/>
<path d="M543.965 222.336H587.577C589.707 222.336 591.44 224.047 591.44 226.15V231.27H540.102V226.15C540.102 224.047 541.835 222.336 543.965 222.336Z" fill="#21398F"/>
<path d="M642 297V296.057C642 289.081 635.287 283.41 626.988 283.41H425.012C416.728 283.41 410 289.066 410 296.057V297H642Z" fill="#292A60"/>
</g>
<defs>
<clipPath id="clip0_1121_2007">
<rect width="380" height="297" fill="white"/>
</clipPath>
<clipPath id="clip1_1121_2007">
<rect width="232" height="297" fill="white" transform="translate(410)"/>
</clipPath>
</defs>
</svg>
