<svg width="178" height="43" viewBox="0 0 178 43" fill="none" xmlns="http://www.w3.org/2000/svg">
<g clip-path="url(#clip0_1147_1704)">
<path d="M5.73634 40.3075C5.73634 40.6888 5.65676 40.9729 5.51209 41.1224C5.36742 41.272 5.1287 41.3393 4.75978 41.3393H0.976551C0.622099 41.3393 0.368919 41.272 0.224245 41.1224C0.0795709 40.9729 0 40.6888 0 40.3075V15.6484C0 14.8858 0.144674 14.3175 0.434023 13.9736C0.723371 13.6072 1.23697 13.4278 1.96034 13.4278H3.7109C4.3547 13.4278 4.94786 13.51 5.51209 13.6969C6.09079 13.8614 6.69842 14.2652 7.34222 14.8559C8.00049 15.469 8.75279 16.4186 9.60637 17.6971C10.4744 18.9757 11.5161 20.7029 12.7386 22.9086C13.9104 25.0171 14.8436 26.6919 15.5525 27.9555C16.2759 29.2191 16.8184 30.1836 17.209 30.8267C17.5924 31.4921 17.8817 31.9557 18.0771 32.2548C18.2724 32.5389 18.446 32.7707 18.5617 32.9501V16.5307C18.5617 16.1494 18.6268 15.8653 18.7353 15.6709C19.2851 14.811 20.0229 13.9138 20.9705 12.9642C21.1658 12.8147 21.3105 12.7324 21.4335 12.7324C21.5782 12.7324 21.7228 12.8147 21.882 12.9642C22.3956 13.4652 22.8296 13.9287 23.1841 14.3923C23.553 14.8409 23.8568 15.2522 24.1317 15.6709C24.2474 15.8727 24.3053 16.1718 24.3053 16.5307V39.7093C24.3053 40.2925 24.1895 40.7037 23.987 40.958C23.7845 41.2122 23.3794 41.3243 22.8151 41.3243H21.0139C20.4642 41.3243 19.9216 41.2421 19.3574 41.0551C18.7932 40.8533 18.1494 40.4271 17.426 39.7766C16.7026 39.0962 15.8708 38.0494 14.887 36.6363C13.9032 35.2231 12.7313 33.2791 11.3497 30.8416C10.1778 28.7481 9.24469 27.0882 8.53578 25.862C7.84858 24.6357 7.31329 23.7011 6.95883 23.0731C6.58991 22.445 6.3295 21.9964 6.17036 21.7422C6.01122 21.473 5.86654 21.2935 5.7508 21.159V40.285L5.72187 40.3L5.73634 40.3075Z" fill="#21398F"/>
<path d="M98.8631 41.8188C96.259 41.8188 93.9804 41.3029 92.049 40.2561C90.1176 39.2243 88.613 37.6466 87.5496 35.5755C86.4863 33.482 85.9727 30.8725 85.9727 27.7546C85.9727 22.7899 87.1445 19.0888 89.4882 16.6438C91.832 14.1839 95.1088 12.9727 99.3044 12.9727C103.24 12.9727 106.343 14.169 108.621 16.5766C110.9 18.9692 112.043 22.5058 112.043 27.2013C112.043 30.5211 111.515 33.2651 110.437 35.4409C109.374 37.6018 107.847 39.2093 105.873 40.271C103.898 41.3178 101.677 41.8188 98.9575 41.8188H98.8487H98.8631ZM98.9789 36.5699C101.243 36.5699 102.914 35.74 104.006 34.0652C105.099 32.3903 105.648 30.2145 105.648 27.5378C105.648 24.4348 105.135 22.1095 104.108 20.5468C103.08 18.9841 101.424 18.2065 99.1452 18.2065C94.6459 18.2065 92.3817 21.2796 92.3817 27.4032C92.3817 30.1398 92.9315 32.3529 94.0021 34.0427C95.0944 35.7176 96.7509 36.5475 99.0006 36.5475L98.9861 36.5625L98.9789 36.5699Z" fill="#21398F"/>
<path d="M122.836 40.3084C122.836 40.6897 122.756 40.9739 122.597 41.1234C122.452 41.2729 122.177 41.3402 121.809 41.3402H117.794C117.425 41.3402 117.15 41.2729 116.991 41.1234C116.846 40.9739 116.767 40.6897 116.767 40.3084V18.6551C116.767 17.3616 116.882 16.3298 117.107 15.5821C117.345 14.8195 117.794 14.2736 118.459 13.9521C119.132 13.6231 120.13 13.4512 121.418 13.4512H126.416C132.97 13.4512 136.247 16.0606 136.247 21.2571C136.247 22.8348 135.987 24.1283 135.473 25.1451C134.959 26.1545 134.316 26.9546 133.542 27.5228C132.768 28.0911 132.015 28.5023 131.277 28.7864V28.8836C132.109 29.4519 132.919 30.2145 133.672 31.1417C134.446 32.0539 135.133 33.0707 135.741 34.1624C136.348 35.239 136.884 36.3008 137.296 37.37C137.73 38.4167 138.019 39.3663 138.178 40.1963C138.258 40.5776 138.258 40.8767 138.178 41.0785C138.113 41.2804 137.904 41.3776 137.535 41.3776H133.18C132.862 41.3776 132.572 41.3103 132.312 41.1608C132.073 41.0112 131.849 40.6823 131.654 40.1664C130.706 37.6915 129.599 35.6652 128.362 34.125C127.125 32.5473 125.917 31.2987 124.767 30.3566C124.029 29.7435 123.66 29.3098 123.66 29.0481C123.66 28.8462 123.776 28.5472 124.015 28.1883C124.159 27.9714 124.384 27.7097 124.673 27.3882C124.962 27.0667 125.223 26.8424 125.425 26.6929C125.635 26.5433 125.809 26.4461 125.939 26.3938C126.084 26.3639 126.279 26.3265 126.568 26.3265C127.501 26.3265 128.268 25.9975 128.883 25.3321C129.512 24.6666 129.831 23.6198 129.831 22.1917C129.831 20.8459 129.491 19.8514 128.832 19.2383C128.174 18.6103 127.277 18.2888 126.12 18.2888H124.999C124.167 18.2888 123.602 18.4682 123.313 18.8346C123.009 19.201 122.865 19.8141 122.865 20.6963V40.3234H122.85L122.836 40.3084Z" fill="#21398F"/>
<path d="M146.335 41.2876C145.047 41.2876 144.284 41.1754 143.604 40.839C142.946 40.51 142.483 39.9418 142.251 39.1791C142.02 38.4165 141.911 37.3996 141.911 36.121V16.5463C141.911 16.165 141.976 15.8809 142.106 15.6865C142.671 14.8266 143.459 13.9294 144.486 12.9798C144.682 12.8303 144.841 12.748 144.971 12.748C145.116 12.748 145.275 12.8303 145.434 12.9798C145.984 13.4808 146.447 13.9444 146.83 14.4079C147.199 14.8566 147.539 15.2678 147.807 15.6865C147.937 15.8884 148.002 16.1874 148.002 16.5463V33.7957C148.002 34.6555 148.147 35.2911 148.45 35.6575C148.754 36.0388 149.318 36.2257 150.136 36.2257H155.923C156.227 36.2108 156.451 36.2556 156.596 36.3603C156.914 36.5921 157.254 36.8762 157.608 37.1902C157.963 37.5192 158.332 37.9005 158.715 38.3492C158.845 38.5137 158.91 38.6482 158.91 38.7679C158.91 38.8875 158.845 39.0146 158.715 39.1492C158.332 39.5978 157.963 39.9941 157.608 40.3081C157.254 40.6371 156.921 40.9063 156.596 41.1381C156.422 41.2353 156.19 41.2876 155.923 41.2876H146.57H146.457H146.335Z" fill="#21398F"/>
<path d="M169.992 40.3767C169.992 40.758 169.92 40.9745 169.761 41.1241C169.616 41.2736 169.341 41.3409 168.972 41.3409H164.957C164.574 41.3409 164.314 41.2736 164.154 41.1241C164.01 40.9745 163.93 40.6904 163.93 40.3091V31.5236L160.19 27.0225C159.293 25.9458 158.548 24.9813 157.926 24.114C157.319 23.2541 156.863 22.3718 156.573 21.4746C156.27 20.5624 156.125 19.4783 156.125 18.2371V16.5249C156.125 16.1435 156.19 15.8594 156.32 15.665C156.885 14.8052 157.673 13.9079 158.7 12.9583C158.896 12.8088 159.055 12.7266 159.214 12.7266C159.373 12.7266 159.518 12.8088 159.677 12.9583C160.227 13.4593 160.689 13.9229 161.073 14.3864C161.456 14.8351 161.782 15.2463 162.049 15.665C162.18 15.8669 162.245 16.166 162.245 16.5249V18.2221C162.245 19.067 162.483 20.0016 162.954 21.026C163.438 22.0578 164.241 23.1868 165.362 24.4131L167.193 26.4094L168.979 24.4131C169.992 23.284 170.766 22.2073 171.294 21.1755C171.844 20.1437 172.097 19.1642 172.097 18.2371V16.5249C172.097 16.1435 172.162 15.8594 172.292 15.665C172.842 14.8201 173.594 13.9229 174.593 12.9583C174.788 12.8088 174.947 12.7266 175.056 12.7266C175.2 12.7266 175.359 12.8088 175.519 12.9583C176.047 13.4593 176.495 13.9229 176.85 14.3864C177.233 14.8351 177.537 15.2463 177.812 15.665C177.942 15.8669 178.007 16.166 178.007 16.5249V18.2371C178.007 19.6652 177.703 21.026 177.11 22.3419C176.502 23.6354 175.49 25.1159 174.043 26.7758L170.028 31.3891L169.992 40.0029V40.3767Z" fill="#21398F"/>
<path d="M80.3088 29.8111C79.7952 28.8615 79.0718 28.0989 78.1893 27.5231C77.3068 26.925 76.3085 26.5437 75.2018 26.3941V26.3119C76.0698 26.0128 76.8727 25.5642 77.5961 24.966C78.3339 24.3679 78.9271 23.6576 79.3828 22.8052C79.8313 21.9603 80.0556 21.0257 80.0556 20.0013C80.0556 17.9227 79.2526 16.3152 77.6323 15.1712C76.0264 14.0272 73.7116 13.459 70.6952 13.459C68.5395 13.459 66.5141 14.6703 65.5809 16.6741C64.8648 18.2143 63.8304 19.5677 62.5645 20.6369C61.5445 21.4967 60.8862 22.7304 60.8862 24.0912V36.1291C60.8862 37.4077 61.002 38.4171 61.2262 39.1872C61.4505 39.9499 61.9207 40.5181 62.5789 40.8471C63.2517 41.1761 64.2499 41.348 65.5375 41.348H65.6108L71.2304 41.4004C73.1763 41.4004 74.8762 41.1013 76.3519 40.4732C77.8493 39.8228 79.0212 38.8956 79.853 37.6694C80.7066 36.4207 81.1406 34.8805 81.1406 33.0711C81.1406 31.8448 80.8802 30.7607 80.3377 29.8335L80.3088 29.8111ZM73.5597 35.6955C72.7857 36.3759 71.773 36.7049 70.5071 36.7049H69.0748C68.2574 36.7049 67.6932 36.5254 67.3893 36.1366C67.0855 35.7702 66.9409 35.1422 66.9409 34.2748H66.9698V20.4724C66.9698 19.5901 67.1289 18.977 67.4183 18.6106C67.7076 18.2442 68.2719 18.0648 69.1037 18.0648H70.1165C71.1436 18.0648 72.0117 18.2816 72.67 18.6929C73.3282 19.1116 73.6682 19.9191 73.6682 21.1528C73.6682 22.3865 73.3499 23.2762 72.7206 23.8445C72.0913 24.4277 71.4185 24.7043 70.6807 24.7043H70.6952C70.4203 24.7043 70.196 24.7567 70.0224 24.8389C69.7041 25.0558 69.3641 25.3025 69.0097 25.6016C68.6697 25.9006 68.3008 26.2521 67.9029 26.6633C67.7727 26.7979 67.7076 26.9325 67.7076 27.0297C67.7076 27.097 67.7727 27.2315 67.9029 27.396C68.308 27.8147 68.6769 28.1587 69.0097 28.4578C69.3641 28.7419 69.6969 29.0036 70.0224 29.2204C70.1671 29.3027 70.3913 29.355 70.6952 29.355H70.6807C71.8887 29.355 72.8508 29.669 73.6031 30.3046C74.3554 30.9326 74.7243 31.7626 74.7243 32.929C74.7243 34.0954 74.3192 35.0076 73.5525 35.688L73.5597 35.6955Z" fill="#21398F"/>
<path d="M53.8407 23.2533C60.053 23.2533 65.0891 18.0479 65.0891 11.6267C65.0891 5.20544 60.053 0 53.8407 0C47.6284 0 42.5923 5.20544 42.5923 11.6267C42.5923 18.0479 47.6284 23.2533 53.8407 23.2533Z" fill="#21398F"/>
<path d="M33.3548 13.4577C29.7958 13.2259 28.5154 15.1475 28.7107 18.6542V36.1204C28.5154 39.5972 29.6063 41.4814 33.1725 41.2346H33.3692H42.8309C44.0679 41.0552 45.1385 39.7766 45.8184 38.7074C45.1674 37.6083 44.0751 36.3447 42.8309 36.1503C41.6446 35.926 37.6153 35.141 35.4451 35.141C32.5513 35.141 32.6461 29.7426 35.4455 29.9071C38.0714 30.0566 43.1058 29.9519 44.5525 27.2677C43.113 24.5386 38.1003 24.5311 35.4455 24.6732C32.1904 25.1592 31.3295 19.073 35.4455 19.0655C35.9302 19.0356 40.7114 18.6542 42.2522 18.4823C42.6718 18.4374 42.9105 17.9738 42.7369 17.5775C40.574 12.5979 38.3894 13.4129 33.3548 13.4503V13.4577Z" fill="#21398F"/>
<path d="M51.8152 24.712C51.3595 24.6222 50.9399 24.9886 50.9399 25.4671V41.1246C50.9399 41.1246 50.9979 41.1246 51.3596 41.1246C51.7212 41.1246 51.714 41.1246 52.0829 41.1246H52.8063H53.8914H55.6998C56.0687 41.1246 56.0425 41.1246 56.4232 41.1246C56.6799 41.1246 56.7344 41.1246 56.8644 41.1246V25.4447C56.8644 24.9587 56.4376 24.5923 55.9746 24.6895C55.2802 24.8316 54.5713 24.9064 53.8407 24.9064C53.1462 24.9064 52.4735 24.8316 51.8152 24.7045V24.712Z" fill="#21398F"/>
</g>
<defs>
<clipPath id="clip0_1147_1704">
<rect width="178" height="43" fill="white"/>
</clipPath>
</defs>
</svg>
